<svg height='100px' width='100px'  fill="#000000" xmlns="http://www.w3.org/2000/svg" xmlns:xlink="http://www.w3.org/1999/xlink" version="1.0" x="0px" y="0px" viewBox="-392 -26.9 1133.9 1133.9" style="enable-background:new -392 -26.9 1133.9 1133.9;" xml:space="preserve"><g><path d="M395.3,319.3c-28.6-28.6-62-51-99.1-66.7c-38.4-16.3-79.2-24.5-121.2-24.5s-82.8,8.3-121.2,24.5   c-37.1,15.7-70.5,38.1-99.1,66.7c-59,58.9-91.5,137.3-91.5,220.7c0,83.5,32.4,161.9,91.2,220.7c58.8,58.8,137.1,91.2,220.6,91.2   s161.9-32.4,220.6-91.2c58.8-58.8,91.2-137.2,91.2-220.7C486.8,456.6,454.3,378.2,395.3,319.3z M375.3,740.3   C321.9,793.6,250.8,823,175,823S28,793.7-25.3,740.3C-78.6,686.9-108,615.8-108,540c0-75.7,29.5-146.9,83-200.3   C28.5,286.4,99.5,257,175,257s146.5,29.4,200,82.7c53.5,53.5,83,124.6,83,200.3C458,615.8,428.6,686.9,375.3,740.3z"></path><polygon points="279,403.3 175.1,507.2 71.2,403.3 38.4,436.1 142.3,540 38.4,643.9 71.2,676.7 175.1,572.8 279,676.7 311.8,643.9    207.9,540 311.8,436.1  "></polygon></g></svg>