<svg height='100pt' width='100pt'  fill="#000000" xmlns="http://www.w3.org/2000/svg" xmlns:xlink="http://www.w3.org/1999/xlink" version="1.1" x="0pt" y="0pt" viewBox="0 0 1000 1000" style="enable-background:new 0 0 1000 1000;" xml:space="preserve"><g><path d="M712.1,198.4L443.9,362.2V829c49.7,91.9,139,32.3,139,32.3l260.7-163.9V225.7   C731.9,255.5,712.1,198.4,712.1,198.4z M657.6,500.8l-10.4-88.6L798.4,300l2.6,108.2L657.6,500.8z M577.6,412.2   c0,0-82.1,11.7-98.9-35.1l228.4-144c0,0,48.4,26.6,105.1,14.9L577.6,412.2z"></path><path d="M665.6,207.3c-31.1,4-88.9,5-118-35.4L301,310.9v458.3c0,0,31.6,66.4,129.6,22.1V345.7L667.7,214   C671.2,212,669.5,206.7,665.6,207.3z M418,333.1c0,0-79,15.8-75.9-19l211.8-116.9c0,0,22.1,31.6,63.2,22.1L418,333.1z"></path><path d="M520.9,155.1c-31.1,4-88.9,5-118-35.4L156.4,258.8v458.3c0,0,31.6,66.4,129.6,22.1V293.6l237.1-131.7   C526.5,159.9,524.8,154.6,520.9,155.1z M273.3,280.9c0,0-79,15.8-75.9-19L409.2,145c0,0,22.1,31.6,63.2,22.1L273.3,280.9z"></path></g></svg>