<svg xmlns="http://www.w3.org/2000/svg"
	xmlns:xlink="http://www.w3.org/1999/xlink" width="100" height="100"
	viewBox="0 0 100 100">
	<g
		transform="translate(50 50) scale(0.69 0.69) rotate(0) translate(-50 -50)"
		style="fill:#000000">
		<svg fill="#000000" xmlns="http://www.w3.org/2000/svg"
			xmlns:xlink="http://www.w3.org/1999/xlink" version="1.1" x="0pt"
			y="0pt" viewBox="0 0 64 64" style="enable-background:new 0 0 64 64;"
			xml:space="preserve"><path d="M57.511,8.814C56.972,8.877,44.266,10.432,39.376,18.9c-4.403,7.626-0.782,17.934,0.139,20.273L32,52.191l-7.516-13.018  c0.922-2.339,4.542-12.647,0.139-20.273C19.734,10.432,7.028,8.877,6.489,8.814C6.057,8.764,5.633,9.006,5.458,9.411  C5.242,9.908,0.236,21.689,5.125,30.157c4.402,7.626,15.139,9.644,17.627,10.016l8.382,14.518c0.014,0.023,0.033,0.041,0.048,0.063  c0.018,0.026,0.036,0.049,0.057,0.073c0.074,0.088,0.156,0.165,0.252,0.222c0.004,0.002,0.006,0.006,0.01,0.008  c0.001,0.001,0.003,0.001,0.004,0.002c0.059,0.034,0.123,0.056,0.187,0.077c0.101,0.033,0.205,0.055,0.308,0.055  c0,0,0.001,0,0.001,0s0.001,0,0.001,0c0.106,0,0.212-0.023,0.316-0.058c0.061-0.021,0.123-0.042,0.179-0.074  c0.001-0.001,0.003-0.001,0.004-0.002c0.004-0.002,0.006-0.006,0.01-0.008c0.095-0.057,0.178-0.134,0.252-0.222  c0.02-0.024,0.039-0.047,0.057-0.073c0.015-0.022,0.035-0.039,0.048-0.063l8.382-14.518c2.488-0.371,13.224-2.39,17.627-10.016  c4.889-8.468-0.117-20.25-0.333-20.747C58.368,9.006,57.942,8.762,57.511,8.814z M6.857,29.157  C3.112,22.67,6.05,13.513,7.015,10.916c2.731,0.463,12.131,2.497,15.876,8.984c3.281,5.684,1.432,13.416,0.275,16.991L15.74,24.029  c-0.277-0.478-0.89-0.644-1.366-0.366c-0.479,0.276-0.642,0.888-0.366,1.366l7.428,12.865C17.763,37.111,10.145,34.852,6.857,29.157  z M57.143,29.157c-3.281,5.683-10.902,7.948-14.577,8.734l7.426-12.862c0.276-0.479,0.112-1.09-0.366-1.366  c-0.481-0.277-1.09-0.112-1.366,0.366l-7.427,12.865c-1.159-3.571-3.011-11.298,0.277-16.993c3.745-6.487,13.147-8.521,15.877-8.984  C57.953,13.51,60.895,22.658,57.143,29.157z"></path></svg>
	</g>
</svg>