<svg height='100px' width='100px'  fill="#000000" xmlns="http://www.w3.org/2000/svg" xmlns:xlink="http://www.w3.org/1999/xlink" version="1.1" x="0px" y="0px" viewBox="0 0 100 100" style="enable-background:new 0 0 100 100;" xml:space="preserve"><g><path d="M58.518,37.276c-0.087,1.339-1.993,1.365-2.084-0.006C56.463,35.881,58.489,35.834,58.518,37.276z M61.342,37.27   c0.092,1.371,1.998,1.345,2.085,0.006C63.398,35.834,61.371,35.881,61.342,37.27z M66.252,37.27   c0.091,1.371,1.998,1.345,2.084,0.006C68.308,35.834,66.281,35.881,66.252,37.27z M71.16,37.27   c0.092,1.371,1.998,1.345,2.085,0.006C73.217,35.834,71.189,35.881,71.16,37.27z M76.07,37.27c0.091,1.371,1.998,1.345,2.084,0.006   C78.127,35.834,76.099,35.881,76.07,37.27z M80.979,37.27c0.091,1.371,1.997,1.345,2.085,0.006   C83.035,35.834,81.008,35.881,80.979,37.27z M85.889,37.27c0.091,1.371,1.998,1.345,2.084,0.006   C87.945,35.834,85.918,35.881,85.889,37.27z M58.888,34.816c0.091,1.37,1.998,1.345,2.085,0.006   C60.944,33.379,58.917,33.427,58.888,34.816z M63.797,34.816c0.091,1.37,1.998,1.345,2.084,0.006   C65.854,33.379,63.826,33.427,63.797,34.816z M68.706,34.816c0.091,1.37,1.998,1.345,2.085,0.006   C70.763,33.379,68.735,33.427,68.706,34.816z M73.615,34.816c0.092,1.37,1.998,1.345,2.085,0.006   C75.672,33.379,73.645,33.427,73.615,34.816z M78.524,34.816c0.092,1.37,1.998,1.345,2.085,0.006   C80.581,33.379,78.554,33.427,78.524,34.816z M83.434,34.816c0.092,1.37,1.998,1.345,2.085,0.006   C85.49,33.379,83.463,33.427,83.434,34.816z M56.434,32.361c0.091,1.37,1.997,1.345,2.084,0.007   C58.489,30.925,56.463,30.972,56.434,32.361z M61.342,32.361c0.092,1.37,1.998,1.345,2.085,0.007   C63.398,30.925,61.371,30.972,61.342,32.361z M66.252,32.361c0.091,1.37,1.998,1.345,2.084,0.007   C68.308,30.925,66.281,30.972,66.252,32.361z M71.16,32.361c0.092,1.37,1.998,1.345,2.085,0.007   C73.217,30.925,71.189,30.972,71.16,32.361z M76.07,32.361c0.091,1.37,1.998,1.345,2.084,0.007   C78.127,30.925,76.099,30.972,76.07,32.361z M80.979,32.361c0.091,1.37,1.997,1.345,2.085,0.007   C83.035,30.925,81.008,30.972,80.979,32.361z M85.889,32.361c0.091,1.37,1.998,1.345,2.084,0.007   C87.945,30.925,85.918,30.972,85.889,32.361z M58.888,29.906c0.091,1.371,1.998,1.346,2.085,0.007   C60.944,28.47,58.917,28.518,58.888,29.906z M63.797,29.906c0.091,1.371,1.998,1.346,2.084,0.007   C65.854,28.47,63.826,28.518,63.797,29.906z M68.706,29.906c0.091,1.371,1.998,1.346,2.085,0.007   C70.763,28.47,68.735,28.518,68.706,29.906z M73.615,29.906c0.092,1.371,1.998,1.346,2.085,0.007   C75.672,28.47,73.645,28.518,73.615,29.906z M78.524,29.906c0.092,1.371,1.998,1.346,2.085,0.007   C80.581,28.47,78.554,28.518,78.524,29.906z M83.434,29.906c0.092,1.371,1.998,1.346,2.085,0.007   C85.49,28.47,83.463,28.518,83.434,29.906z M56.434,27.452c0.091,1.37,1.997,1.345,2.084,0.006   C58.489,26.015,56.463,26.063,56.434,27.452z M61.342,27.452c0.092,1.37,1.998,1.345,2.085,0.006   C63.398,26.015,61.371,26.063,61.342,27.452z M66.252,27.452c0.091,1.37,1.998,1.345,2.084,0.006   C68.308,26.015,66.281,26.063,66.252,27.452z M71.16,27.452c0.092,1.37,1.998,1.345,2.085,0.006   C73.217,26.015,71.189,26.063,71.16,27.452z M76.07,27.452c0.091,1.37,1.998,1.345,2.084,0.006   C78.127,26.015,76.099,26.063,76.07,27.452z M80.979,27.452c0.091,1.37,1.997,1.345,2.085,0.006   C83.035,26.015,81.008,26.063,80.979,27.452z M85.889,27.452c0.091,1.37,1.998,1.345,2.084,0.006   C87.945,26.015,85.918,26.063,85.889,27.452z M58.888,24.997c0.091,1.371,1.998,1.346,2.085,0.007   C60.944,23.561,58.917,23.608,58.888,24.997z M63.797,24.997c0.091,1.371,1.998,1.346,2.084,0.007   C65.854,23.561,63.826,23.608,63.797,24.997z M68.706,24.997c0.091,1.371,1.998,1.346,2.085,0.007   C70.763,23.561,68.735,23.608,68.706,24.997z M73.615,24.997c0.092,1.371,1.998,1.346,2.085,0.007   C75.672,23.561,73.645,23.608,73.615,24.997z M78.524,24.997c0.092,1.371,1.998,1.346,2.085,0.007   C80.581,23.561,78.554,23.608,78.524,24.997z M83.434,24.997c0.092,1.371,1.998,1.346,2.085,0.007   C85.49,23.561,83.463,23.608,83.434,24.997z M56.434,22.542c0.091,1.371,1.997,1.346,2.084,0.007   C58.489,21.106,56.463,21.154,56.434,22.542z M61.342,22.542c0.092,1.371,1.998,1.346,2.085,0.007   C63.398,21.106,61.371,21.154,61.342,22.542z M66.252,22.542c0.091,1.371,1.998,1.346,2.084,0.007   C68.308,21.106,66.281,21.154,66.252,22.542z M71.16,22.542c0.092,1.371,1.998,1.346,2.085,0.007   C73.217,21.106,71.189,21.154,71.16,22.542z M76.07,22.542c0.091,1.371,1.998,1.346,2.084,0.007   C78.127,21.106,76.099,21.154,76.07,22.542z M80.979,22.542c0.091,1.371,1.997,1.346,2.085,0.007   C83.035,21.106,81.008,21.154,80.979,22.542z M85.889,22.542c0.091,1.371,1.998,1.346,2.084,0.007   C87.945,21.106,85.918,21.154,85.889,22.542z M58.888,20.087c0.091,1.371,1.998,1.345,2.085,0.007   C60.944,18.652,58.917,18.7,58.888,20.087z M63.797,20.087c0.091,1.371,1.998,1.345,2.084,0.007   C65.854,18.652,63.826,18.7,63.797,20.087z M68.706,20.087c0.091,1.371,1.998,1.345,2.085,0.007   C70.763,18.652,68.735,18.7,68.706,20.087z M73.615,20.087c0.092,1.371,1.998,1.345,2.085,0.007   C75.672,18.652,73.645,18.7,73.615,20.087z M78.524,20.087c0.092,1.371,1.998,1.345,2.085,0.007   C80.581,18.652,78.554,18.7,78.524,20.087z M83.434,20.087c0.092,1.371,1.998,1.345,2.085,0.007   C85.49,18.652,83.463,18.7,83.434,20.087z M56.434,17.633c0.091,1.37,1.997,1.345,2.084,0.006   C58.489,16.197,56.463,16.245,56.434,17.633z M61.342,17.633c0.092,1.37,1.998,1.345,2.085,0.006   C63.398,16.197,61.371,16.245,61.342,17.633z M66.252,17.633c0.091,1.37,1.998,1.345,2.084,0.006   C68.308,16.197,66.281,16.245,66.252,17.633z M71.16,17.633c0.092,1.37,1.998,1.345,2.085,0.006   C73.217,16.197,71.189,16.245,71.16,17.633z M76.07,17.633c0.091,1.37,1.998,1.345,2.084,0.006   C78.127,16.197,76.099,16.245,76.07,17.633z M80.979,17.633c0.091,1.37,1.997,1.345,2.085,0.006   C83.035,16.197,81.008,16.245,80.979,17.633z M85.889,17.633c0.091,1.37,1.998,1.345,2.084,0.006   C87.945,16.197,85.918,16.245,85.889,17.633z M58.888,15.178c0.091,1.371,1.998,1.345,2.085,0.007   C60.944,13.743,58.917,13.79,58.888,15.178z M63.797,15.178c0.091,1.371,1.998,1.345,2.084,0.007   C65.854,13.743,63.826,13.79,63.797,15.178z M68.706,15.178c0.091,1.371,1.998,1.345,2.085,0.007   C70.763,13.743,68.735,13.79,68.706,15.178z M73.615,15.178c0.092,1.371,1.998,1.345,2.085,0.007   C75.672,13.743,73.645,13.79,73.615,15.178z M78.524,15.178c0.092,1.371,1.998,1.345,2.085,0.007   C80.581,13.743,78.554,13.79,78.524,15.178z M83.434,15.178c0.092,1.371,1.998,1.345,2.085,0.007   C85.49,13.743,83.463,13.79,83.434,15.178z M56.434,12.723c0.091,1.371,1.997,1.346,2.084,0.007   C58.489,11.288,56.463,11.335,56.434,12.723z M61.342,12.723c0.092,1.371,1.998,1.346,2.085,0.007   C63.398,11.288,61.371,11.335,61.342,12.723z M66.252,12.723c0.091,1.371,1.998,1.346,2.084,0.007   C68.308,11.288,66.281,11.335,66.252,12.723z M71.16,12.723c0.092,1.371,1.998,1.346,2.085,0.007   C73.217,11.288,71.189,11.335,71.16,12.723z M76.07,12.723c0.091,1.371,1.998,1.346,2.084,0.007   C78.127,11.288,76.099,11.335,76.07,12.723z M80.979,12.723c0.091,1.371,1.997,1.346,2.085,0.007   C83.035,11.288,81.008,11.335,80.979,12.723z M85.889,12.723c0.091,1.371,1.998,1.346,2.084,0.007   C87.945,11.288,85.918,11.335,85.889,12.723z M58.888,10.269c0.091,1.371,1.998,1.345,2.085,0.006   C60.944,8.833,58.917,8.88,58.888,10.269z M63.797,10.269c0.091,1.371,1.998,1.345,2.084,0.006   C65.854,8.833,63.826,8.88,63.797,10.269z M68.706,10.269c0.091,1.371,1.998,1.345,2.085,0.006   C70.763,8.833,68.735,8.88,68.706,10.269z M73.615,10.269c0.092,1.371,1.998,1.345,2.085,0.006   C75.672,8.833,73.645,8.88,73.615,10.269z M78.524,10.269c0.092,1.371,1.998,1.345,2.085,0.006   C80.581,8.833,78.554,8.88,78.524,10.269z M83.434,10.269c0.092,1.371,1.998,1.345,2.085,0.006   C85.49,8.833,83.463,8.88,83.434,10.269z M56.434,7.814c0.091,1.371,1.997,1.346,2.084,0.007   C58.489,6.378,56.463,6.426,56.434,7.814z M61.342,7.814c0.092,1.371,1.998,1.346,2.085,0.007   C63.398,6.378,61.371,6.426,61.342,7.814z M66.252,7.814c0.091,1.371,1.998,1.346,2.084,0.007   C68.308,6.378,66.281,6.426,66.252,7.814z M71.16,7.814c0.092,1.371,1.998,1.346,2.085,0.007   C73.217,6.378,71.189,6.426,71.16,7.814z M76.07,7.814c0.091,1.371,1.998,1.346,2.084,0.007C78.127,6.378,76.099,6.426,76.07,7.814   z M80.979,7.814c0.091,1.371,1.997,1.346,2.085,0.007C83.035,6.378,81.008,6.426,80.979,7.814z M85.889,7.814   c0.091,1.371,1.998,1.346,2.084,0.007C87.945,6.378,85.918,6.426,85.889,7.814z M65,60h5v-5h-5V60z M55,89.998h-5v10h10v-5h-5   V89.998z M55,79.998h-5v5h5V79.998z M65,99.998h5v-5h-5V99.998z M75,60h5v-5h-5V60z M75,99.998h5v-5h-5V99.998z M55,69.998h-5v5h5   V69.998z M90,84.998h5v-5h-5V84.998z M85,60h5v4.998h5V55H85V60z M90,74.998h5v-5h-5V74.998z M50,64.998h5V60h5v-5H50V64.998z    M95,0.001V45H50V0.001H95z M90,6.177c-0.869,0.623-1.93-0.273-1.599-1.176h-2.943c0.192,0.584-0.12,1.325-0.962,1.381   c-0.85-0.018-1.194-0.782-1.006-1.381h-2.941c0.193,0.584-0.12,1.325-0.963,1.381c-0.849-0.018-1.193-0.782-1.005-1.381h-2.942   c0.193,0.584-0.119,1.325-0.961,1.381c-0.85-0.018-1.194-0.782-1.006-1.381H70.73c0.192,0.584-0.12,1.325-0.963,1.381   c-0.849-0.018-1.193-0.782-1.006-1.381H65.82c0.193,0.584-0.119,1.325-0.961,1.381c-0.85-0.018-1.195-0.782-1.006-1.381h-2.941   c0.192,0.584-0.12,1.325-0.963,1.381C59.1,6.365,58.756,5.6,58.943,5.001h-2.938c0.25,0.694-0.321,1.403-1.006,1.385v2.826   c0.521-0.015,1.049,0.332,1.063,1.063c-0.044,0.68-0.557,1.02-1.063,1.012v2.835c0.521-0.015,1.049,0.332,1.063,1.063   c-0.044,0.679-0.557,1.019-1.063,1.011v2.836c0.521-0.016,1.049,0.331,1.063,1.063c-0.044,0.679-0.557,1.019-1.063,1.011v2.835   c0.521-0.015,1.049,0.332,1.063,1.063c-0.044,0.679-0.557,1.019-1.063,1.011v2.836c0.521-0.016,1.049,0.331,1.063,1.063   c-0.044,0.68-0.557,1.019-1.063,1.011v2.836c0.521-0.015,1.049,0.332,1.063,1.063c-0.044,0.68-0.557,1.02-1.063,1.012v2.828   c0.665-0.012,1.246,0.657,1.024,1.339h2.914c-0.17-0.592,0.155-1.32,1.018-1.338c0.804,0.053,1.131,0.76,0.97,1.338h2.922   c-0.17-0.592,0.156-1.32,1.018-1.338c0.804,0.053,1.131,0.76,0.969,1.338h2.923c-0.17-0.592,0.156-1.32,1.018-1.338   c0.804,0.053,1.13,0.76,0.969,1.338h2.923c-0.17-0.592,0.156-1.32,1.018-1.338c0.804,0.053,1.131,0.76,0.969,1.338h2.923   c-0.17-0.592,0.156-1.32,1.018-1.338c0.804,0.053,1.131,0.76,0.97,1.338h2.922c-0.17-0.592,0.156-1.32,1.018-1.338   c0.805,0.053,1.131,0.76,0.97,1.338h2.915c-0.271-0.872,0.749-1.769,1.613-1.131v-3.234c-0.592,0.425-1.592,0.165-1.656-0.819   c0.02-0.989,1.053-1.294,1.656-0.868v-3.223c-0.592,0.426-1.592,0.166-1.656-0.819c0.02-0.989,1.053-1.293,1.656-0.867v-3.223   c-0.592,0.426-1.592,0.165-1.656-0.819c0.02-0.989,1.053-1.294,1.656-0.867v-3.223c-0.592,0.426-1.592,0.165-1.656-0.819   c0.02-0.989,1.053-1.293,1.656-0.867v-3.223c-0.592,0.426-1.592,0.165-1.656-0.819c0.02-0.989,1.053-1.294,1.656-0.867v-3.223   c-0.592,0.426-1.592,0.165-1.656-0.819C88.363,9.28,89.396,8.975,90,9.402V6.177z M25,66.666V20h-5v46.666L10,50H5l15,24.999h5   L40,50h-5L25,66.666z M90,94.998h-5v5h10v-10h-5V94.998z"></path></g></svg>