<svg xmlns="http://www.w3.org/2000/svg" xmlns:xlink="http://www.w3.org/1999/xlink" xmlns:serif="http://www.serif.com/" viewBox="0 0 32 32" version="1.1" xml:space="preserve" style="" x="0px" y="0px" fill-rule="evenodd" clip-rule="evenodd" stroke-linejoin="round" stroke-miterlimit="2"><g transform="matrix(0.264583,0,0,0.264583,0,0)"><path d="M34.008,11.324C31.92,11.331 30.235,13.037 30.244,15.125L30.244,30.244C30.25,32.321 31.931,34.002 34.008,34.008L56.693,34.008L56.693,66.407L17.296,38.504C16.577,37.987 15.699,37.739 14.815,37.803C12.857,37.952 11.325,39.604 11.324,41.567L11.324,105.827C11.324,105.832 11.324,105.837 11.324,105.842C11.324,107.915 13.03,109.621 15.103,109.621C15.11,109.621 15.118,109.621 15.125,109.621L105.827,109.621C107.899,109.62 109.603,107.914 109.603,105.842C109.603,104.616 109.006,103.463 108.004,102.756L79.377,82.478L79.377,34.008L102.062,34.008C104.139,34.002 105.82,32.321 105.827,30.244L105.827,15.125C105.835,13.037 104.15,11.331 102.062,11.324L34.008,11.324ZM37.803,18.89L98.26,18.89L98.26,26.449L75.583,26.449C73.495,26.456 71.81,28.155 71.818,30.244L71.818,77.126L64.252,71.767L64.252,30.244C64.261,28.144 62.557,26.441 60.458,26.449L37.803,26.449L37.803,18.89ZM18.89,48.883L93.964,102.062L18.89,102.062L18.89,48.883ZM30.303,68.039C30.18,68.035 30.056,68.038 29.934,68.046C27.976,68.199 26.447,69.855 26.449,71.818L26.449,90.701C26.449,90.706 26.449,90.712 26.449,90.717C26.449,92.79 28.155,94.496 30.228,94.496C30.233,94.496 30.238,94.496 30.244,94.496L56.693,94.496C56.702,94.496 56.711,94.496 56.72,94.496C58.793,94.496 60.499,92.79 60.499,90.717C60.499,89.491 59.902,88.338 58.9,87.63L32.421,68.748C31.803,68.303 31.064,68.056 30.303,68.039ZM34.008,79.156L44.919,86.937L34.008,86.937L34.008,79.156Z"></path></g></svg>