<?xml version="1.0" encoding="UTF-8"?>
<svg width="1200pt" height="1200pt" version="1.1" viewBox="0 0 1200 1200" xmlns="http://www.w3.org/2000/svg">
 <path d="m367.68 332.32c-9.7617-9.7656-25.59-9.7656-35.352 0-9.7656 9.7617-9.7656 25.59 0 35.352l232.32 232.32-232.32 232.32c-9.7656 9.7656-9.7656 25.594 0 35.359 9.7617 9.7617 25.59 9.7617 35.352 0l232.32-232.32 232.32 232.32c9.7656 9.7617 25.594 9.7617 35.359 0 9.7617-9.7656 9.7617-25.594 0-35.359l-232.32-232.32 232.32-232.32c9.7617-9.7617 9.7617-25.59 0-35.352-9.7656-9.7656-25.594-9.7656-35.359 0l-232.32 232.32z" fill="#00449e"/>
</svg>
