<svg height='100px' width='100px'  fill="#000000" xmlns="http://www.w3.org/2000/svg" xmlns:xlink="http://www.w3.org/1999/xlink" version="1.1" x="0px" y="0px" viewBox="0 0 100 100" style="enable-background:new 0 0 100 100;" xml:space="preserve"><g><path d="M50,99C23,99,1,77,1,50S23,1,50,1s49,22,49,49S77,99,50,99z M50,11.9C29,11.9,11.9,29,11.9,50S29,88.1,50,88.1   S88.1,71,88.1,50S71,11.9,50,11.9z"></path><path d="M44.4,71.8c-1.4,0-2.8-0.5-3.8-1.6L24.4,54.1c-2.1-2.1-2.1-5.6,0-7.7c2.1-2.1,5.6-2.1,7.7,0l12.3,12.3l23.4-23.4   c2.1-2.1,5.6-2.1,7.7,0s2.1,5.6,0,7.7L48.2,70.2C47.1,71.2,45.7,71.8,44.4,71.8z"></path></g></svg>