<svg xmlns="http://www.w3.org/2000/svg" xmlns:xlink="http://www.w3.org/1999/xlink" xmlns:a="http://ns.adobe.com/AdobeSVGViewerExtensions/3.0/" version="1.1" x="0px" y="0px" viewBox="-12.352 -8.915 100 100" enable-background="new -12.352 -8.915 100 100" xml:space="preserve"><path d="M41.227,16.093L41.227,16.093c-0.904-0.939-2.173-1.525-3.578-1.525s-2.674,0.586-3.577,1.526v-0.001L16.768,34.125  c-1.896,1.976-1.832,5.114,0.145,7.01c0.961,0.921,2.197,1.379,3.432,1.379c1.304,0,2.605-0.51,3.578-1.523l8.769-9.137v30.905  c0,2.738,2.219,4.958,4.958,4.958c2.738,0,4.959-2.22,4.959-4.958V31.854l8.767,9.137c0.974,1.014,2.274,1.523,3.578,1.523  c1.234,0,2.472-0.458,3.433-1.379c1.976-1.896,2.04-5.034,0.145-7.01L41.227,16.093z"></path><path d="M4.957,9.916h65.381c2.739,0,4.959-2.22,4.959-4.958C75.297,2.22,73.077,0,70.338,0H4.957C2.22,0,0,2.22,0,4.958  C0,7.696,2.22,9.916,4.957,9.916z"></path><path d="M4.957,82.17h65.381c2.739,0,4.959-2.221,4.959-4.959c0-2.739-2.22-4.959-4.959-4.959H4.957C2.22,72.252,0,74.472,0,77.211  C0,79.95,2.22,82.17,4.957,82.17z"></path></svg>