<svg xmlns="http://www.w3.org/2000/svg" xmlns:xlink="http://www.w3.org/1999/xlink" xmlns:a="http://ns.adobe.com/AdobeSVGViewerExtensions/3.0/" version="1.1" x="0px" y="0px" viewBox="-12.334 -8.896 100 100" enable-background="new -12.334 -8.896 100 100" xml:space="preserve"><path d="M41.246,16.093l-0.002,0.001c-0.902-0.94-2.17-1.526-3.576-1.526s-2.674,0.586-3.576,1.526l-0.002-0.001L16.787,34.125  c-1.896,1.976-1.832,5.114,0.145,7.01c0.961,0.921,2.197,1.378,3.432,1.378c1.305,0,2.605-0.509,3.578-1.523l8.768-9.137V62.76  c0,2.738,2.221,4.957,4.959,4.957s4.957-2.219,4.957-4.957V31.854l8.768,9.137c0.975,1.014,2.275,1.523,3.58,1.523  c1.234,0,2.471-0.458,3.432-1.378c1.977-1.896,2.041-5.034,0.145-7.01L41.246,16.093z"></path><path d="M4.977,9.916h65.381c2.738,0,4.959-2.22,4.959-4.958C75.316,2.22,73.096,0,70.357,0H4.977C2.238,0,0.02,2.22,0.02,4.958  C0.02,7.696,2.238,9.916,4.977,9.916z"></path><path d="M70.357,72.253L70.357,72.253L70.357,72.253h-4.977v9.953h4.977l0,0l0,0c2.75,0,4.977-2.227,4.977-4.975  C75.334,74.481,73.107,72.253,70.357,72.253z"></path><path d="M0,77.231c0,2.748,2.229,4.975,4.977,4.975h4.979v-9.953H4.977C2.229,72.253,0,74.481,0,77.231z"></path><rect x="16.346" y="72.253" width="9.955" height="9.953"></rect><rect x="32.691" y="72.253" width="9.953" height="9.953"></rect><rect x="49.035" y="72.253" width="9.955" height="9.953"></rect></svg>