<svg xmlns:dc="http://purl.org/dc/elements/1.1/" xmlns:cc="http://creativecommons.org/ns#" xmlns:rdf="http://www.w3.org/1999/02/22-rdf-syntax-ns#" xmlns:svg="http://www.w3.org/2000/svg" xmlns="http://www.w3.org/2000/svg" xmlns:sodipodi="http://sodipodi.sourceforge.net/DTD/sodipodi-0.dtd" xmlns:inkscape="http://www.inkscape.org/namespaces/inkscape" version="1.1" x="0px" y="0px" viewBox="0 0 100 100"><g transform="translate(0,-952.36218)"><path d="m 94,980.23711 c 0,-12.08486 -9.7589,-21.87496 -21.8438,-21.87496 l -44.2812,0 C 15.7901,958.36215 6,968.15225 6,980.23711 l 0,44.25009 c 0,12.0849 9.7901,21.875 21.875,21.875 l 44.2812,0 c 12.0849,0 21.8438,-9.7901 21.8438,-21.875 l 0,-44.25009 z m -3.7188,0 0,44.25009 c 0,10.0751 -8.0499,18.125 -18.125,18.125 l -44.2812,0 c -10.0751,0 -18.125,-8.0499 -18.125,-18.125 l 0,-44.25009 c 0,-0.6297 0.032,-1.2626 0.094,-1.87496 0.9212,-9.186 8.5858,-16.25 18.0312,-16.25 l 44.2812,0 c 0.6297,0 1.2626,0.032 1.875,0.094 9.1861,0.9213 16.25,8.5859 16.25,18.03116 z m -27.25,15 a 1.9987079,1.995466 0 0 0 -0.5312,-1.25 l -10.9062,-11.8438 -0.094,-0.125 a 2.0022032,1.9989557 0 0 0 -0.031,0 1.9987079,1.995466 0 0 0 -0.063,-0.094 2.0022032,1.9989557 0 0 0 -0.094,-0.062 1.9987079,1.995466 0 0 0 -0.1563,-0.125 1.9987079,1.995466 0 0 0 -0.062,-0.062 2.0022032,1.9989557 0 0 0 -0.094,-0.031 1.9987079,1.995466 0 0 0 -0.094,-0.062 2.0022032,1.9989557 0 0 0 -0.094,-0.031 1.9987079,1.995466 0 0 0 -0.094,-0.062 2.0022032,1.9989557 0 0 0 -0.094,-0.031 1.9987079,1.995466 0 0 0 -0.094,-0.031 2.0022032,1.9989557 0 0 0 -0.094,0 1.9987079,1.995466 0 0 0 -0.094,-0.031 2.0022032,1.9989557 0 0 0 -0.094,0 1.9987079,1.995466 0 0 0 -0.094,-0.031 2.0022032,1.9989557 0 0 0 -0.094,0 1.9987079,1.995466 0 0 0 -0.125,0 2.0022032,1.9989557 0 0 0 -0.094,0 1.9987079,1.995466 0 0 0 -0.094,0.031 2.0022032,1.9989557 0 0 0 -0.094,0 1.9987079,1.995466 0 0 0 -0.125,0.031 2.0022032,1.9989557 0 0 0 -0.094,0.031 1.9987079,1.995466 0 0 0 -0.094,0 2.0022032,1.9989557 0 0 0 -0.094,0.062 1.9987079,1.995466 0 0 0 -0.125,0.062 2.0022032,1.9989557 0 0 0 -0.031,0 1.9987079,1.995466 0 0 0 -0.094,0.062 2.0022032,1.9989557 0 0 0 -0.1562,0.062 1.9987079,1.995466 0 0 0 -0.031,0.031 2.0022032,1.9989557 0 0 0 -0.062,0.062 1.9987079,1.995466 0 0 0 -0.062,0.062 2.0022032,1.9989557 0 0 0 -0.094,0.062 1.9987079,1.995466 0 0 0 -0.063,0.094 2.0022032,1.9989557 0 0 0 -0.1874,0.2188 l -10.8126,11.75 a 2.0037413,2.0004913 0 1 0 2.9688,2.6875 l 7.5,-8.1563 0,27.68759 -7.5,-8.1562 a 2.0037413,2.0004913 0 1 0 -2.9688,2.6875 l 10.8126,11.75 a 2.0022032,1.9989557 0 0 0 0.094,0.125 l 0.094,0.094 a 1.9987079,1.995466 0 0 0 0.2188,0.2187 2.0022032,1.9989557 0 0 0 0.094,0.094 1.9987079,1.995466 0 0 0 0.3124,0.1563 2.0022032,1.9989557 0 0 0 0.094,0.062 1.9987079,1.995466 0 0 0 0.062,0.031 2.0022032,1.9989557 0 0 0 0.062,0 1.9987079,1.995466 0 0 0 0.5625,0.094 2.0022032,1.9989557 0 0 0 1.2187,-0.375 1.9987079,1.995466 0 0 0 0.1563,-0.125 2.0022032,1.9989557 0 0 0 0.2813,-0.2813 l 10.9062,-11.8437 a 1.9987079,1.995466 0 0 0 0.5312,-1.4375 1.9987079,1.995466 0 0 0 -3.5,-1.25 l -7.5312,8.1562 0,-27.68759 7.5312,8.1563 a 1.9987079,1.995466 0 0 0 3.5,-1.25 1.9987079,1.995466 0 0 0 0,-0.1875 z" style="text-indent:0;text-transform:none;direction:ltr;block-progression:tb;baseline-shift:baseline;color:#000000;enable-background:accumulate;" fill="#000000" fill-opacity="1" stroke="none" marker="none" visibility="visible" display="inline" overflow="visible"></path></g></svg>