<svg height='100px' width='100px'  fill="#000000" xmlns="http://www.w3.org/2000/svg" xmlns:xlink="http://www.w3.org/1999/xlink" version="1.1" x="0px" y="0px" viewBox="0 0 24 24" style="enable-background:new 0 0 24 24;" xml:space="preserve"><style type="text/css">
	.st0{fill-rule:evenodd;clip-rule:evenodd;fill:#000000;}
	.st1{fill:#000000;}
</style><g><g><path class="st0" d="M21.6,13.5l0.7-0.7c0.4-0.4,0.4-1,0-1.4l-0.7-0.7c-0.4-0.4-1-0.4-1.4,0l-0.7,0.7L21.6,13.5z"></path></g><g><polygon class="st0" points="18.7,12 11,19.8 11,22 13.1,22 20.9,14.2   "></polygon></g></g><g><g><g><path class="st1" d="M6.5,5C7.3,5,8,5.7,8,6.5C8,7.2,7.4,8,6.5,8C5.7,8,5,7.3,5,6.5S5.7,5,6.5,5 M6.5,4C5.1,4,4,5.1,4,6.5     S5.1,9,6.5,9S9,7.8,9,6.5C9,5.1,7.9,4,6.5,4L6.5,4z"></path></g></g></g><g><path class="st1" d="M9,19.1H1.4c-0.8,0-1.4-0.6-1.4-1.4V1.4C0,0.7,0.7,0,1.4,0h16.2C18.3,0,19,0.7,19,1.4V7c0,0.6-0.4,1-1,1   s-1-0.4-1-1V2H2v15.1h7c0.6,0,1,0.4,1,1S9.6,19.1,9,19.1z"></path></g><g><path class="st1" d="M5.4,15.5c-0.1,0-0.3,0-0.4-0.1c-0.2-0.2-0.2-0.5,0-0.7l4-4.1c0.1-0.1,0.2-0.1,0.4-0.1c0,0,0,0,0,0   c0.1,0,0.3,0.1,0.4,0.1l2.2,2.2c0.2,0.2,0.2,0.5,0,0.7s-0.5,0.2-0.7,0l-1.9-1.9l-3.6,3.7C5.7,15.5,5.5,15.5,5.4,15.5z"></path></g><g><path class="st1" d="M10.7,12.7c-0.1,0-0.3,0-0.4-0.1c-0.2-0.2-0.2-0.5,0-0.7L13,9.2c0.2-0.2,0.5-0.2,0.7,0l2,2   c0.2,0.2,0.2,0.5,0,0.7s-0.5,0.2-0.7,0l-1.6-1.6L11,12.5C11,12.6,10.8,12.7,10.7,12.7z"></path></g></svg>