<svg xmlns="http://www.w3.org/2000/svg" xmlns:xlink="http://www.w3.org/1999/xlink" version="1.1" x="0px" y="0px" viewBox="0 0 100 100" enable-background="new 0 0 100 100" xml:space="preserve"><path fill="#000000" d="M89.66,21.865H74.659c-2.761-0.001-5.001,2.239-4.999,5c-0.002,2.762,2.237,5,4.999,5h2.932l-5.663,5.663  c-5.205,5.205-11.143,7.427-19.857,7.428l-12.198,0.009c-11.459,0.001-21.989,5.422-29.15,12.583l-3.918,3.918  c-1.952,1.952-1.952,5.118,0,7.07c1.953,1.953,5.119,1.953,7.071,0l3.917-3.917c5.206-5.206,13.37-9.653,22.084-9.654l12.199-0.009  c11.458-0.002,19.763-3.195,26.924-10.356l5.661-5.662v2.929c0,2.761,2.238,5,5,5c1.381,0.001,2.631-0.559,3.535-1.463  c0.905-0.905,1.465-2.156,1.465-3.537V26.865C94.66,24.104,92.422,21.865,89.66,21.865z"></path></svg>