<svg height='100px' width='100px'  fill="#000000" xmlns:dc="http://purl.org/dc/elements/1.1/" xmlns:cc="http://creativecommons.org/ns#" xmlns:rdf="http://www.w3.org/1999/02/22-rdf-syntax-ns#" xmlns:svg="http://www.w3.org/2000/svg" xmlns="http://www.w3.org/2000/svg" xmlns:sodipodi="http://sodipodi.sourceforge.net/DTD/sodipodi-0.dtd" xmlns:inkscape="http://www.inkscape.org/namespaces/inkscape" version="1.1" x="0px" y="0px" viewBox="0 0 100 100"><g transform="translate(0,-952.36217)"><path style="font-size:medium;font-style:normal;font-variant:normal;font-weight:normal;font-stretch:normal;text-indent:0;text-align:start;text-decoration:none;line-height:normal;letter-spacing:normal;word-spacing:normal;text-transform:none;direction:ltr;block-progression:tb;writing-mode:lr-tb;text-anchor:start;baseline-shift:baseline;opacity:1;color:#000000;fill:#000000;fill-opacity:1;stroke:none;stroke-width:1.66666662999999990;marker:none;visibility:visible;display:inline;overflow:visible;enable-background:accumulate;font-family:Sans;-inkscape-font-specification:Sans" d="M 22 43 C 18.145851 43 15 46.14582 15 50 C 15 53.8541 18.145851 57 22 57 C 25.854149 57 29 53.8541 29 50 C 29 46.14582 25.854149 43 22 43 z M 50 43 C 46.145851 43 43 46.14582 43 50 C 43 53.8541 46.145851 57 50 57 C 53.854149 57 57 53.8541 57 50 C 57 46.14582 53.854149 43 50 43 z M 78 43 C 74.145851 43 71 46.14582 71 50 C 71 53.8541 74.145851 57 78 57 C 81.854149 57 85 53.8541 85 50 C 85 46.14582 81.854149 43 78 43 z M 22 45 C 24.773268 45 27 47.2267 27 50 C 27 52.7732 24.773268 55 22 55 C 19.226732 55 17 52.7732 17 50 C 17 47.2267 19.226732 45 22 45 z M 50 45 C 52.773268 45 55 47.2267 55 50 C 55 52.7732 52.773268 55 50 55 C 47.226732 55 45 52.7732 45 50 C 45 47.2267 47.226732 45 50 45 z M 78 45 C 80.773268 45 83 47.2267 83 50 C 83 52.7732 80.773268 55 78 55 C 75.226732 55 73 52.7732 73 50 C 73 47.2267 75.226732 45 78 45 z " transform="translate(0,952.36217)"></path></g></svg>