<svg height='100px' width='100px'  fill="#000000" xmlns="http://www.w3.org/2000/svg" xmlns:xlink="http://www.w3.org/1999/xlink" viewBox="0 0 100 100" version="1.1" x="0px" y="0px"><title>10.4</title><desc>Created with Sketch.</desc><g stroke="none" stroke-width="1" fill="none" fill-rule="evenodd"><g fill-rule="nonzero" fill="#000000"><path d="M13,19 L27.5518003,19 L27.5518003,19 C28.4875463,19 29.3936779,19.3280649 30.1125379,19.9271149 L34.7218655,23.7682213 L34.7218655,23.7682213 C34.9015805,23.9179838 35.1281134,24 35.3620499,24 L77,24 L77,24 C79.209139,24 81,25.790861 81,28 L81,37 C81,37.5522847 81.4477153,38 82,38 L86,38 C88.1929224,38 89.9706372,39.7777148 89.9706372,41.9706372 C89.9706372,42.2733924 89.9360107,42.5751542 89.8674325,42.8700401 L81.7195223,77.906054 C81.2981881,79.7177912 79.6835747,81 77.8234902,81 L13,81 C10.790861,81 9,79.209139 9,77 L9,23 L9,23 C9,20.790861 10.790861,19 13,19 L13,19 Z M77,37 L77,29 L77,29 C77,28.4477153 76.5522847,28 76,28 L35,28 L35,28 C34.064254,28 33.1581224,27.6719351 32.4392624,27.0728851 L27.8299347,23.2317787 C27.6502197,23.0820162 27.4236868,23 27.1897503,23 L14,23 L14,23.0000622 C13.4477396,23.0000622 13.0000344,23.4477396 13,24 L12.9973423,65.710665 L12.9973423,65.710665 C12.997332,65.8763504 13.1316382,66.0106733 13.2973236,66.0106837 C13.4370274,66.0106924 13.5582459,65.9142676 13.5896597,65.7781415 L19.2844857,41.100562 C19.7033144,39.2856376 21.3194266,38 23.1820505,38 L76,38 L76,38 C76.5522847,38 77,37.5522847 77,37 L77,37 Z M16.2570511,77 L77.0293628,77 C77.4943839,77 77.8980372,76.6794478 78.0033708,76.2265135 L85.6778084,43.2264319 L85.6778084,43.2264319 C85.8029083,42.6885022 85.4682436,42.1510104 84.9303138,42.0259104 C84.8560683,42.008644 84.780092,41.9999234 84.7038651,41.9999184 L24.668994,41.9960301 C23.7376336,41.9959698 22.9295073,42.6388017 22.7200821,43.5463111 L15.2826599,75.7751405 L15.2826599,75.7751405 C15.1584734,76.3132819 15.4940502,76.8502047 16.0321916,76.9743912 C16.1059342,76.9914087 16.1813703,77 16.2570511,77 Z"></path></g></g></svg>