<svg height='100px' width='100px'  fill="#000000" xmlns:dc="http://purl.org/dc/elements/1.1/" xmlns:cc="http://creativecommons.org/ns#" xmlns:rdf="http://www.w3.org/1999/02/22-rdf-syntax-ns#" xmlns:svg="http://www.w3.org/2000/svg" xmlns="http://www.w3.org/2000/svg" xmlns:sodipodi="http://sodipodi.sourceforge.net/DTD/sodipodi-0.dtd" xmlns:inkscape="http://www.inkscape.org/namespaces/inkscape" version="1.1" x="0px" y="0px" viewBox="0 0 100 100"><g transform="translate(0,-952.36218)"><path d="m 53.393722,975.81885 a 1.0001,1.0001 0 0 0 -0.094,0.031 l -23.0312,0 c -2.2109,0 -4.0312,1.8203 -4.0312,4.0312 l 0,48.40625 c 0,2.2123 1.8203,4.0313 4.0312,4.0313 l 2.0312,0 0,0.5313 c 0,1.6413 1.3273,3 2.9688,3 l 36.4688,0 c 1.6413,0 3,-1.3587 3,-3 l 0,-13.2814 c 0,-1.6415 -1.3587,-2.9687 -3,-2.9687 l -2.6563,0 0,-25.49995 a 1.0001,1.0001 0 0 0 0,-0.094 1.0001,1.0001 0 0 0 0,-0.2812 1.0001,1.0001 0 0 0 0,-0.094 1.0001,1.0001 0 0 0 0,-0.031 1.0001,1.0001 0 0 0 -0.031,-0.063 1.0001,1.0001 0 0 0 0,-0.031 1.0001,1.0001 0 0 0 -0.031,-0.062 1.0001,1.0001 0 0 0 0,-0.031 1.0001,1.0001 0 0 0 -0.062,-0.062 1.0001,1.0001 0 0 0 -0.062,-0.094 1.0001,1.0001 0 0 0 -0.031,-0.062 1.0001,1.0001 0 0 0 -0.031,-0.031 1.0001,1.0001 0 0 0 -0.031,-0.031 l -14.5937,-14.0312 a 1.0001,1.0001 0 0 0 -0.062,-0.063 1.0001,1.0001 0 0 0 -0.6562,-0.2187 1.0001,1.0001 0 0 0 -0.094,0 z m -23.125,2.0313 22.25,0 0,9.9687 c 0,2.2116 1.8208,4.0313 4.0312,4.0313 l 10.5313,0 0,24.74995 -31.8125,0 c -1.6415,0 -2.9688,1.3272 -2.9688,2.9687 l 0,10.7501 -2.0312,0 c -1.129,0 -2.0312,-0.8993 -2.0312,-2.0313 l 0,-48.40625 c 0,-1.1291 0.9022,-2.0312 2.0312,-2.0312 z m 24.25,1.3437 10.1875,9.7813 0.9063,0.875 -9.0626,0 c -1.1293,0 -2.0312,-0.9009 -2.0312,-2.0313 l 0,-8.625 z m -22.8438,14.9375 a 1.0098428,1.0098428 0 0 0 0.2813,2 l 31.5313,0 a 1.0001,1.0001 0 1 0 0,-2 l -31.5313,0 a 1.0001,1.0001 0 0 0 -0.1875,0 1.0043849,1.0043849 0 0 0 -0.094,0 z m 0,5.90615 a 1.0098428,1.0098428 0 0 0 0.2813,2 l 31.5313,0 a 1.0001,1.0001 0 1 0 0,-2 l -31.5313,0 a 1.0001,1.0001 0 0 0 -0.1875,0 1.0043849,1.0043849 0 0 0 -0.094,0 z m 0,5.9063 a 1.0098428,1.0098428 0 0 0 0.2813,2 l 31.5313,0 a 1.0001,1.0001 0 1 0 0,-2 l -31.5313,0 a 1.0001,1.0001 0 0 0 -0.1875,0 1.0043849,1.0043849 0 0 0 -0.094,0 z m 0.094,5.875 a 1.0043849,1.0043849 0 1 0 0.1875,2 l 17,0 a 1.0001,1.0001 0 1 0 0,-2 l -17,0 a 1.0001,1.0001 0 0 0 -0.094,0 1.0011039,1.0011039 0 0 0 -0.094,0 z m 3.5,6.7813 36.4688,0 c 0.568,0 1,0.4006 1,0.9687 l 0,13.2814 c 0,0.568 -0.432,1 -1,1 l -36.4688,0 c -0.5681,0 -0.9688,-0.432 -0.9688,-1 l 0,-13.2814 c 0,-0.5681 0.4007,-0.9687 0.9688,-0.9687 z m 15.2188,3.6874 c -0.5908,0 -1.0822,0.072 -1.5,0.25 -0.4177,0.1783 -0.7468,0.4405 -0.9688,0.7813 -0.222,0.3409 -0.3438,0.7336 -0.3438,1.1251 0,0.6082 0.2469,1.1082 0.7188,1.5313 0.3356,0.3005 0.918,0.5437 1.75,0.75 0.6467,0.1608 1.0682,0.2807 1.25,0.3437 0.2656,0.094 0.4559,0.2161 0.5625,0.3437 0.1069,0.1277 0.1563,0.287 0.1563,0.4688 0,0.2831 -0.1216,0.5073 -0.375,0.7188 -0.2536,0.2114 -0.6252,0.3124 -1.125,0.3124 -0.472,0 -0.8471,-0.106 -1.125,-0.3437 -0.278,-0.2377 -0.4716,-0.6181 -0.5626,-1.125 l -1.5,0.1563 c 0.1015,0.86 0.3854,1.5195 0.9063,1.9687 0.5208,0.4492 1.2782,0.6563 2.25,0.6563 0.6676,0 1.2401,-0.094 1.6875,-0.2813 0.4475,-0.1871 0.7865,-0.4593 1.0312,-0.8437 0.2447,-0.3846 0.375,-0.8096 0.375,-1.25 0,-0.486 -0.108,-0.8885 -0.3124,-1.2188 -0.2046,-0.3303 -0.482,-0.5908 -0.8438,-0.7812 -0.3618,-0.1906 -0.9324,-0.353 -1.6875,-0.5313 -0.755,-0.1782 -1.2417,-0.367 -1.4375,-0.5313 -0.1537,-0.1293 -0.2188,-0.2869 -0.2188,-0.4687 0,-0.1992 0.086,-0.35 0.25,-0.4687 0.2551,-0.1849 0.6117,-0.2813 1.0626,-0.2813 0.4369,0 0.7502,0.077 0.9687,0.25 0.2184,0.1731 0.3715,0.48 0.4375,0.875 l 1.5625,-0.094 c -0.024,-0.7062 -0.2937,-1.2646 -0.7813,-1.6877 -0.4877,-0.423 -1.2228,-0.625 -2.1874,-0.625 z m -5.875,0.125 0,4.9689 c 0,0.6222 -0.075,1.0213 -0.2188,1.2188 -0.1433,0.1973 -0.4039,0.3124 -0.75,0.3124 -0.3426,0 -0.5822,-0.13 -0.75,-0.4062 -0.112,-0.1817 -0.1705,-0.4971 -0.1875,-0.9375 l -1.4687,0.1563 c 0,0.8215 0.2159,1.4501 0.625,1.875 0.409,0.4247 0.9913,0.625 1.75,0.625 0.6466,0 1.1675,-0.1354 1.5624,-0.4063 0.3951,-0.2709 0.6623,-0.6151 0.8126,-1.0625 0.1118,-0.3426 0.1562,-0.8326 0.1562,-1.4688 l 0,-4.8751 -1.5312,0 z m -5.7813,6.2189 0,1.4688 1.4687,0 0,-1.4688 -1.4687,0 z" style="text-indent:0;text-transform:none;direction:ltr;block-progression:tb;baseline-shift:baseline;color:#000000;enable-background:accumulate;" fill="#000000" fill-opacity="1" stroke="none" marker="none" visibility="visible" display="inline" overflow="visible"></path></g></svg>