<svg height='100px' width='100px'  fill="#000000" xmlns:dc="http://purl.org/dc/elements/1.1/" xmlns:cc="http://creativecommons.org/ns#" xmlns:rdf="http://www.w3.org/1999/02/22-rdf-syntax-ns#" xmlns:svg="http://www.w3.org/2000/svg" xmlns="http://www.w3.org/2000/svg" xmlns:sodipodi="http://sodipodi.sourceforge.net/DTD/sodipodi-0.dtd" xmlns:inkscape="http://www.inkscape.org/namespaces/inkscape" version="1.1" x="0px" y="0px" viewBox="0 0 100 100"><g transform="translate(0,-952.36218)"><path d="m 32.838155,971.73271 c -2.2109,0 -4.0313,1.7891 -4.0313,4 l 0,48.43759 c 0,2.212 1.8204,4 4.0313,4 l 2.75,0 0,0.5624 c 0,1.6415 1.3586,3 3,3 l 36.468699,0 c 1.6415,0 2.9688,-1.3585 2.9688,-3 l 0,-13.2812 c 0,-1.6415 -1.3273,-3 -2.9688,-3 l -3.4062,0 0,-25.71879 a 1.0001,1.0001 0 0 0 -0.3125,-0.7187 l -5.124999,-4.9063 4.531299,-4.5312 a 1.0001,1.0001 0 1 0 -1.406299,-1.4062 l -4.5625,4.5624 -4.5,-4.3124 1.7188,-1.6876 a 1.0001,1.0001 0 0 0 -0.8126,-1.7187 1.0001,1.0001 0 0 0 -0.5937,0.3125 l -1.75,1.6875 -2.0937,-2 a 1.0001,1.0001 0 0 0 -0.6876,-0.2813 l -23.2187,0 z m 0,2 22.8125,0 1.7812,1.6876 -6.1562,6 a 1.0001,1.0001 0 0 0 -0.062,0.062 1.0001,1.0001 0 0 0 -0.031,0.063 1.0001,1.0001 0 0 0 -0.031,0.031 1.0001,1.0001 0 0 0 -0.031,0.031 1.0001,1.0001 0 0 0 -0.031,0.063 1.0001,1.0001 0 0 0 -0.2187,0.375 l -2.25,8.1562 a 1.0001,1.0001 0 0 0 1.2187,1.25 l 8.0625,-2.3438 a 1.0001,1.0001 0 0 0 0.4375,-0.1562 1.0001,1.0001 0 0 0 0.3437,-0.3438 l 6.125,-6.0937 4.8438,4.625 0,25.31249 -31.0625,0 c -1.6414,0 -3,1.3585 -3,3 l 0,10.7188 -2.75,0 c -1.129,0 -2.0313,-0.8685 -2.0313,-2 l 0,-48.43759 c 0,-1.1288 0.9023,-2 2.0313,-2 z m 26.0313,3.0626 4.5,4.3437 -5.5626,5.5313 -4.4062,-4.5 5.4688,-5.375 z m -6.4688,7.2187 3.5312,3.5937 -4.9374,1.4063 1.4062,-5 z m -4.4375,8 c -0.4471,0.1001 -0.7923,0.5419 -0.7813,1 l 0,1.4375 -8.9374,0 c -0.2958,-1.2702 -1.4298,-2.25 -2.7813,-2.25 -1.5708,0 -2.875,1.3042 -2.875,2.875 0,1.5707 1.3042,2.8438 2.875,2.8438 1.4403,0 2.6515,-1.0802 2.8437,-2.4688 l 6.5626,0 c -2.0934,0.9825 -3.8028,2.4453 -5.0938,4.0625 -2.2878,2.86589 -3.4001,6.04669 -3.0312,8.34369 l 1.9687,-0.3124 c -0.196,-1.2199 0.6248,-4.2758 2.625,-6.7813 1.4265,-1.78689 3.3774,-3.31539 5.8437,-4.06249 l 0,0.4375 c 0,0.5236 0.4764,0.9999 1,1 l 4.125,0 c 0.5237,-10e-5 0.9998,-0.4764 1,-1 l 0,-0.625 c 2.6654,0.5955 4.7463,1.987 6.2813,3.68749 2.0545,2.2759 3.0937,5.1528 3.0937,7.0625 l 2,0 c 0,-2.5736 -1.2172,-5.7737 -3.5937,-8.40629 -1.2358,-1.3688 -2.8297,-2.5672 -4.7187,-3.4062 l 5.8124,0 c 0.1922,1.3886 1.4037,2.4688 2.8438,2.4688 1.5709,0 2.8438,-1.2731 2.8438,-2.8438 0,-1.5708 -1.273,-2.875 -2.8438,-2.875 -1.3511,0 -2.4852,0.9801 -2.7812,2.25 l -8.9376,0 0,-1.4375 c -2e-4,-0.5236 -0.4763,-0.9999 -1,-1 l -4.125,0 c -0.073,-0.01 -0.146,-0.01 -0.2187,0 z m 1.2187,2 2.125,0 0,2.125 -2.125,0 0,-2.125 z m -13.7187,0.1875 c 0.4899,0 0.875,0.3852 0.875,0.875 0,0.4899 -0.3851,0.8438 -0.875,0.8438 -0.4898,0 -0.875,-0.3539 -0.875,-0.8438 0,-0.4898 0.3852,-0.875 0.875,-0.875 z m 29.5625,0 c 0.49,0 0.8438,0.3852 0.8438,0.875 0,0.4899 -0.3538,0.8438 -0.8438,0.8438 -0.4897,0 -0.875,-0.3539 -0.875,-0.8438 0,-0.4898 0.3853,-0.875 0.875,-0.875 z m -26.4375,20.24999 36.468699,0 c 0.5681,0 0.9688,0.4319 0.9688,1 l 0,13.2812 c 0,0.568 -0.4008,1 -0.9688,1 l -36.468699,0 c -0.568,0 -1,-0.432 -1,-1 l 0,-13.2812 c 0,-0.5681 0.432,-1 1,-1 z m 9.25,3.7188 c -0.5907,0 -1.1136,0.072 -1.5313,0.25 -0.4176,0.1783 -0.7468,0.4404 -0.9687,0.7812 -0.222,0.3409 -0.3125,0.7023 -0.3125,1.0938 0,0.6083 0.2156,1.1395 0.6875,1.5624 0.3355,0.3008 0.9492,0.5438 1.7813,0.75 0.6467,0.1609 1.0369,0.2808 1.2187,0.3438 0.2656,0.094 0.4559,0.2161 0.5625,0.3438 0.1069,0.1276 0.1562,0.2556 0.1562,0.4374 0,0.2831 -0.1216,0.5387 -0.375,0.75 -0.2534,0.2115 -0.6251,0.3126 -1.125,0.3126 -0.4719,0 -0.847,-0.1061 -1.125,-0.3438 -0.2779,-0.2377 -0.4714,-0.6182 -0.5624,-1.125 l -1.5,0.1562 c 0.1013,0.86 0.4166,1.5197 0.9374,1.9688 0.5209,0.4492 1.247,0.6562 2.2188,0.6562 0.6676,0 1.2401,-0.094 1.6875,-0.2812 0.4474,-0.187 0.7865,-0.4593 1.0313,-0.8438 0.2447,-0.3844 0.375,-0.8096 0.375,-1.25 0,-0.4859 -0.1081,-0.8883 -0.3126,-1.2187 -0.2044,-0.3303 -0.4819,-0.5908 -0.8437,-0.7813 -0.3618,-0.1905 -0.9324,-0.3841 -1.6875,-0.5624 -0.755,-0.1783 -1.2104,-0.3358 -1.4062,-0.5 -0.1537,-0.1294 -0.25,-0.2871 -0.25,-0.4688 0,-0.1993 0.086,-0.3499 0.25,-0.4688 0.2551,-0.1848 0.6116,-0.2812 1.0624,-0.2812 0.437,0 0.7817,0.077 1,0.25 0.2185,0.173 0.3403,0.4488 0.4063,0.8438 l 1.5625,-0.063 c -0.024,-0.7061 -0.2936,-1.2644 -0.7812,-1.6874 -0.4878,-0.423 -1.1915,-0.625 -2.1563,-0.625 z m 14.6563,0 c -0.5054,0.048 -0.943,0.1836 -1.3126,0.375 -0.6467,0.332 -1.1331,0.8152 -1.4687,1.4374 -0.3356,0.6223 -0.5,1.3245 -0.5,2.125 0,0.7375 0.1369,1.4351 0.4375,2.0626 0.3007,0.6275 0.7772,1.1002 1.375,1.4374 0.5977,0.3374 1.2897,0.5 2.0938,0.5 0.6327,0 1.2579,-0.1042 1.875,-0.3437 0.617,-0.2394 1.0811,-0.5292 1.4062,-0.8437 l 0,-3.0626 -3.3438,0 0,1.2813 1.7813,0 0,1 c -0.2342,0.1817 -0.517,0.3411 -0.8437,0.4687 -0.327,0.1274 -0.6437,0.1876 -0.9688,0.1876 -0.6572,0 -1.1883,-0.2313 -1.5938,-0.6876 -0.4054,-0.456 -0.625,-1.1501 -0.625,-2.0624 0,-0.846 0.1936,-1.4763 0.5938,-1.9063 0.4003,-0.43 0.9469,-0.6563 1.625,-0.6563 0.4474,0 0.8261,0.1253 1.125,0.3438 0.2988,0.2185 0.5167,0.4975 0.625,0.875 l 1.5312,-0.2812 c -0.1538,-0.7061 -0.4946,-1.256 -1.0312,-1.6563 -0.5366,-0.4002 -1.2957,-0.5937 -2.25,-0.5937 -0.1835,0 -0.3628,-0.016 -0.5312,0 z m -10.9688,0.125 2.75,7.6874 1.6562,0 2.75,-7.6874 -1.6562,0 -1.875,5.6874 -1.9375,-5.6874 -1.6875,0 z m -9.375,6.2187 0,1.4687 1.4688,0 0,-1.4687 -1.4688,0 z" style="text-indent:0;text-transform:none;direction:ltr;block-progression:tb;baseline-shift:baseline;color:#000000;enable-background:accumulate;" fill="#000000" fill-opacity="1" stroke="none" marker="none" visibility="visible" display="inline" overflow="visible"></path></g></svg>