<svg xmlns:dc="http://purl.org/dc/elements/1.1/" xmlns:cc="http://creativecommons.org/ns#" xmlns:rdf="http://www.w3.org/1999/02/22-rdf-syntax-ns#" xmlns:svg="http://www.w3.org/2000/svg" xmlns="http://www.w3.org/2000/svg" xmlns:sodipodi="http://sodipodi.sourceforge.net/DTD/sodipodi-0.dtd" xmlns:inkscape="http://www.inkscape.org/namespaces/inkscape" version="1.1" x="0px" y="0px" viewBox="0 0 100 100"><g transform="translate(0,-952.36218)"><path d="m 57.897435,975.21317 a 1.0001,1.0001 0 0 0 -0.125,0.031 l -23,0 c -2.2134,0 -4.0312,1.8178 -4.0312,4.03127 l 0,48.40626 c 0,2.2148 1.8186,4.0312 4.0312,4.0312 l 19.8125,0 a 1.0001,1.0001 0 0 0 0.4063,-0.094 c 1.9142,3.5561 5.6759,5.9687 10,5.9687 6.268,0 11.3437,-5.0756 11.3437,-11.3437 0,-2.9822 -1.1516,-5.6947 -3.0313,-7.7188 a 1.0001,1.0001 0 0 0 0.2813,-0.7188 l 0,-27.37496 a 1.0001,1.0001 0 0 0 0,-0.2812 1.0001,1.0001 0 0 0 -0.125,-0.375 1.0001,1.0001 0 0 0 -0.125,-0.1876 1.0001,1.0001 0 0 0 -0.031,-0.062 l -0.031,0 -14.5625,-13.99997 a 1.0001,1.0001 0 0 0 -0.062,-0.063 1.0001,1.0001 0 0 0 -0.031,0 1.0001,1.0001 0 0 0 -0.25,-0.1562 1.0001,1.0001 0 0 0 -0.1876,-0.062 1.0001,1.0001 0 0 0 -0.2812,-0.031 z m -23.125,2.0313 22.25,0 0,9.96867 c 0,2.2117 1.7895,4.0313 4,4.0313 l 10.5625,0 0,24.78126 c -1.9248,-1.2479 -4.0977,-2.125 -6.5625,-2.125 -6.8079,0 -12.375,5.5323 -12.375,12.3438 0,1.2213 0.2286,2.3626 0.5625,3.4687 l -18.4375,0 c -1.1274,0 -2.0312,-0.9018 -2.0312,-2.0312 l 0,-48.40626 c 0,-1.1267 0.9046,-2.03127 2.0312,-2.03127 z m 24.25,1.37497 11.0938,10.625 -9.0938,0 c -1.1295,0 -2,-0.9007 -2,-2.0313 l 0,-8.5937 z m -22.75,14.9063 a 1.0043849,1.0043849 0 1 0 0.1875,2 l 31.5313,0 a 1.0001,1.0001 0 1 0 0,-2 l -31.5313,0 a 1.0001,1.0001 0 0 0 -0.094,0 1.0011039,1.0011039 0 0 0 -0.094,0 z m -0.094,5.9062 a 1.0098428,1.0098428 0 0 0 0.2813,1.99996 l 31.5313,0 a 1.0001,1.0001 0 1 0 0,-1.99996 l -31.5313,0 a 1.0001,1.0001 0 0 0 -0.1875,0 1.0043849,1.0043849 0 0 0 -0.094,0 z m 0,5.90616 a 1.0098428,1.0098428 0 0 0 0.2813,2 l 31.5313,0 a 1.0001,1.0001 0 1 0 0,-2 l -31.5313,0 a 1.0001,1.0001 0 0 0 -0.1875,0 1.0043849,1.0043849 0 0 0 -0.094,0 z m 0,5.9063 a 1.0098428,1.0098428 0 0 0 0.2813,2 l 17,0 a 1.0001,1.0001 0 1 0 0,-2 l -17,0 a 1.0001,1.0001 0 0 0 -0.1875,0 1.0043849,1.0043849 0 0 0 -0.094,0 z m 24.75,10.0937 a 1.0001,1.0001 0 0 1 0.031,0 1.0001,1.0001 0 0 1 0.094,0 1.0001,1.0001 0 0 1 0.8126,0.3126 l 3.1562,3.1563 3.125,-3.1563 a 1.0001,1.0001 0 0 1 0.5938,-0.3126 1.0001,1.0001 0 0 1 0.8437,1.7189 l -3.1563,3.1562 3.1563,3.1563 a 1.0054964,1.0054964 0 1 1 -1.4375,1.4063 l -3.125,-3.1563 -3.1562,3.1563 a 1.0001,1.0001 0 1 1 -1.4063,-1.4063 l 3.1563,-3.1563 -3.1563,-3.1562 a 1.0001,1.0001 0 0 1 0.4687,-1.7189 z" style="text-indent:0;text-transform:none;direction:ltr;block-progression:tb;baseline-shift:baseline;color:#000000;enable-background:accumulate;" fill="#000000" fill-opacity="1" stroke="none" marker="none" visibility="visible" display="inline" overflow="visible"></path></g></svg>