<svg height='100px' width='100px'  fill="#000000" xmlns:dc="http://purl.org/dc/elements/1.1/" xmlns:cc="http://creativecommons.org/ns#" xmlns:rdf="http://www.w3.org/1999/02/22-rdf-syntax-ns#" xmlns:svg="http://www.w3.org/2000/svg" xmlns="http://www.w3.org/2000/svg" xmlns:sodipodi="http://sodipodi.sourceforge.net/DTD/sodipodi-0.dtd" xmlns:inkscape="http://www.inkscape.org/namespaces/inkscape" version="1.1" x="0px" y="0px" viewBox="0 0 100 100"><g transform="translate(0,-952.36218)"><path d="m 53.409122,974.82889 a 1.0001,1.0001 0 0 0 -0.094,0.031 l -0.031,0 -23,0 c -2.2109,0 -4.0312,1.8204 -4.0312,4.0313 l 0,48.40631 c 0,2.212 1.8202,4.0312 4.0312,4.0312 l 2,0 0,0.5312 c 0,1.6415 1.3587,3 3,3 l 36.4376,0 c 1.6413,0 3,-1.3585 3,-3 l 0,-13.25 c 0,-1.6413 -1.3587,-3 -3,-3 l -2.625,0 0,-25.68741 a 1.0001,1.0001 0 0 0 0,-0.063 1.0001,1.0001 0 0 0 0,-0.031 1.0001,1.0001 0 0 0 -0.031,-0.1875 1.0001,1.0001 0 0 0 0,-0.031 1.0001,1.0001 0 0 0 0,-0.062 1.0001,1.0001 0 0 0 -0.031,-0.031 1.0001,1.0001 0 0 0 0,-0.031 1.0001,1.0001 0 0 0 -0.031,-0.062 1.0001,1.0001 0 0 0 -0.031,-0.063 1.0001,1.0001 0 0 0 -0.031,0 1.0001,1.0001 0 0 0 -0.031,-0.062 1.0001,1.0001 0 0 0 -0.031,-0.031 1.0001,1.0001 0 0 0 -0.031,-0.062 1.0001,1.0001 0 0 0 -0.031,-0.031 1.0001,1.0001 0 0 0 -0.031,-0.031 l -14.5624,-14 a 1.0001,1.0001 0 0 0 -0.031,0 1.0001,1.0001 0 0 0 -0.031,-0.062 1.0001,1.0001 0 0 0 -0.031,-0.031 1.0001,1.0001 0 0 0 -0.062,-0.031 1.0001,1.0001 0 0 0 -0.031,0 1.0001,1.0001 0 0 0 -0.062,-0.062 1.0001,1.0001 0 0 0 -0.031,0 1.0001,1.0001 0 0 0 -0.031,-0.031 1.0001,1.0001 0 0 0 -0.062,0 1.0001,1.0001 0 0 0 -0.031,-0.031 1.0001,1.0001 0 0 0 -0.062,0 1.0001,1.0001 0 0 0 -0.062,-0.031 1.0001,1.0001 0 0 0 -0.031,0 1.0001,1.0001 0 0 0 -0.25,-0.031 z m -23.125,2.0312 22.2188,0 0,9.9688 c 0,2.2116 1.8208,4.0312 4.0312,4.0312 l 10.5626,0 0,24.75001 -31.8126,0 c -1.6413,0 -3,1.3587 -3,3 l 0,10.7188 -2,0 c -1.1291,0 -2.0312,-0.8997 -2.0312,-2.0312 l 0,-48.40631 c 0,-1.1291 0.9021,-2.0313 2.0312,-2.0313 z m 24.2188,1.3438 10.375,9.9375 0.75,0.7187 -9.0938,0 c -1.1293,0 -2.0312,-0.9008 -2.0312,-2.0312 l 0,-8.625 z m -21.8125,6.0938 a 1.0001,1.0001 0 0 0 -0.4375,1.7812 l 5.0625,3.8438 -5.0313,3.9062 a 1.0032039,1.0032039 0 1 0 1.2188,1.5938 l 6.0938,-4.75 a 1.0001,1.0001 0 0 0 -0.031,-1.5626 l -6.125,-4.625 a 1.0001,1.0001 0 0 0 -0.75,-0.1874 z m -0.9375,14.75 a 1.0059714,1.0059714 0 1 0 0.2188,2.00001 l 31.5312,0 a 1.0001,1.0001 0 1 0 0,-2.00001 l -31.5312,0 a 1.0001,1.0001 0 0 0 -0.2188,0 z m 0,5.90621 a 1.0059664,1.0059664 0 0 0 0.2188,2 l 31.5312,0 a 1.0001,1.0001 0 1 0 0,-2 l -31.5312,0 a 1.0001,1.0001 0 0 0 -0.2188,0 z m 0,5.9062 a 1.0059664,1.0059664 0 0 0 0.2188,2 l 16.9687,0 a 1.0001,1.0001 0 1 0 0,-2 l -16.9687,0 a 1.0001,1.0001 0 0 0 -0.2188,0 z m 3.5312,6.75 36.4376,0 c 0.568,0 1,0.4321 1,1 l 0,13.25 c 0,0.568 -0.432,1 -1,1 l -36.4376,0 c -0.5679,0 -1,-0.432 -1,-1 l 0,-13.25 c 0,-0.5679 0.4321,-1 1,-1 z m 6,3.8126 2.375,3.6874 -2.625,4 1.875,0 1.7188,-2.6562 1.6875,2.6562 1.875,0 -2.625,-3.9374 2.4063,-3.75 -1.8126,0 -1.5,2.4687 -1.5624,-2.4687 -1.8126,0 z m 7.6876,0 0,7.6874 1.4374,0 0,-6.0312 1.5313,6.0312 1.5,0 1.5313,-6.0312 0,6.0312 1.4374,0 0,-7.6874 -2.3437,0 -1.375,5.25 -1.375,-5.25 -2.3437,0 z m 9.0312,0.062 0,7.625 5.4062,0 0,-1.2812 -3.8437,0 0,-6.3438 -1.5625,0 z m -19.1562,6.1563 0,1.4687 1.4687,0 0,-1.4687 -1.4687,0 z" style="text-indent:0;text-transform:none;direction:ltr;block-progression:tb;baseline-shift:baseline;color:#000000;enable-background:accumulate;" fill="#000000" fill-opacity="1" stroke="none" marker="none" visibility="visible" display="inline" overflow="visible"></path></g></svg>