<svg xmlns="http://www.w3.org/2000/svg" xmlns:xlink="http://www.w3.org/1999/xlink" version="1.0" x="0px" y="0px" viewBox="0 0 100 100" enable-background="new 0 0 100 100" xml:space="preserve"><g><path fill="#000000" d="M85.354,49.656L59.327,23.628c-0.094-0.094-0.221-0.146-0.354-0.146s-0.261,0.053-0.354,0.147l-5.662,5.679   c-0.014,0.014-0.027,0.029-0.04,0.044c-0.166,0.208-0.141,0.508,0.058,0.686c0.013,0.011,0.026,0.022,0.04,0.032l15.036,15.037H15   c-0.276,0-0.5,0.224-0.5,0.5v8.802c0,0.276,0.224,0.5,0.5,0.5h53.047L52.954,69.999c-0.094,0.094-0.146,0.221-0.146,0.354   s0.053,0.26,0.146,0.354l5.666,5.666c0.098,0.098,0.226,0.146,0.354,0.146s0.256-0.049,0.354-0.146l26.026-26.009   c0.094-0.094,0.146-0.221,0.146-0.354C85.5,49.877,85.447,49.75,85.354,49.656z"></path></g></svg>