<?xml version="1.0" encoding="UTF-8"?>
<svg width="1200pt" height="1200pt" version="1.1" viewBox="0 0 1200 1200" xmlns="http://www.w3.org/2000/svg">
 <g>
  <path d="m424.2 888h-148.2v72h228c9.5469 0 18.703-3.793 25.457-10.543 6.75-6.7539 10.543-15.91 10.543-25.457v-228h-72v134.16c-50.168-27.402-90.59-69.707-115.68-121.07-25.09-51.363-33.617-109.25-24.395-165.67 9.2188-56.418 35.73-108.58 75.871-149.28 40.137-40.699 91.926-67.934 148.21-77.941v-72.84c-71.516 10.066-138.12 42.133-190.6 91.754-52.473 49.617-88.211 114.34-102.25 185.18-14.043 70.84-5.6992 144.3 23.875 210.18 29.574 65.887 78.914 120.94 141.18 157.53z"/>
  <path d="m775.8 312h148.2v-72h-228c-9.5469 0-18.703 3.793-25.457 10.543-6.75 6.7539-10.543 15.91-10.543 25.457v228h72v-134.16c50.168 27.402 90.59 69.707 115.68 121.07 25.09 51.363 33.617 109.25 24.395 165.67-9.2188 56.418-35.73 108.58-75.871 149.28-40.137 40.699-91.926 67.934-148.21 77.941v72.84c71.516-10.066 138.12-42.133 190.6-91.754 52.473-49.617 88.211-114.34 102.25-185.18 14.043-70.84 5.6992-144.3-23.875-210.18-29.574-65.887-78.914-120.94-141.18-157.53z"/>
 </g>
</svg>
