<svg height='100px' width='100px'  fill="#000000" xmlns:dc="http://purl.org/dc/elements/1.1/" xmlns:cc="http://creativecommons.org/ns#" xmlns:rdf="http://www.w3.org/1999/02/22-rdf-syntax-ns#" xmlns:svg="http://www.w3.org/2000/svg" xmlns="http://www.w3.org/2000/svg" xmlns:sodipodi="http://sodipodi.sourceforge.net/DTD/sodipodi-0.dtd" xmlns:inkscape="http://www.inkscape.org/namespaces/inkscape" version="1.1" x="0px" y="0px" viewBox="0 0 100 100"><g transform="translate(0,-952.36218)"><path d="m 54.36797,969.67666 a 1.0001,1.0001 0 0 0 -0.094,0.031 l -23,0 c -2.2109,0 -4.0312,1.8203 -4.0312,4.0312 l 0,48.40624 c 0,2.2123 1.8202,4.0313 4.0312,4.0313 l 2,0 0,0.5313 c 0,1.6413 1.3587,3 3,3 l 36.4376,0 c 1.6413,0 3,-1.3587 3,-3 l 0,-13.2813 c 0,-1.6415 -1.3587,-2.9687 -3,-2.9687 l -2.625,0 0,-25.68764 a 1.0001,1.0001 0 0 0 0,-0.062 1.0001,1.0001 0 0 0 0,-0.031 1.0001,1.0001 0 0 0 -0.031,-0.1875 1.0001,1.0001 0 0 0 0,-0.031 1.0001,1.0001 0 0 0 0,-0.063 1.0001,1.0001 0 0 0 -0.031,-0.031 1.0001,1.0001 0 0 0 0,-0.031 1.0001,1.0001 0 0 0 -0.031,-0.063 1.0001,1.0001 0 0 0 -0.031,-0.062 1.0001,1.0001 0 0 0 -0.031,0 1.0001,1.0001 0 0 0 -0.031,-0.063 1.0001,1.0001 0 0 0 -0.031,-0.031 1.0001,1.0001 0 0 0 -0.031,-0.062 1.0001,1.0001 0 0 0 -0.031,-0.031 1.0001,1.0001 0 0 0 -0.031,-0.031 l -14.5937,-14.0312 a 1.0001,1.0001 0 0 0 -0.062,-0.063 1.0001,1.0001 0 0 0 -0.6562,-0.2187 1.0001,1.0001 0 0 0 -0.094,0 z m -23.0938,2.0313 22.2188,0 0,9.9687 c 0,2.2116 1.8208,4.0313 4.0312,4.0313 l 10.5626,0 0,24.75004 -31.8126,0 c -1.6413,0 -3,1.3272 -3,2.9687 l 0,10.75 -2,0 c -1.1291,0 -2.0312,-0.8993 -2.0312,-2.0313 l 0,-48.40624 c 0,-1.1291 0.9021,-2.0312 2.0312,-2.0312 z m 24.2188,1.3437 11.0625,10.5937 0.062,0.063 -9.0938,0 c -1.1293,0 -2.0312,-0.9009 -2.0312,-2.0313 l 0,-8.625 z m -22.75,14.9375 a 1.0059664,1.0059664 0 0 0 0.2188,2 l 31.5312,0 a 1.0001,1.0001 0 1 0 0,-2 l -31.5312,0 a 1.0001,1.0001 0 0 0 -0.2188,0 z m 0,5.9062 a 1.0059664,1.0059664 0 0 0 0.2188,2 l 31.5312,0 a 1.0001,1.0001 0 1 0 0,-2 l -31.5312,0 a 1.0001,1.0001 0 0 0 -0.2188,0 z m 0,5.9063 a 1.0059863,1.0059863 0 1 0 0.2188,2.00004 l 31.5312,0 a 1.0001,1.0001 0 1 0 0,-2.00004 l -31.5312,0 a 1.0001,1.0001 0 0 0 -0.2188,0 z m 0.031,5.87504 a 1.0044095,1.0044095 0 1 0 0.1876,2 l 16.9687,0 a 1.0001,1.0001 0 1 0 0,-2 l -16.9687,0 a 1.0001,1.0001 0 0 0 -0.094,0 1.0011039,1.0011039 0 0 0 -0.094,0 z m 3.5,6.7813 36.4376,0 c 0.568,0 1,0.4006 1,0.9687 l 0,13.2813 c 0,0.568 -0.432,1 -1,1 l -36.4376,0 c -0.568,0 -1,-0.432 -1,-1 l 0,-13.2813 c 0,-0.5681 0.432,-0.9687 1,-0.9687 z m 6.5313,3.8124 0,7.6876 1.5625,0 0,-3.3438 3.0312,0 0,3.3438 1.5626,0 0,-7.6876 -1.5626,0 0,3.0313 -3.0312,0 0,-3.0313 -1.5625,0 z m 7.2187,0 0,1.3126 2.2813,0 0,6.375 1.5625,0 0,-6.375 2.2812,0 0,-1.3126 -6.125,0 z m 7.0938,0 0,7.6876 1.4375,0 0,-6.0626 1.5313,6.0626 1.5,0 1.5312,-6.0626 0,6.0626 1.4375,0 0,-7.6876 -2.3437,0 -1.375,5.25 -1.4063,-5.25 -2.3125,0 z m 9.0312,0.063 0,7.625 5.4063,0 0,-1.2813 -3.875,0 0,-6.3437 -1.5313,0 z m -26.3124,6.1562 0,1.4688 1.4687,0 0,-1.4688 -1.4687,0 z" style="text-indent:0;text-transform:none;direction:ltr;block-progression:tb;baseline-shift:baseline;color:#000000;enable-background:accumulate;" fill="#000000" fill-opacity="1" stroke="none" marker="none" visibility="visible" display="inline" overflow="visible"></path></g></svg>