<?xml version="1.0" encoding="UTF-8"?>
<svg width="1200pt" height="1200pt" version="1.1" viewBox="0 0 1200 1200" xmlns="http://www.w3.org/2000/svg">
 <g>
  <path d="m219.22 1080h761.56c11.055 0 20-8.9531 20-20v-920c0-11.047-8.9453-20-20-20h-761.56c-11.055 0-20 8.9531-20 20v920c0 11.047 8.9453 20 20 20zm20-920h721.56v880h-721.56z"/>
  <path d="m320.25 521.64h262.23c11.055 0 20-8.9531 20-20v-262.24c0-11.047-8.9453-20-20-20h-262.23c-11.055 0-20 8.9531-20 20v262.23c0 11.047 8.9453 20.004 20 20.004zm20-262.24h222.23v222.23l-222.23 0.003906z"/>
  <path d="m879.75 264.46h-215.66c-11.055 0-20 8.9531-20 20 0 11.047 8.9453 20 20 20h215.66c11.055 0 20-8.9531 20-20 0-11.043-8.9453-20-20-20z"/>
  <path d="m879.75 366.05h-215.66c-11.055 0-20 8.9531-20 20s8.9453 20 20 20h215.66c11.055 0 20-8.9531 20-20s-8.9453-20-20-20z"/>
  <path d="m879.75 467.64h-215.66c-11.055 0-20 8.9531-20 20s8.9453 20 20 20h215.66c11.055 0 20-8.9531 20-20s-8.9453-20-20-20z"/>
  <path d="m879.75 569.22h-215.66c-11.055 0-20 8.9531-20 20s8.9453 20 20 20h215.66c11.055 0 20-8.9531 20-20s-8.9453-20-20-20z"/>
  <path d="m879.75 655.61h-559.49c-11.055 0-20 8.9531-20 20v212.5c0 11.047 8.9453 20 20 20h559.49c11.055 0 20-8.9531 20-20v-212.5c0-11.047-8.9453-20-20-20zm-20 212.5h-519.49v-172.5h519.49z"/>
  <path d="m879.75 940.61h-559.49c-11.055 0-20 8.9531-20 20s8.9453 20 20 20h559.49c11.055 0 20-8.9531 20-20s-8.9453-20-20-20z"/>
 </g>
</svg>
