<svg height='100px' width='100px'  fill="#000000" xmlns:dc="http://purl.org/dc/elements/1.1/" xmlns:cc="http://creativecommons.org/ns#" xmlns:rdf="http://www.w3.org/1999/02/22-rdf-syntax-ns#" xmlns:svg="http://www.w3.org/2000/svg" xmlns="http://www.w3.org/2000/svg" xmlns:sodipodi="http://sodipodi.sourceforge.net/DTD/sodipodi-0.dtd" xmlns:inkscape="http://www.inkscape.org/namespaces/inkscape" version="1.1" x="0px" y="0px" viewBox="0 0 100 100"><g transform="translate(0,-952.36218)"><path d="m 32.309132,970.68195 c -2.2109,0 -4.0312,1.8202 -4.0312,4.0313 l 0,48.40625 c 0,2.2123 1.8203,4.0312 4.0312,4.0312 l 2.0313,0 0,0.5313 c 0,1.6415 1.3274,3 2.9687,3 l 36.4688,0 c 1.6414,0 3,-1.3585 3,-3 l 0,-13.25 c 0,-1.6416 -1.3586,-3 -3,-3 l -2.6562,0 0,-25.50005 a 1.0001,1.0001 0 0 0 0,-0.094 1.0001,1.0001 0 0 0 0,-0.25 1.0001,1.0001 0 0 0 0,-0.031 1.0001,1.0001 0 0 0 0,-0.062 1.0001,1.0001 0 0 0 0,-0.062 1.0001,1.0001 0 0 0 -0.031,-0.031 1.0001,1.0001 0 0 0 0,-0.062 1.0001,1.0001 0 0 0 -0.031,-0.031 1.0001,1.0001 0 0 0 0,-0.062 1.0001,1.0001 0 0 0 -0.031,-0.031 1.0001,1.0001 0 0 0 -0.031,-0.031 1.0001,1.0001 0 0 0 -0.031,-0.062 1.0001,1.0001 0 0 0 -0.031,-0.031 1.0001,1.0001 0 0 0 0,-0.031 1.0001,1.0001 0 0 0 -0.062,-0.062 1.0001,1.0001 0 0 0 -0.031,-0.031 l -14.5937,-14 a 1.0001,1.0001 0 0 0 -0.063,-0.063 1.0001,1.0001 0 0 0 -0.094,-0.062 1.0001,1.0001 0 0 0 -0.094,-0.063 1.0001,1.0001 0 0 0 -0.2813,-0.094 1.0001,1.0001 0 0 0 -0.1563,0 l -0.1562,0 -23.0938,0 z m 0,2 22.25,0 0,9.9687 c 0,2.2117 1.8208,4.0313 4.0313,4.0313 l 10.5313,0 0,24.75005 -31.8126,0 c -1.6413,0 -2.9687,1.3585 -2.9687,3 l 0,10.7187 -2.0313,0 c -1.1291,0 -2.0312,-0.8995 -2.0312,-2.0312 l 0,-48.40625 c 0,-1.1293 0.9021,-2.0313 2.0312,-2.0313 z m 24.25,1.3437 11.0626,10.6563 -9.0313,0 c -1.1295,0 -2.0313,-0.9007 -2.0313,-2.0313 l 0,-8.625 z m -5.7187,16.8438 a 1.0001,1.0001 0 0 0 -0.8125,0.75 l -3.7812,14.06255 a 1.0045482,1.0045482 0 1 0 1.9374,0.5313 l 3.7813,-14.09385 a 1.0001,1.0001 0 0 0 -1.125,-1.25 z m -7.2187,2.6562 a 1.0001,1.0001 0 0 0 -0.125,0.031 1.0001,1.0001 0 0 0 -0.4376,0.1875 l -6.0937,4.625 a 1.0001,1.0001 0 0 0 -0.031,1.5625 l 6.0938,4.74995 a 1.0031735,1.0031735 0 1 0 1.2188,-1.5937 l -5.0313,-3.90625 5.0625,-3.8125 a 1.0001,1.0001 0 0 0 -0.6562,-1.8438 z m 10.6874,0.2188 a 1.0001,1.0001 0 0 0 -0.375,1.8125 l 5.0626,3.8125 -5.0313,3.93755 a 1.0001,1.0001 0 1 0 1.2187,1.5625 l 6.0938,-4.7188 a 1.0001,1.0001 0 0 0 -0.031,-1.59375 l -6.0938,-4.5937 a 1.0001,1.0001 0 0 0 -0.75,-0.2188 1.0001,1.0001 0 0 0 -0.094,0 z m -17,19.68755 36.4688,0 c 0.568,0 1,0.4319 1,1 l 0,13.25 c 0,0.5681 -0.432,1 -1,1 l -36.4688,0 c -0.5679,0 -0.9687,-0.4319 -0.9687,-1 l 0,-13.25 c 0,-0.5681 0.4008,-1 0.9687,-1 z m 9.875,3.6874 c -1.0767,0 -1.933,0.3547 -2.5937,1.0625 -0.6607,0.708 -1,1.7207 -1,3.0001 0,1.2095 0.3428,2.1463 1,2.8437 0.6571,0.6975 1.4793,1.0626 2.5,1.0626 0.825,0 1.5259,-0.2178 2.0625,-0.625 0.5366,-0.4074 0.8943,-1.0361 1.125,-1.875 l -1.5,-0.4688 c -0.1294,0.5628 -0.3279,0.9878 -0.625,1.25 -0.2972,0.2622 -0.6501,0.375 -1.0625,0.375 -0.5593,0 -1.0255,-0.2125 -1.375,-0.625 -0.3496,-0.4124 -0.5313,-1.0907 -0.5313,-2.0625 0,-0.9158 0.1765,-1.591 0.5313,-2 0.3548,-0.409 0.8364,-0.5937 1.4063,-0.5937 0.4124,0 0.7428,0.113 1.0312,0.3437 0.2884,0.2307 0.5028,0.539 0.5938,0.9375 l 1.5312,-0.375 c -0.1748,-0.6153 -0.4316,-1.0777 -0.7812,-1.4063 -0.5872,-0.5558 -1.3722,-0.8438 -2.3126,-0.8438 z m 7.125,0 c -0.5907,0 -1.0821,0.103 -1.5,0.2812 -0.4176,0.1784 -0.7467,0.4405 -0.9687,0.7813 -0.222,0.3409 -0.3437,0.7024 -0.3437,1.0938 0,0.6083 0.2468,1.1083 0.7187,1.5313 0.3356,0.3006 0.918,0.5749 1.75,0.7813 0.6467,0.1608 1.0682,0.2807 1.25,0.3437 0.2657,0.094 0.4559,0.1849 0.5625,0.3125 0.1069,0.1276 0.1562,0.2869 0.1562,0.4688 0,0.283 -0.1215,0.5385 -0.375,0.75 -0.2534,0.2114 -0.6251,0.3124 -1.125,0.3124 -0.4719,0 -0.847,-0.1373 -1.125,-0.375 -0.2779,-0.2376 -0.4715,-0.5868 -0.5624,-1.0937 l -1.5,0.125 c 0.1014,0.86 0.3853,1.5195 0.9062,1.9687 0.5208,0.4493 1.2782,0.6876 2.25,0.6876 0.6677,0 1.24,-0.094 1.6875,-0.2813 0.4474,-0.1871 0.7865,-0.4905 1.0313,-0.875 0.2446,-0.3846 0.375,-0.7783 0.375,-1.2187 0,-0.486 -0.1081,-0.8885 -0.3126,-1.2188 -0.2045,-0.3303 -0.4819,-0.5908 -0.8437,-0.7812 -0.3618,-0.1906 -0.9324,-0.3842 -1.6875,-0.5626 -0.755,-0.1781 -1.2417,-0.3357 -1.4375,-0.5 -0.1537,-0.1293 -0.2187,-0.2869 -0.2187,-0.4687 0,-0.1992 0.086,-0.3812 0.25,-0.5 0.255,-0.1849 0.6116,-0.2813 1.0624,-0.2813 0.437,0 0.7503,0.1083 0.9688,0.2813 0.2184,0.1731 0.3715,0.4488 0.4375,0.8437 l 1.5625,-0.062 c -0.024,-0.7062 -0.2937,-1.2646 -0.7812,-1.6877 -0.4877,-0.423 -1.2229,-0.6562 -2.1876,-0.6562 z m 7.1876,0 c -0.5908,0 -1.1136,0.103 -1.5313,0.2812 -0.4177,0.1784 -0.7156,0.4405 -0.9375,0.7813 -0.222,0.3409 -0.3438,0.7024 -0.3438,1.0938 0,0.6083 0.2469,1.1083 0.7188,1.5313 0.3356,0.3006 0.918,0.5749 1.75,0.7813 0.6467,0.1608 1.037,0.2807 1.2188,0.3437 0.2655,0.094 0.4558,0.1849 0.5624,0.3125 0.107,0.1276 0.1563,0.2869 0.1563,0.4688 0,0.283 -0.1216,0.5385 -0.375,0.75 -0.2535,0.2114 -0.6251,0.3124 -1.125,0.3124 -0.4719,0 -0.8471,-0.1373 -1.125,-0.375 -0.2779,-0.2376 -0.4715,-0.5868 -0.5625,-1.0937 l -1.5,0.125 c 0.1014,0.86 0.4167,1.5195 0.9375,1.9687 0.5209,0.4493 1.2782,0.6876 2.25,0.6876 0.6676,0 1.2088,-0.094 1.6563,-0.2813 0.4474,-0.1871 0.7865,-0.4905 1.0312,-0.875 0.2447,-0.3846 0.375,-0.7783 0.375,-1.2187 0,-0.486 -0.108,-0.8885 -0.3125,-1.2188 -0.2045,-0.3303 -0.4819,-0.5908 -0.8437,-0.7812 -0.3618,-0.1906 -0.9012,-0.3842 -1.6563,-0.5626 -0.755,-0.1781 -1.2417,-0.3357 -1.4375,-0.5 -0.1537,-0.1293 -0.25,-0.2869 -0.25,-0.4687 0,-0.1992 0.086,-0.3812 0.25,-0.5 0.2552,-0.1849 0.6116,-0.2813 1.0625,-0.2813 0.437,0 0.7815,0.1083 1,0.2813 0.2184,0.1731 0.3403,0.4488 0.4063,0.8437 l 1.5624,-0.062 c -0.024,-0.7062 -0.2936,-1.2646 -0.7812,-1.6877 -0.4877,-0.423 -1.1914,-0.6562 -2.1562,-0.6562 z m -20.625,6.3439 0,1.4687 1.4687,0 0,-1.4687 -1.4687,0 z" style="text-indent:0;text-transform:none;direction:ltr;block-progression:tb;baseline-shift:baseline;color:#000000;enable-background:accumulate;" fill="#000000" fill-opacity="1" stroke="none" marker="none" visibility="visible" display="inline" overflow="visible"></path></g></svg>