<?xml version="1.0" encoding="UTF-8"?>
<svg width="1200pt" height="1200pt" version="1.1" viewBox="0 0 1200 1200" xmlns="http://www.w3.org/2000/svg">
 <path d="m358.17 259.93c-12.129 0-22.66 10.578-22.672 22.672v634.8c0 11.871 10.801 22.668 22.672 22.672h377.86c5.9727-0.074219 11.891-2.5703 16.059-6.8477l105.8-105.8c4.1367-4.1523 6.5664-9.9609 6.6133-15.824v-529c0-11.871-10.801-22.668-22.672-22.672zm22.672 45.344h438.31v483.66h-83.129c-12.922 0-22.672 11.906-22.672 22.672v83.129h-332.52v-589.46zm188.93 158.7v60.457h15.113v30.23h-113.36v60.457h-15.113v60.457h60.457v-60.457h-15.113v-30.23h83.129v30.23h-15.113v60.457h60.457v-60.457h-15.113v-30.23h83.129v30.23h-15.113v60.457h60.457v-60.457h-15.113v-60.457h-113.36v-30.23h15.113v-60.457zm188.93 370.3h28.34l-28.34 28.34z"/>
</svg>
