<svg xmlns="http://www.w3.org/2000/svg" xmlns:xlink="http://www.w3.org/1999/xlink" version="1.1" x="0px" y="0px" viewBox="0 0 100 100" style="enable-background:new 0 0 100 100;" xml:space="preserve"><path d="M77.5,2.6C68.9,2.6,63.3,1,54.4,1C25.5,1,12.1,17.4,12.1,34.1c0,9.8,4.7,13.1,13.8,13.1c-0.6-1.4-1.8-3-1.8-10  c0-19.5,7.4-25.2,16.8-25.6c0,0-7.7,75.9-30.2,85l0,2.4h16.1H41l10.3-49h18.9l4.2-12.3H53.9l5-23.6c5.7,1.2,11.2,2.3,16,2.3  c5.9,0,11.4-1.8,14.4-15.5C85.7,2.2,81.8,2.6,77.5,2.6z"></path></svg>