<?xml version="1.0" encoding="UTF-8"?>
<svg width="1200pt" height="1200pt" version="1.1" viewBox="0 0 1200 1200" xmlns="http://www.w3.org/2000/svg">
 <g>
  <path d="m240 732v228h72v-152.04c52.457 71.504 128.73 121.92 215.08 142.15 86.344 20.23 177.08 8.9492 255.84-31.812s140.37-108.32 173.72-190.5l-66.719-27c-26.766 65.914-76.082 120.18-139.15 153.09-63.07 32.918-135.78 42.352-205.16 26.621-69.379-15.734-130.91-55.613-173.61-112.52h132v-72h-228c-9.5469 0-18.703 3.793-25.457 10.543-6.75 6.7539-10.543 15.91-10.543 25.457z"/>
  <path d="m804 432c0-50.922-20.227-99.758-56.234-135.77s-84.844-56.234-135.77-56.234-99.758 20.227-135.77 56.234-56.234 84.844-56.234 135.77 20.227 99.758 56.234 135.77 84.844 56.234 135.77 56.234c33.703 0 66.812-8.8711 96-25.723 29.188-16.852 53.426-41.09 70.277-70.277 16.852-29.188 25.723-62.297 25.723-96zm-312 0c0-31.824 12.645-62.348 35.148-84.852 22.504-22.504 53.027-35.148 84.852-35.148s62.348 12.645 84.852 35.148c22.504 22.504 35.148 53.027 35.148 84.852s-12.645 62.348-35.148 84.852c-22.504 22.504-53.027 35.148-84.852 35.148s-62.348-12.645-84.852-35.148c-22.504-22.504-35.148-53.027-35.148-84.852z"/>
 </g>
</svg>
