<svg xmlns="http://www.w3.org/2000/svg" xmlns:xlink="http://www.w3.org/1999/xlink" version="1.1" x="0px" y="0px" viewBox="0 0 64 64" style="enable-background:new 0 0 64 64;" xml:space="preserve"><path d="M46.4,47.2H10.3c-1.2,0-2.3-0.5-3-1.4c-0.7-0.9-0.9-2.1-0.6-3.4l5.7-21.5c0.6-2.2,2.8-4,5.1-4h36.2c1.2,0,2.3,0.5,3,1.4  c0.7,0.9,0.9,2.1,0.6,3.4l-5.7,21.5C51,45.4,48.7,47.2,46.4,47.2z M17.6,19.8c-0.9,0-2,0.8-2.2,1.8L9.6,43.2  c-0.1,0.3-0.1,0.6,0.1,0.8c0.1,0.2,0.4,0.2,0.6,0.2h36.2c0.9,0,2-0.8,2.2-1.8l5.7-21.5c0.1-0.3,0.1-0.6-0.1-0.8  c-0.1-0.2-0.4-0.2-0.6-0.2H17.6z"></path></svg>