<svg xmlns="http://www.w3.org/2000/svg" xmlns:xlink="http://www.w3.org/1999/xlink" xml:space="preserve" version="1.1" style="shape-rendering:geometricPrecision;text-rendering:geometricPrecision;image-rendering:optimizeQuality;" viewBox="0 0 847 847" x="0px" y="0px" fill-rule="evenodd" clip-rule="evenodd"><defs><style type="text/css">
   
    .fil0 {fill:black}
   
  </style></defs><g><path class="fil0" d="M502 79l180 104 0 182 158 91 0 207 -180 104 -158 -91 -157 91 -180 -104 0 -181 -158 -91 0 -208 180 -104 158 91 157 -91zm158 325l-136 78 0 156 136 78 135 -78 0 -157 -135 -77zm-180 78l-135 -78 -136 78 0 156 136 78 135 -78 0 -156zm-294 -39l136 -78 0 -156 -135 -78 -135 78 0 156 134 78zm181 -78l135 78 135 -78 0 -156 -135 -78 -135 78 0 156z"></path></g></svg>