<svg xmlns:dc="http://purl.org/dc/elements/1.1/" xmlns:cc="http://creativecommons.org/ns#" xmlns:rdf="http://www.w3.org/1999/02/22-rdf-syntax-ns#" xmlns:svg="http://www.w3.org/2000/svg" xmlns="http://www.w3.org/2000/svg" xmlns:sodipodi="http://sodipodi.sourceforge.net/DTD/sodipodi-0.dtd" xmlns:inkscape="http://www.inkscape.org/namespaces/inkscape" version="1.1" x="0px" y="0px" viewBox="0 0 100 100"><g transform="translate(0,-952.36218)"><path style="" d="M 50 5 C 25.07 5 5 25.06998 5 50 C 5 74.93 25.07 95 50 95 C 74.93 95 95 74.93 95 50 C 95 25.06998 74.93 5 50 5 z M 55.267578 20 C 57.020227 20 58.488503 20.608669 59.675781 21.824219 C 60.891328 23.039769 61.5 24.508032 61.5 26.232422 C 61.5 27.956802 60.891328 29.427028 59.675781 30.642578 C 58.460235 31.858128 56.991959 32.466797 55.267578 32.466797 C 53.571467 32.466797 52.113984 31.858128 50.898438 30.642578 C 49.68289 29.427028 49.076172 27.956802 49.076172 26.232422 C 49.076172 24.508032 49.670144 23.039769 50.857422 21.824219 C 52.072969 20.608669 53.543198 20 55.267578 20 z M 57.896484 39.505859 L 57.896484 40 C 57.846992 40.007215 57.797538 40.01238 57.748047 40.019531 L 49.203125 69.654297 C 48.72256 71.378697 48.482422 72.509775 48.482422 73.046875 C 48.482422 73.357775 48.608864 73.652847 48.863281 73.935547 C 49.117698 74.189947 49.387237 74.318359 49.669922 74.318359 C 50.150487 74.318359 51.014191 74.370534 52.599609 73.615234 C 54.070567 72.724034 57.287441 70.7421 59.068359 68 L 62.5 70 C 58.231454 77.4347 50.305649 80 45.5 80 C 43.662546 80 40.213801 79.490356 39.111328 78.472656 C 38.037124 77.426756 37.5 76.112297 37.5 74.529297 C 37.5 73.483397 37.740138 72.156222 38.220703 70.544922 L 44.115234 50.275391 C 44.680604 48.324791 44.962891 47.854674 44.962891 46.865234 C 44.962891 46.243334 44.695305 45.691507 44.158203 45.210938 C 43.621101 44.730368 42.885986 44.490234 41.953125 44.490234 C 41.529097 44.490234 41.01942 44.472 40.425781 44.5 L 41 42 C 46.591367 41.23838 52.164256 40.826421 57.748047 40.019531 L 57.896484 39.505859 z " transform="translate(0,952.36218)" fill="#000000" fill-opacity="1" stroke-width="0"></path></g></svg>