<svg height='100px' width='100px'  fill="#000000" xmlns="http://www.w3.org/2000/svg" xmlns:xlink="http://www.w3.org/1999/xlink" version="1.1" x="0px" y="0px" viewBox="0 0 100 100" style="enable-background:new 0 0 100 100;" xml:space="preserve"><g><path d="M67.64,23.93c-1.371-0.091-1.345-1.998-0.007-2.085C69.076,21.874,69.028,23.901,67.64,23.93z M67.633,16.936   c-1.338,0.087-1.364,1.994,0.007,2.084C69.028,18.992,69.076,16.964,67.633,16.936z M65.178,14.481   c-1.338,0.087-1.363,1.994,0.007,2.085C66.573,16.537,66.621,14.51,65.178,14.481z M67.633,12.027   c-1.338,0.087-1.364,1.994,0.007,2.084C69.028,14.083,69.076,12.055,67.633,12.027z M70.088,34.119   c-1.339,0.087-1.364,1.994,0.007,2.084C71.482,36.174,71.53,34.147,70.088,34.119z M70.088,29.209   c-1.339,0.086-1.364,1.993,0.007,2.084C71.482,31.265,71.53,29.238,70.088,29.209z M65.178,19.391   c-1.338,0.087-1.363,1.994,0.007,2.085C66.573,21.446,66.621,19.419,65.178,19.391z M67.633,41.482   c-1.338,0.087-1.364,1.993,0.007,2.084C69.028,43.538,69.076,41.511,67.633,41.482z M70.088,24.3   c-1.339,0.087-1.364,1.993,0.007,2.084C71.482,26.355,71.53,24.329,70.088,24.3z M67.633,36.573   c-1.338,0.087-1.364,1.993,0.007,2.084C69.028,38.629,69.076,36.602,67.633,36.573z M67.633,26.755   c-1.338,0.087-1.364,1.993,0.007,2.084C69.028,28.81,69.076,26.783,67.633,26.755z M67.633,31.664   c-1.338,0.087-1.364,1.994,0.007,2.085C69.028,33.719,69.076,31.692,67.633,31.664z M70.088,39.028   c-1.339,0.087-1.364,1.993,0.007,2.084C71.482,41.083,71.53,39.056,70.088,39.028z M72.543,16.936   c-1.339,0.087-1.364,1.994,0.006,2.084C73.938,18.992,73.985,16.964,72.543,16.936z M72.543,12.027   c-1.339,0.087-1.364,1.994,0.006,2.084C73.938,14.083,73.985,12.055,72.543,12.027z M74.998,29.209   c-1.34,0.086-1.365,1.993,0.006,2.084C76.393,31.265,76.439,29.238,74.998,29.209z M72.543,21.845   c-1.339,0.087-1.364,1.994,0.006,2.085C73.938,23.901,73.985,21.874,72.543,21.845z M70.088,19.391   c-1.339,0.087-1.364,1.994,0.007,2.085C71.482,21.446,71.53,19.419,70.088,19.391z M74.998,39.028   c-1.34,0.087-1.365,1.993,0.006,2.084C76.393,41.083,76.439,39.056,74.998,39.028z M70.088,14.481   c-1.339,0.087-1.364,1.994,0.007,2.085C71.482,16.537,71.53,14.51,70.088,14.481z M72.543,41.482   c-1.339,0.087-1.364,1.993,0.006,2.084C73.938,43.538,73.985,41.511,72.543,41.482z M72.543,31.664   c-1.339,0.087-1.364,1.994,0.006,2.085C73.938,33.719,73.985,31.692,72.543,31.664z M72.543,36.573   c-1.339,0.087-1.364,1.993,0.006,2.084C73.938,38.629,73.985,36.602,72.543,36.573z M72.543,26.755   c-1.339,0.087-1.364,1.993,0.006,2.084C73.938,28.81,73.985,26.783,72.543,26.755z M62.724,21.845   c-1.339,0.087-1.364,1.994,0.007,2.085C64.118,23.901,64.166,21.874,62.724,21.845z M65.178,24.3   c-1.338,0.087-1.363,1.993,0.007,2.084C66.573,26.355,66.621,24.329,65.178,24.3z M30,45h-5v5h5V45z M5,20H0v5h5V20z M15,10h5V5h-5   V10z M15,50h5v-5h-5V50z M0,15h5v-5h5V5H0V15z M5,40H0v10h10v-5H5V40z M30,5h-5v5h5V5z M45,20h-5v5h5V20z M40,15h5V5H35v5h5V15z    M40,35h5v-5h-5V35z M45,40h-5v5h-5v5h10V40z M5,30H0v5h5V30z M62.724,16.936c-1.339,0.087-1.364,1.994,0.007,2.084   C64.118,18.992,64.166,16.964,62.724,16.936z M62.724,12.027c-1.339,0.087-1.364,1.994,0.007,2.084   C64.118,14.083,64.166,12.055,62.724,12.027z M65.178,39.028c-1.338,0.087-1.363,1.993,0.007,2.084   C66.573,41.083,66.621,39.056,65.178,39.028z M65.178,29.209c-1.338,0.086-1.363,1.993,0.007,2.084   C66.573,31.265,66.621,29.238,65.178,29.209z M50,65v-5L25,75v5l25,15v-5L33.333,80H80v-5H33.333L50,65z M65.178,34.119   c-1.338,0.087-1.363,1.994,0.007,2.084C66.573,36.174,66.621,34.147,65.178,34.119z M62.724,36.573   c-1.339,0.087-1.364,1.993,0.007,2.084C64.118,38.629,64.166,36.602,62.724,36.573z M62.724,41.482   c-1.339,0.087-1.364,1.993,0.007,2.084C64.118,43.538,64.166,41.511,62.724,41.482z M62.724,31.664   c-1.339,0.087-1.364,1.994,0.007,2.085C64.118,33.719,64.166,31.692,62.724,31.664z M74.998,24.3   c-1.34,0.087-1.365,1.993,0.006,2.084C76.393,26.355,76.439,24.329,74.998,24.3z M62.724,26.755   c-1.339,0.087-1.364,1.993,0.007,2.084C64.118,28.81,64.166,26.783,62.724,26.755z M74.998,34.119   c-1.34,0.087-1.365,1.994,0.006,2.084C76.393,36.174,76.439,34.147,74.998,34.119z M87.271,12.027   c-1.339,0.087-1.364,1.994,0.006,2.084C88.666,14.083,88.714,12.055,87.271,12.027z M87.271,16.936   c-1.339,0.087-1.364,1.994,0.006,2.084C88.666,18.992,88.714,16.964,87.271,16.936z M87.271,21.845   c-1.339,0.087-1.364,1.994,0.006,2.085C88.666,23.901,88.714,21.874,87.271,21.845z M87.271,26.755   c-1.339,0.087-1.364,1.993,0.006,2.084C88.666,28.81,88.714,26.783,87.271,26.755z M89.727,34.119   c-1.34,0.087-1.365,1.994,0.006,2.084C91.121,36.174,91.168,34.147,89.727,34.119z M89.727,39.028   c-1.34,0.087-1.365,1.993,0.006,2.084C91.121,41.083,91.168,39.056,89.727,39.028z M84.816,14.481   c-1.339,0.087-1.364,1.994,0.007,2.085C86.211,16.537,86.259,14.51,84.816,14.481z M89.727,29.209   c-1.34,0.086-1.365,1.993,0.006,2.084C91.121,31.265,91.168,29.238,89.727,29.209z M87.271,31.664   c-1.339,0.087-1.364,1.994,0.006,2.085C88.666,33.719,88.714,31.692,87.271,31.664z M84.816,19.391   c-1.339,0.087-1.364,1.994,0.007,2.085C86.211,21.446,86.259,19.419,84.816,19.391z M87.271,36.573   c-1.339,0.087-1.364,1.993,0.006,2.084C88.666,38.629,88.714,36.602,87.271,36.573z M87.271,41.482   c-1.339,0.087-1.364,1.993,0.006,2.084C88.666,43.538,88.714,41.511,87.271,41.482z M89.727,24.3   c-1.34,0.087-1.365,1.993,0.006,2.084C91.121,26.355,91.168,24.329,89.727,24.3z M84.816,24.3   c-1.339,0.087-1.364,1.993,0.007,2.084C86.211,26.355,86.259,24.329,84.816,24.3z M92.181,21.845   c-1.339,0.087-1.364,1.994,0.007,2.085C93.576,23.901,93.623,21.874,92.181,21.845z M92.181,12.027   c-1.339,0.087-1.364,1.994,0.007,2.084C93.576,14.083,93.623,12.055,92.181,12.027z M92.181,26.755   c-1.339,0.087-1.364,1.993,0.007,2.084C93.576,28.81,93.623,26.783,92.181,26.755z M100,5v45H55V5H100z M95,11.599   c-0.902,0.332-1.799-0.729-1.176-1.599H90.6c0.427,0.604,0.122,1.636-0.867,1.657c-0.984-0.065-1.245-1.065-0.819-1.657H85.69   c0.427,0.604,0.122,1.636-0.867,1.657c-0.985-0.065-1.245-1.065-0.819-1.657h-3.223c0.426,0.604,0.121,1.636-0.868,1.657   c-0.984-0.065-1.245-1.065-0.819-1.657h-3.222c0.426,0.604,0.121,1.636-0.868,1.657c-0.984-0.065-1.245-1.065-0.819-1.657h-3.223   c0.427,0.604,0.122,1.636-0.867,1.657c-0.985-0.065-1.245-1.065-0.819-1.657h-3.224c0.427,0.604,0.122,1.636-0.867,1.657   C64.2,11.591,63.939,10.591,64.365,10h-3.234c0.638,0.864-0.259,1.885-1.131,1.614v2.915c0.577-0.161,1.285,0.166,1.337,0.97   c-0.017,0.861-0.745,1.188-1.337,1.018v2.922c0.577-0.162,1.285,0.165,1.337,0.969c-0.017,0.861-0.745,1.188-1.337,1.018v2.922   c0.577-0.162,1.285,0.166,1.337,0.969c-0.017,0.862-0.745,1.188-1.337,1.018v2.923c0.577-0.162,1.285,0.165,1.337,0.969   c-0.017,0.861-0.745,1.188-1.337,1.018v2.922c0.577-0.161,1.285,0.166,1.337,0.969c-0.017,0.862-0.745,1.188-1.337,1.018v2.922   c0.577-0.161,1.285,0.166,1.337,0.969c-0.017,0.862-0.745,1.188-1.337,1.018v2.914c0.682-0.222,1.35,0.359,1.339,1.024h2.828   c-0.008-0.506,0.332-1.019,1.011-1.063c0.731,0.015,1.078,0.542,1.063,1.063h2.836c-0.008-0.506,0.331-1.019,1.011-1.063   c0.73,0.015,1.078,0.542,1.063,1.063h2.836c-0.008-0.506,0.332-1.019,1.012-1.063c0.73,0.015,1.077,0.542,1.063,1.063h2.836   c-0.008-0.506,0.331-1.019,1.011-1.063c0.73,0.015,1.077,0.542,1.063,1.063h2.836c-0.008-0.506,0.331-1.019,1.011-1.063   c0.73,0.015,1.078,0.542,1.063,1.063h2.836c-0.008-0.506,0.332-1.019,1.012-1.063c0.73,0.015,1.077,0.542,1.063,1.063h2.826   c-0.019-0.684,0.691-1.256,1.385-1.005v-2.938c-0.599,0.188-1.363-0.157-1.381-1.006c0.057-0.843,0.797-1.155,1.381-0.962v-2.941   c-0.599,0.188-1.363-0.156-1.381-1.006c0.056-0.842,0.797-1.155,1.381-0.962v-2.941c-0.599,0.188-1.363-0.156-1.381-1.006   c0.057-0.842,0.797-1.155,1.381-0.962v-2.941c-0.599,0.188-1.363-0.156-1.381-1.005c0.057-0.843,0.797-1.155,1.381-0.962v-2.942   c-0.599,0.188-1.363-0.156-1.381-1.005c0.056-0.842,0.797-1.155,1.381-0.962V16.51c-0.599,0.188-1.363-0.156-1.381-1.006   c0.056-0.842,0.797-1.155,1.381-0.962V11.599z M92.181,16.936c-1.339,0.087-1.364,1.994,0.007,2.084   C93.576,18.992,93.623,16.964,92.181,16.936z M92.181,31.664c-1.339,0.087-1.364,1.994,0.007,2.085   C93.576,33.719,93.623,31.692,92.181,31.664z M89.727,19.391c-1.34,0.087-1.365,1.994,0.006,2.085   C91.121,21.446,91.168,19.419,89.727,19.391z M89.727,14.481c-1.34,0.087-1.365,1.994,0.006,2.085   C91.121,16.537,91.168,14.51,89.727,14.481z M92.181,41.482c-1.339,0.087-1.364,1.993,0.007,2.084   C93.576,43.538,93.623,41.511,92.181,41.482z M92.181,36.573c-1.339,0.087-1.364,1.993,0.007,2.084   C93.576,38.629,93.623,36.602,92.181,36.573z M77.452,31.664c-1.339,0.087-1.364,1.994,0.007,2.085   C78.848,33.719,78.895,31.692,77.452,31.664z M79.907,24.3c-1.339,0.087-1.364,1.993,0.006,2.084   C81.302,26.355,81.35,24.329,79.907,24.3z M77.452,16.936c-1.339,0.087-1.364,1.994,0.007,2.084   C78.848,18.992,78.895,16.964,77.452,16.936z M79.907,39.028c-1.339,0.087-1.364,1.993,0.006,2.084   C81.302,41.083,81.35,39.056,79.907,39.028z M77.452,12.027c-1.339,0.087-1.364,1.994,0.007,2.084   C78.848,14.083,78.895,12.055,77.452,12.027z M79.907,29.209c-1.339,0.086-1.364,1.993,0.006,2.084   C81.302,31.265,81.35,29.238,79.907,29.209z M79.907,34.119c-1.339,0.087-1.364,1.994,0.006,2.084   C81.302,36.174,81.35,34.147,79.907,34.119z M77.452,21.845c-1.339,0.087-1.364,1.994,0.007,2.085   C78.848,23.901,78.895,21.874,77.452,21.845z M77.452,26.755c-1.339,0.087-1.364,1.993,0.007,2.084   C78.848,28.81,78.895,26.783,77.452,26.755z M77.452,41.482c-1.339,0.087-1.364,1.993,0.007,2.084   C78.848,43.538,78.895,41.511,77.452,41.482z M74.998,14.481c-1.34,0.087-1.365,1.994,0.006,2.085   C76.393,16.537,76.439,14.51,74.998,14.481z M77.452,36.573c-1.339,0.087-1.364,1.993,0.007,2.084   C78.848,38.629,78.895,36.602,77.452,36.573z M74.998,19.391c-1.34,0.087-1.365,1.994,0.006,2.085   C76.393,21.446,76.439,19.419,74.998,19.391z M82.361,16.936c-1.338,0.087-1.364,1.994,0.007,2.084   C83.757,18.992,83.804,16.964,82.361,16.936z M82.361,12.027c-1.338,0.087-1.364,1.994,0.007,2.084   C83.757,14.083,83.804,12.055,82.361,12.027z M84.816,29.209c-1.339,0.086-1.364,1.993,0.007,2.084   C86.211,31.265,86.259,29.238,84.816,29.209z M82.361,21.845c-1.338,0.087-1.364,1.994,0.007,2.085   C83.757,23.901,83.804,21.874,82.361,21.845z M84.816,34.119c-1.339,0.087-1.364,1.994,0.007,2.084   C86.211,36.174,86.259,34.147,84.816,34.119z M84.816,39.028c-1.339,0.087-1.364,1.993,0.007,2.084   C86.211,41.083,86.259,39.056,84.816,39.028z M79.907,14.481c-1.339,0.087-1.364,1.994,0.006,2.085   C81.302,16.537,81.35,14.51,79.907,14.481z M82.361,41.482c-1.338,0.087-1.364,1.993,0.007,2.084   C83.757,43.538,83.804,41.511,82.361,41.482z M82.361,26.755c-1.338,0.087-1.364,1.993,0.007,2.084   C83.757,28.81,83.804,26.783,82.361,26.755z M79.907,19.391c-1.339,0.087-1.364,1.994,0.006,2.085   C81.302,21.446,81.35,19.419,79.907,19.391z M82.361,31.664c-1.338,0.087-1.364,1.994,0.007,2.085   C83.757,33.719,83.804,31.692,82.361,31.664z M82.361,36.573c-1.338,0.087-1.364,1.993,0.007,2.084   C83.757,38.629,83.804,36.602,82.361,36.573z"></path></g></svg>