<svg height='100px' width='100px'  fill="#000000" xmlns="http://www.w3.org/2000/svg" xmlns:xlink="http://www.w3.org/1999/xlink" version="1.1" x="0px" y="0px" viewBox="0 0 100 100" style="enable-background:new 0 0 100 100;" xml:space="preserve"><g><path d="M56.434,62.729c0.091-1.369,1.997-1.344,2.084-0.006C58.489,64.166,56.463,64.117,56.434,62.729z M63.427,62.723   c-0.087-1.338-1.993-1.363-2.085,0.006C61.371,64.117,63.398,64.166,63.427,62.723z M68.336,62.723   c-0.086-1.338-1.993-1.363-2.084,0.006C66.281,64.117,68.308,64.166,68.336,62.723z M73.245,62.723   c-0.087-1.338-1.993-1.363-2.085,0.006C71.189,64.117,73.217,64.166,73.245,62.723z M78.154,62.723   c-0.086-1.338-1.993-1.363-2.084,0.006C76.099,64.117,78.127,64.166,78.154,62.723z M83.064,62.723   c-0.088-1.338-1.994-1.363-2.085,0.006C81.008,64.117,83.035,64.166,83.064,62.723z M87.973,62.723   c-0.086-1.338-1.993-1.363-2.084,0.006C85.918,64.117,87.945,64.166,87.973,62.723z M60.973,65.178   c-0.087-1.34-1.994-1.365-2.085,0.006C58.917,66.572,60.944,66.619,60.973,65.178z M65.881,65.178   c-0.086-1.34-1.993-1.365-2.084,0.006C63.826,66.572,65.854,66.619,65.881,65.178z M70.791,65.178   c-0.087-1.34-1.994-1.365-2.085,0.006C68.735,66.572,70.763,66.619,70.791,65.178z M75.7,65.178   c-0.087-1.34-1.993-1.365-2.085,0.006C73.645,66.572,75.672,66.619,75.7,65.178z M80.609,65.178   c-0.087-1.34-1.993-1.365-2.085,0.006C78.554,66.572,80.581,66.619,80.609,65.178z M85.519,65.178   c-0.087-1.34-1.993-1.365-2.085,0.006C83.463,66.572,85.49,66.619,85.519,65.178z M58.518,67.633   c-0.087-1.34-1.993-1.365-2.084,0.006C56.463,69.027,58.489,69.074,58.518,67.633z M63.427,67.633   c-0.087-1.34-1.993-1.365-2.085,0.006C61.371,69.027,63.398,69.074,63.427,67.633z M68.336,67.633   c-0.086-1.34-1.993-1.365-2.084,0.006C66.281,69.027,68.308,69.074,68.336,67.633z M73.245,67.633   c-0.087-1.34-1.993-1.365-2.085,0.006C71.189,69.027,73.217,69.074,73.245,67.633z M78.154,67.633   c-0.086-1.34-1.993-1.365-2.084,0.006C76.099,69.027,78.127,69.074,78.154,67.633z M83.064,67.633   c-0.088-1.34-1.994-1.365-2.085,0.006C81.008,69.027,83.035,69.074,83.064,67.633z M87.973,67.633   c-0.086-1.34-1.993-1.365-2.084,0.006C85.918,69.027,87.945,69.074,87.973,67.633z M60.973,70.086   c-0.087-1.338-1.994-1.363-2.085,0.008C58.917,71.482,60.944,71.529,60.973,70.086z M65.881,70.086   c-0.086-1.338-1.993-1.363-2.084,0.008C63.826,71.482,65.854,71.529,65.881,70.086z M70.791,70.086   c-0.087-1.338-1.994-1.363-2.085,0.008C68.735,71.482,70.763,71.529,70.791,70.086z M75.7,70.086   c-0.087-1.338-1.993-1.363-2.085,0.008C73.645,71.482,75.672,71.529,75.7,70.086z M80.609,70.086   c-0.087-1.338-1.993-1.363-2.085,0.008C78.554,71.482,80.581,71.529,80.609,70.086z M85.519,70.086   c-0.087-1.338-1.993-1.363-2.085,0.008C83.463,71.482,85.49,71.529,85.519,70.086z M58.518,72.541   c-0.087-1.338-1.993-1.363-2.084,0.006C56.463,73.936,58.489,73.984,58.518,72.541z M63.427,72.541   c-0.087-1.338-1.993-1.363-2.085,0.006C61.371,73.936,63.398,73.984,63.427,72.541z M68.336,72.541   c-0.086-1.338-1.993-1.363-2.084,0.006C66.281,73.936,68.308,73.984,68.336,72.541z M73.245,72.541   c-0.087-1.338-1.993-1.363-2.085,0.006C71.189,73.936,73.217,73.984,73.245,72.541z M78.154,72.541   c-0.086-1.338-1.993-1.363-2.084,0.006C76.099,73.936,78.127,73.984,78.154,72.541z M83.064,72.541   c-0.088-1.338-1.994-1.363-2.085,0.006C81.008,73.936,83.035,73.984,83.064,72.541z M87.973,72.541   c-0.086-1.338-1.993-1.363-2.084,0.006C85.918,73.936,87.945,73.984,87.973,72.541z M60.973,74.996   c-0.087-1.338-1.994-1.363-2.085,0.006C58.917,76.391,60.944,76.439,60.973,74.996z M65.881,74.996   c-0.086-1.338-1.993-1.363-2.084,0.006C63.826,76.391,65.854,76.439,65.881,74.996z M70.791,74.996   c-0.087-1.338-1.994-1.363-2.085,0.006C68.735,76.391,70.763,76.439,70.791,74.996z M75.7,74.996   c-0.087-1.338-1.993-1.363-2.085,0.006C73.645,76.391,75.672,76.439,75.7,74.996z M80.609,74.996   c-0.087-1.338-1.993-1.363-2.085,0.006C78.554,76.391,80.581,76.439,80.609,74.996z M85.519,74.996   c-0.087-1.338-1.993-1.363-2.085,0.006C83.463,76.391,85.49,76.439,85.519,74.996z M58.518,77.451   c-0.087-1.34-1.993-1.365-2.084,0.006C56.463,78.846,58.489,78.893,58.518,77.451z M63.427,77.451   c-0.087-1.34-1.993-1.365-2.085,0.006C61.371,78.846,63.398,78.893,63.427,77.451z M68.336,77.451   c-0.086-1.34-1.993-1.365-2.084,0.006C66.281,78.846,68.308,78.893,68.336,77.451z M73.245,77.451   c-0.087-1.34-1.993-1.365-2.085,0.006C71.189,78.846,73.217,78.893,73.245,77.451z M78.154,77.451   c-0.086-1.34-1.993-1.365-2.084,0.006C76.099,78.846,78.127,78.893,78.154,77.451z M83.064,77.451   c-0.088-1.34-1.994-1.365-2.085,0.006C81.008,78.846,83.035,78.893,83.064,77.451z M87.973,77.451   c-0.086-1.34-1.993-1.365-2.084,0.006C85.918,78.846,87.945,78.893,87.973,77.451z M60.973,79.906   c-0.087-1.34-1.994-1.365-2.085,0.006C58.917,81.301,60.944,81.348,60.973,79.906z M65.881,79.906   c-0.086-1.34-1.993-1.365-2.084,0.006C63.826,81.301,65.854,81.348,65.881,79.906z M70.791,79.906   c-0.087-1.34-1.994-1.365-2.085,0.006C68.735,81.301,70.763,81.348,70.791,79.906z M75.7,79.906   c-0.087-1.34-1.993-1.365-2.085,0.006C73.645,81.301,75.672,81.348,75.7,79.906z M80.609,79.906   c-0.087-1.34-1.993-1.365-2.085,0.006C78.554,81.301,80.581,81.348,80.609,79.906z M85.519,79.906   c-0.087-1.34-1.993-1.365-2.085,0.006C83.463,81.301,85.49,81.348,85.519,79.906z M58.518,82.359   c-0.087-1.338-1.993-1.363-2.084,0.008C56.463,83.754,58.489,83.803,58.518,82.359z M63.427,82.359   c-0.087-1.338-1.993-1.363-2.085,0.008C61.371,83.754,63.398,83.803,63.427,82.359z M68.336,82.359   c-0.086-1.338-1.993-1.363-2.084,0.008C66.281,83.754,68.308,83.803,68.336,82.359z M73.245,82.359   c-0.087-1.338-1.993-1.363-2.085,0.008C71.189,83.754,73.217,83.803,73.245,82.359z M78.154,82.359   c-0.086-1.338-1.993-1.363-2.084,0.008C76.099,83.754,78.127,83.803,78.154,82.359z M83.064,82.359   c-0.088-1.338-1.994-1.363-2.085,0.008C81.008,83.754,83.035,83.803,83.064,82.359z M87.973,82.359   c-0.086-1.338-1.993-1.363-2.084,0.008C85.918,83.754,87.945,83.803,87.973,82.359z M60.973,84.814   c-0.087-1.338-1.994-1.363-2.085,0.006C58.917,86.209,60.944,86.258,60.973,84.814z M65.881,84.814   c-0.086-1.338-1.993-1.363-2.084,0.006C63.826,86.209,65.854,86.258,65.881,84.814z M70.791,84.814   c-0.087-1.338-1.994-1.363-2.085,0.006C68.735,86.209,70.763,86.258,70.791,84.814z M75.7,84.814   c-0.087-1.338-1.993-1.363-2.085,0.006C73.645,86.209,75.672,86.258,75.7,84.814z M80.609,84.814   c-0.087-1.338-1.993-1.363-2.085,0.006C78.554,86.209,80.581,86.258,80.609,84.814z M85.519,84.814   c-0.087-1.338-1.993-1.363-2.085,0.006C83.463,86.209,85.49,86.258,85.519,84.814z M58.518,87.27   c-0.087-1.338-1.993-1.365-2.084,0.006C56.463,88.664,58.489,88.711,58.518,87.27z M63.427,87.27   c-0.087-1.338-1.993-1.365-2.085,0.006C61.371,88.664,63.398,88.711,63.427,87.27z M68.336,87.27   c-0.086-1.338-1.993-1.365-2.084,0.006C66.281,88.664,68.308,88.711,68.336,87.27z M73.245,87.27   c-0.087-1.338-1.993-1.365-2.085,0.006C71.189,88.664,73.217,88.711,73.245,87.27z M78.154,87.27   c-0.086-1.338-1.993-1.365-2.084,0.006C76.099,88.664,78.127,88.711,78.154,87.27z M83.064,87.27   c-0.088-1.338-1.994-1.365-2.085,0.006C81.008,88.664,83.035,88.711,83.064,87.27z M87.973,87.27   c-0.086-1.338-1.993-1.365-2.084,0.006C85.918,88.664,87.945,88.711,87.973,87.27z M60.973,89.725   c-0.087-1.34-1.994-1.365-2.085,0.006C58.917,91.119,60.944,91.166,60.973,89.725z M65.881,89.725   c-0.086-1.34-1.993-1.365-2.084,0.006C63.826,91.119,65.854,91.166,65.881,89.725z M70.791,89.725   c-0.087-1.34-1.994-1.365-2.085,0.006C68.735,91.119,70.763,91.166,70.791,89.725z M75.7,89.725   c-0.087-1.34-1.993-1.365-2.085,0.006C73.645,91.119,75.672,91.166,75.7,89.725z M80.609,89.725   c-0.087-1.34-1.993-1.365-2.085,0.006C78.554,91.119,80.581,91.166,80.609,89.725z M85.519,89.725   c-0.087-1.34-1.993-1.365-2.085,0.006C83.463,91.119,85.49,91.166,85.519,89.725z M58.518,92.178   c-0.087-1.338-1.993-1.363-2.084,0.008C56.463,93.574,58.489,93.621,58.518,92.178z M63.427,92.178   c-0.087-1.338-1.993-1.363-2.085,0.008C61.371,93.574,63.398,93.621,63.427,92.178z M68.336,92.178   c-0.086-1.338-1.993-1.363-2.084,0.008C66.281,93.574,68.308,93.621,68.336,92.178z M73.245,92.178   c-0.087-1.338-1.993-1.363-2.085,0.008C71.189,93.574,73.217,93.621,73.245,92.178z M78.154,92.178   c-0.086-1.338-1.993-1.363-2.084,0.008C76.099,93.574,78.127,93.621,78.154,92.178z M83.064,92.178   c-0.088-1.338-1.994-1.363-2.085,0.008C81.008,93.574,83.035,93.621,83.064,92.178z M87.973,92.178   c-0.086-1.338-1.993-1.363-2.084,0.008C85.918,93.574,87.945,93.621,87.973,92.178z M70,40h-5V45h5V40z M55,5.001h5v-5H50v10h5   V5.001z M55,15.001h-5v5h5V15.001z M70,0.001h-5v5h5V0.001z M80,40h-5V45h5V40z M80,0.001h-5v5h5V0.001z M55,25h-5v5h5V25z    M90,20.001h5v-5h-5V20.001z M90,40h-5V45h10V35h-5V40z M90,30h5v-5h-5V30z M60,40h-5v-5h-5V45h10V40z M50,55h45v44.998H50V55z    M55,93.613c0.685-0.02,1.256,0.691,1.006,1.385h2.938c-0.188-0.598,0.156-1.363,1.006-1.381c0.843,0.057,1.155,0.797,0.963,1.381   h2.941c-0.189-0.598,0.156-1.363,1.006-1.381c0.842,0.057,1.154,0.797,0.961,1.381h2.941c-0.188-0.598,0.157-1.363,1.006-1.381   c0.843,0.057,1.155,0.797,0.963,1.381h2.941c-0.188-0.598,0.156-1.363,1.006-1.381c0.842,0.057,1.154,0.797,0.961,1.381h2.942   c-0.188-0.598,0.156-1.363,1.005-1.381c0.843,0.057,1.156,0.797,0.963,1.381h2.941c-0.188-0.598,0.156-1.363,1.006-1.381   c0.842,0.057,1.154,0.797,0.962,1.381h2.943c-0.331-0.902,0.729-1.799,1.599-1.176v-3.225c-0.604,0.426-1.637,0.121-1.656-0.867   c0.064-0.984,1.064-1.244,1.656-0.818v-3.223c-0.604,0.426-1.637,0.121-1.656-0.869c0.064-0.984,1.064-1.244,1.656-0.818v-3.223   c-0.604,0.426-1.637,0.121-1.656-0.867c0.064-0.984,1.064-1.246,1.656-0.82v-3.221c-0.604,0.426-1.637,0.121-1.656-0.869   c0.064-0.984,1.064-1.244,1.656-0.818v-3.223c-0.604,0.426-1.637,0.121-1.656-0.867c0.064-0.984,1.064-1.246,1.656-0.82v-3.223   c-0.604,0.426-1.637,0.123-1.656-0.867c0.064-0.984,1.064-1.244,1.656-0.818v-3.236c-0.864,0.639-1.885-0.258-1.613-1.129h-2.915   c0.161,0.576-0.165,1.285-0.97,1.336C83.641,61.32,83.314,60.59,83.484,60h-2.922c0.161,0.576-0.166,1.285-0.97,1.336   C78.731,61.32,78.405,60.59,78.575,60h-2.923c0.162,0.576-0.165,1.285-0.969,1.336C73.822,61.32,73.496,60.59,73.666,60h-2.923   c0.161,0.576-0.165,1.285-0.969,1.336C68.913,61.32,68.587,60.59,68.757,60h-2.923c0.162,0.576-0.165,1.285-0.969,1.336   C64.004,61.32,63.678,60.59,63.848,60h-2.922c0.161,0.576-0.166,1.285-0.97,1.336C59.094,61.32,58.769,60.59,58.938,60h-2.914   c0.222,0.68-0.359,1.35-1.024,1.338v2.828c0.506-0.008,1.019,0.332,1.063,1.012c-0.014,0.73-0.541,1.078-1.063,1.063v2.836   c0.506-0.008,1.019,0.332,1.063,1.01c-0.014,0.732-0.541,1.078-1.063,1.064v2.834c0.506-0.008,1.019,0.332,1.063,1.012   c-0.014,0.73-0.541,1.078-1.063,1.063v2.836c0.506-0.008,1.019,0.332,1.063,1.012c-0.014,0.73-0.541,1.076-1.063,1.063v2.834   c0.506-0.008,1.019,0.332,1.063,1.012c-0.014,0.73-0.541,1.078-1.063,1.063v2.836c0.506-0.008,1.019,0.332,1.063,1.012   c-0.014,0.73-0.541,1.076-1.063,1.063V93.613z M20,25L5,50h5l10-16.666v46.665h5V33.333L35,50h5L25,25H20z M85,0.001v5h5v5h5v-10   H85z"></path></g></svg>