<svg xmlns="http://www.w3.org/2000/svg" data-name="Layer 1" viewBox="0 0 100 100" x="0px" y="0px"><title>03</title><g data-name="Group"><path data-name="Compound Path" d="M42.86,82.12a39.18,39.18,0,0,0,24.8-8.8L90.76,96.41l5.66-5.66L73.32,67.67A39.32,39.32,0,1,0,42.86,82.12ZM20.75,20.75a31.28,31.28,0,1,1,0,44.23A31.18,31.18,0,0,1,20.75,20.75Z"></path><polygon data-name="Path" points="38.86 60.86 46.86 60.86 46.86 46.86 60.86 46.86 60.86 38.86 46.86 38.86 46.86 24.86 38.86 24.86 38.86 38.86 24.86 38.86 24.86 46.86 38.86 46.86 38.86 60.86"></polygon></g></svg>