<svg xmlns="http://www.w3.org/2000/svg" xmlns:cc="http://creativecommons.org/ns#" xmlns:dc="http://purl.org/dc/elements/1.1/" xmlns:rdf="http://www.w3.org/1999/02/22-rdf-syntax-ns#" clip-rule="evenodd" fill-rule="evenodd" stroke-linecap="round" stroke-linejoin="round" stroke-miterlimit="1" version="1.1" viewBox="0 0 32 32" xml:space="preserve" x="0px" y="0px"><rect width="32" height="32" fill="none"></rect><path d="m10 3c-1.4978 0-2.6354-0.002642-3.5762 0.10352s-1.7668 0.33644-2.377 0.94727c-0.61012 0.61083-0.83978 1.4368-0.94531 2.377s-0.10156 2.0765-0.10156 3.5723v2.5156c0 1.8558 0.73848 3.6369 2.0508 4.9492l8.2422 8.2422a1.0001 1.0001 0 0 0 0.125 0.10938c0.99891 0.99943 1.7787 1.7804 2.4902 2.3477 0.7402 0.59016 1.4882 1.0103 2.3516 1.0098 0.86335-5.07e-4 1.6101-0.42151 2.3496-1.0117 0.7149-0.57059 1.4977-1.3548 2.5039-2.3613a1.0001 1.0001 0 0 0 0.10156 -0.097656l2.4277-2.4492 0.00586-0.005859a1.0001 1.0001 0 0 0 0.058593 -0.056641c1.0577-1.0577 1.8649-1.8583 2.4551-2.5977 0.5902-0.73939 1.0112-1.4863 1.0117-2.3496 5.08e-4 -0.86333-0.41963-1.6094-1.0098-2.3496-0.5781-0.72512-1.3729-1.5157-2.4004-2.543a1.0001 1.0001 0 0 0 -0.056641 -0.058593l-8.2422-8.2422c-1.3123-1.3123-3.0934-2.0508-4.9492-2.0508h-2.5156zm0 2h2.5156c1.3262 0 2.5975 0.52715 3.5352 1.4648l8.1934 8.1914a1.0001 1.0001 0 0 0 0.048828 0.050781c1.0584 1.0584 1.8388 1.8468 2.3066 2.4336 0.46783 0.58681 0.57434 0.90372 0.57422 1.1035-1.17e-4 0.1998-0.1081 0.51517-0.57617 1.1016-0.45948 0.57563-1.2261 1.3527-2.2539 2.3809a1.0001 1.0001 0 0 0 -0.007812 0.00586 1.0001 1.0001 0 0 0 -0.050782 0.048828l-2.418 2.4434a1.0001 1.0001 0 0 0 -0.074219 0.06836c-1.0573 1.0573-1.8452 1.8366-2.4316 2.3047-0.58646 0.46807-0.90362 0.57606-1.1035 0.57617-0.1999 1.18e-4 -0.51482-0.10641-1.1016-0.57422-0.58674-0.46781-1.3755-1.2483-2.4336-2.3066a1.0001 1.0001 0 0 0 -0.12109 -0.10547l-8.1367-8.1367c-0.9377-0.9377-1.4648-2.209-1.4648-3.5352v-2.5156c0-1.4952 0.0061497-2.604 0.089844-3.3496 0.08369-0.74562 0.22984-1.0461 0.37109-1.1875 0.14126-0.14142 0.44176-0.28889 1.1875-0.37305 0.74574-0.084155 1.8548-0.089844 3.3516-0.089844z" clip-rule="nonzero" color="#000000" color-rendering="auto" dominant-baseline="auto" fill-rule="nonzero" image-rendering="auto" shape-rendering="auto" solid-color="#000000" style="font-feature-settings:normal;font-variant-alternates:normal;font-variant-caps:normal;font-variant-ligatures:normal;font-variant-numeric:normal;font-variant-position:normal;isolation:auto;mix-blend-mode:normal;shape-padding:0;text-decoration-color:#000000;text-decoration-line:none;text-decoration-style:solid;text-indent:0;text-orientation:mixed;text-transform:none;white-space:normal;"></path><ellipse cx="10" cy="9.991" rx="1.984" ry="1.991"></ellipse></svg>