<svg xmlns:dc="http://purl.org/dc/elements/1.1/" xmlns:cc="http://creativecommons.org/ns#" xmlns:rdf="http://www.w3.org/1999/02/22-rdf-syntax-ns#" xmlns:svg="http://www.w3.org/2000/svg" xmlns="http://www.w3.org/2000/svg" xmlns:sodipodi="http://sodipodi.sourceforge.net/DTD/sodipodi-0.dtd" xmlns:inkscape="http://www.inkscape.org/namespaces/inkscape" version="1.1" x="0px" y="0px" viewBox="0 0 100 100"><g transform="translate(0,-952.36218)"><path style="text-indent:0;text-transform:none;direction:ltr;block-progression:tb;baseline-shift:baseline;color:#000000;enable-background:accumulate;" d="m 33.71875,962.92758 c 5.02781,0.0778 10.18718,1.62246 14.71875,4.96875 0.95162,0.65039 1.85749,0.80653 3.125,0 10.35788,-7.64866 23.97937,-5.88924 31.875,1.28125 3.94782,3.58524 6.46889,8.46971 6.5625,14.31247 0.0936,5.8428 -2.26972,12.757 -8.53125,20.37495 -0.29178,0.3556 -0.56003,0.6866 -0.84375,1.0313 -3.52571,-2.4052 -7.76387,-3.8125 -12.34375,-3.8125 -6.51046,0 -12.38255,2.8274 -16.40625,7.3437 -3.47285,3.8813 -5.59375,9.0472 -5.59375,14.6563 0,6.0539 2.47787,11.5205 6.4375,15.5 -0.84931,1.0077 -1.66994,1.9704 -2.71875,3.2187 C 36.77308,1026.0782 43.45236,1034.183 18.53125,1003.865 12.26973,996.24705 9.9063902,989.33285 10,983.49005 c 0.0936,-5.84276 2.61468,-10.72723 6.5625,-14.31247 4.44129,-4.0334 10.69193,-6.35001 17.15625,-6.25 z" fill="#000000" fill-opacity="1" fill-rule="evenodd" stroke="none" marker="none" visibility="visible" display="inline" overflow="visible"></path><path style="text-indent:0;text-transform:none;direction:ltr;block-progression:tb;baseline-shift:baseline;color:#000000;enable-background:accumulate;" d="m 67.28125,1005.0815 c -4.94384,0.2694 -9.3473,2.5611 -12.4375,6.0313 -2.84513,3.1783 -4.5625,7.3597 -4.5625,11.9687 0,5.6017 2.54139,10.5689 6.53125,13.875 3.11593,2.5756 7.10254,4.125 11.46875,4.125 9.97017,0 18,-8.0298 18,-18 0,-9.9591 -8.03104,-18 -18,-18 -0.33423,0 -0.67041,-0.018 -1,0 z m 11.84375,7.9688 a 2.000005,2.000005 0 0 1 0.1875,0 2.000005,2.000005 0 0 1 1.375,3.375 l -15,16 a 2.000005,2.000005 0 0 1 -3.0625,-0.1563 l -6.875,-9.125 a 2.000005,2.000005 0 1 1 3.1875,-2.4062 l 5.4375,7.2187 13.375,-14.25 a 2.000005,2.000005 0 0 1 1.375,-0.6562 z" fill="#000000" fill-opacity="1" fill-rule="evenodd" stroke="none" marker="none" visibility="visible" display="inline" overflow="visible"></path></g></svg>