<svg height='100px' width='100px'  fill="#000000" xmlns:dc="http://purl.org/dc/elements/1.1/" xmlns:cc="http://creativecommons.org/ns#" xmlns:rdf="http://www.w3.org/1999/02/22-rdf-syntax-ns#" xmlns:svg="http://www.w3.org/2000/svg" xmlns="http://www.w3.org/2000/svg" xmlns:sodipodi="http://sodipodi.sourceforge.net/DTD/sodipodi-0.dtd" xmlns:inkscape="http://www.inkscape.org/namespaces/inkscape" version="1.1" x="0px" y="0px" viewBox="0 0 100 100"><g transform="translate(0,-952.36218)"><path d="m 53.281302,972.75205 a 1.0001,1.0001 0 0 0 -0.094,0.031 l -23,0 c -2.2109,0 -4.0312,1.7891 -4.0312,4 l 0,48.43755 c 0,2.212 1.8203,4 4.0312,4 l 2.0312,0 0,0.5624 c 0,1.6415 1.3273,3 2.9688,3 l 36.4688,0 c 1.6414,0 3,-1.3585 3,-3 l 0,-13.2812 c 0,-1.6415 -1.3586,-3 -3,-3 l -2.6563,0 0,-25.40615 a 1.0001,1.0001 0 0 0 -0.062,-0.7188 1.0001,1.0001 0 0 0 0,-0.031 1.0001,1.0001 0 0 0 -0.094,-0.1563 1.0001,1.0001 0 0 0 0,-0.031 1.0001,1.0001 0 0 0 -0.062,-0.031 1.0001,1.0001 0 0 0 0,-0.031 1.0001,1.0001 0 0 0 -0.063,-0.031 1.0001,1.0001 0 0 0 0,-0.031 l -14.5937,-14 a 1.0001,1.0001 0 0 0 -0.062,-0.062 1.0001,1.0001 0 0 0 -0.7812,-0.2188 z m -23.0938,2.0312 22.25,0 0,9.9688 c 0,2.2116 1.8207,4.0312 4.0312,4.0312 l 10.5313,0 0,24.71875 -31.8125,0 c -1.6415,0 -2.9688,1.3585 -2.9688,3 l 0,10.7188 -2.0312,0 c -1.129,0 -2.0312,-0.8685 -2.0312,-2 l 0,-48.43755 c 0,-1.1288 0.9022,-2 2.0312,-2 z m 24.25,1.3438 10.1875,9.7812 0.9063,0.875 -9.0626,0 c -1.1293,0 -2.0312,-0.9008 -2.0312,-2.0312 l 0,-8.625 z m -17.1562,13.75 c -2.1792,0 -3.9688,1.7897 -3.9688,3.9688 0,2.1793 1.7895,3.9687 3.9688,3.9687 2.1792,0 3.9687,-1.7893 3.9687,-3.9687 0,-2.1793 -1.7895,-3.9688 -3.9687,-3.9688 z m 0,2 c 1.0983,0 1.9687,0.8706 1.9687,1.9688 0,1.0985 -0.8704,1.9687 -1.9687,1.9687 -1.0983,0 -1.9688,-0.8702 -1.9688,-1.9687 0,-1.0984 0.8704,-1.9688 1.9688,-1.9688 z m 6.0624,6.5 a 1.0001,1.0001 0 0 0 -0.6562,0.375 l -9.6562,11.65615 a 1.0103455,1.0103455 0 0 0 1.5624,1.2813 l 8.875,-10.7186 8.8438,10.7499 a 1.0103385,1.0103385 0 0 0 1.5625,-1.2813 l -1.75,-2.1562 3.0625,-3.25 5.4062,6.6562 a 1.0005272,1.0005272 0 1 0 1.5626,-1.25 l -6.125,-7.5624 a 1.0001,1.0001 0 0 0 -0.875,-0.375 1.0001,1.0001 0 0 0 -0.625,0.3125 l -3.7188,3.9063 -6.5625,-7.96885 a 1.0001,1.0001 0 0 0 -0.8125,-0.375 1.0001,1.0001 0 0 0 -0.094,0 z m -8.1562,17.12495 36.4688,0 c 0.5679,0 1,0.4319 1,1 l 0,13.2812 c 0,0.568 -0.4321,1 -1,1 l -36.4688,0 c -0.5681,0 -0.9688,-0.432 -0.9688,-1 l 0,-13.2812 c 0,-0.5681 0.4007,-1 0.9688,-1 z m 24.5,3.7188 c -0.5053,0.048 -0.9428,0.1836 -1.3125,0.375 -0.6467,0.332 -1.1331,0.8152 -1.4687,1.4374 -0.3357,0.6223 -0.5,1.3245 -0.5,2.125 0,0.7375 0.1681,1.4351 0.4687,2.0626 0.3006,0.6275 0.746,1.1002 1.3437,1.4374 0.5979,0.3374 1.2899,0.5 2.0938,0.5 0.6327,0 1.258,-0.1042 1.875,-0.3437 0.6169,-0.2394 1.0811,-0.5292 1.4062,-0.8437 l 0,-3.0626 -3.3437,0 0,1.2813 1.7813,0 0,1 c -0.2342,0.1817 -0.5169,0.3411 -0.8438,0.4687 -0.3268,0.1274 -0.6436,0.1876 -0.9688,0.1876 -0.6571,0 -1.1882,-0.2313 -1.5937,-0.6876 -0.4055,-0.456 -0.625,-1.1501 -0.625,-2.0624 0,-0.846 0.2247,-1.4763 0.625,-1.9063 0.4002,-0.43 0.9156,-0.6563 1.5937,-0.6563 0.4476,0 0.8262,0.1253 1.125,0.3438 0.2989,0.2185 0.5166,0.4975 0.625,0.875 l 1.5313,-0.2812 c -0.1538,-0.7061 -0.4947,-1.256 -1.0313,-1.6563 -0.5365,-0.4002 -1.2956,-0.5937 -2.25,-0.5937 -0.1835,0 -0.3628,-0.016 -0.5312,0 z m -17.9375,0.125 0,7.6874 1.5313,0 0,-2.9062 1.0312,0 c 0.7026,0 1.2233,-0.021 1.5938,-0.094 0.2727,-0.059 0.5484,-0.1914 0.8124,-0.375 0.2639,-0.1836 0.485,-0.4284 0.6563,-0.75 0.1709,-0.3215 0.25,-0.7155 0.25,-1.1874 0,-0.6118 -0.1404,-1.1138 -0.4375,-1.5 -0.2971,-0.3863 -0.6533,-0.6347 -1.0938,-0.75 -0.2865,-0.077 -0.8999,-0.125 -1.8437,-0.125 l -2.5,0 z m 7.1875,0 0,7.6874 1.4375,0 0,-5.0312 3.0937,5.0312 1.5626,0 0,-7.6874 -1.4376,0 0,5.125 -3.1562,-5.125 -1.5,0 z m -5.6562,1.3124 0.75,0 c 0.5592,0 0.9398,0 1.125,0.031 0.2516,0.045 0.4606,0.1619 0.625,0.3437 0.1644,0.1819 0.25,0.4079 0.25,0.6876 0,0.2272 -0.07,0.4224 -0.1876,0.5937 -0.117,0.1712 -0.2625,0.295 -0.4687,0.375 -0.2063,0.081 -0.607,0.125 -1.2187,0.125 l -0.875,0 0,-2.1563 z m -4.5313,4.9063 0,1.4687 1.4687,0 0,-1.4687 -1.4687,0 z" style="text-indent:0;text-transform:none;direction:ltr;block-progression:tb;baseline-shift:baseline;color:#000000;enable-background:accumulate;" fill="#000000" fill-opacity="1" stroke="none" marker="none" visibility="visible" display="inline" overflow="visible"></path></g></svg>