<svg height='100px' width='100px'  fill="#000000" xmlns="http://www.w3.org/2000/svg" viewBox="0 0 100 100" x="0px" y="0px"><title>BS-+-Standard-Cloud</title><path d="M55.74,26.48a16.11,16.11,0,0,1,16,15.77l.1,6.17,6,1.47A12,12,0,0,1,75,73.52H25A12,12,0,0,1,19.19,51l4-2.2.14-4.54a7.91,7.91,0,0,1,10.16-7.37l5.65,1.65,3.26-4.9a16,16,0,0,1,13.37-7.18m0-8a24,24,0,0,0-20,10.75A15.91,15.91,0,0,0,15.31,44,20,20,0,0,0,5,61.52H5a20,20,0,0,0,20,20H75a20,20,0,0,0,20-20h0a20,20,0,0,0-15.23-19.4,24,24,0,0,0-24-23.64Z"></path><polygon points="55.6 70.23 48.4 70.23 48.4 57.63 35.8 57.63 35.8 50.43 48.4 50.43 48.4 37.83 55.6 37.83 55.6 50.43 68.19 50.43 68.19 57.63 55.6 57.63 55.6 70.23"></polygon></svg>