<svg xmlns="http://www.w3.org/2000/svg" xmlns:xlink="http://www.w3.org/1999/xlink" xmlns:a="http://ns.adobe.com/AdobeSVGViewerExtensions/3.0/"
  version="1.1" x="0px" y="0px" viewBox="-12.334 -8.896 100 100" enable-background="new -12.334 -8.896 100 100" xml:space="preserve">
<path
  d="M34.09,66.191h0.002c0.9,0.941,2.17,1.525,3.576,1.525s2.674-0.584,3.576-1.525l0,0L58.549,48.16  c1.895-1.977,1.83-5.115-0.145-7.009c-0.963-0.922-2.199-1.38-3.434-1.38c-1.303,0-2.604,0.51-3.578,1.524l-8.768,9.136V19.526  c0-2.739-2.221-4.958-4.957-4.958c-2.738,0-4.959,2.219-4.959,4.958v30.906l-8.768-9.136c-0.975-1.015-2.275-1.524-3.578-1.524  c-1.236,0-2.471,0.458-3.434,1.38c-1.975,1.894-2.039,5.033-0.145,7.009L34.09,66.191z"></path>
  
  
  <path d="M4.977,9.916h65.381c2.738,0,4.957-2.22,4.957-4.958C75.314,2.22,73.096,0,70.357,0H4.977C2.238,0,0.02,2.22,0.02,4.958  C0.02,7.696,2.238,9.916,4.977,9.916z"></path>
  
  
  <path d="M70.357,72.253L70.357,72.253L70.357,72.253h-4.979v9.953h4.979l0,0l0,0c2.748,0,4.977-2.227,4.977-4.975  C75.334,74.481,73.105,72.253,70.357,72.253z"></path>
  
  
  <path d="M0,77.231c0,2.748,2.229,4.975,4.977,4.975h14.977v-9.953H4.977C2.229,72.253,0,74.481,0,77.231z"></path>
  
  
  <rect x="16.346" y="72.253" width="9.953" height="9.953"></rect>
  
  <rect x="49.035" y="72.253" width="19.953" height="9.953"></rect>
  </svg>