<svg xmlns="http://www.w3.org/2000/svg" xmlns:xlink="http://www.w3.org/1999/xlink" version="1.1" x="0px" y="0px" viewBox="0 0 20 20" enable-background="new 0 0 20 20" xml:space="preserve"><g><polygon fill="#000000" points="16,6 14.6,7.4 16.2,9 12,9 12,11 16.2,11 14.6,12.6 16,14 20,10  "></polygon><polygon fill="#000000" points="9,3.8 9,8 11,8 11,3.8 12.6,5.4 14,4 10,0 6,4 7.4,5.4  "></polygon><polygon fill="#000000" points="8,11 8,9 3.8,9 5.4,7.4 4,6 0,10 4,14 5.4,12.6 3.8,11  "></polygon><polygon fill="#000000" points="11,16.2 11,12 9,12 9,16.2 7.4,14.6 6,16 10,20 14,16 12.6,14.6  "></polygon></g></svg>