<svg xmlns="http://www.w3.org/2000/svg" xmlns:xlink="http://www.w3.org/1999/xlink" version="1.0" x="0px" y="0px" viewBox="0 0 100 100" enable-background="new 0 0 100 100" xml:space="preserve"><g><path fill="#000000" d="M76.372,58.619l-5.663-5.646c-0.058-0.063-0.132-0.111-0.215-0.14c-0.206-0.069-0.433,0.005-0.561,0.178   L54.896,68.049L54.897,15c0-0.133-0.053-0.26-0.146-0.354S54.53,14.5,54.397,14.5h-8.803c-0.276,0-0.5,0.224-0.5,0.5v53.047   L30.002,52.955c-0.195-0.195-0.512-0.195-0.707,0l-5.667,5.665c-0.195,0.195-0.195,0.512,0,0.707l26.011,26.026   c0.094,0.094,0.221,0.146,0.354,0.146s0.26-0.053,0.354-0.146l26.027-26.026c0.094-0.094,0.146-0.221,0.146-0.354   S76.467,58.713,76.372,58.619z"></path></g></svg>