<svg xmlns="http://www.w3.org/2000/svg" xmlns:xlink="http://www.w3.org/1999/xlink" version="1.0" x="0px" y="0px" viewBox="0 0 100 100" enable-background="new 0 0 100 100" xml:space="preserve"><g><path fill="#000000" d="M85,45.093H31.954L47.046,30c0.094-0.094,0.146-0.221,0.146-0.354s-0.053-0.26-0.146-0.354l-5.666-5.665   c-0.195-0.195-0.512-0.195-0.707,0L14.647,49.637C14.553,49.73,14.5,49.857,14.5,49.99c0,0.132,0.053,0.26,0.146,0.354   l26.026,26.028c0.094,0.094,0.221,0.146,0.354,0.146h0c0.133,0,0.26-0.053,0.354-0.147l5.66-5.678   c0.022-0.022,0.043-0.047,0.062-0.072c0.149-0.213,0.11-0.504-0.088-0.671c-0.009-0.007-0.017-0.014-0.026-0.02L31.95,54.895H85   c0.276,0,0.5-0.224,0.5-0.5v-8.801C85.5,45.317,85.276,45.093,85,45.093z"></path></g></svg>