<?xml version="1.0" encoding="UTF-8"?>
<svg width="1200pt" height="1200pt" version="1.1" viewBox="0 0 1200 1200" xmlns="http://www.w3.org/2000/svg">
 <g>
  <path d="m924 696h-228v72h132c-42.707 56.863-104.22 96.707-173.58 112.42-69.355 15.715-142.04 6.2812-205.09-26.617-63.047-32.898-112.36-87.125-139.13-153l-66.719 27c33.363 82.137 94.965 149.66 173.7 190.4 78.742 40.742 169.44 52.023 255.77 31.812 86.32-20.215 162.59-70.59 215.05-142.05v152.04h72v-228c0-9.5469-3.793-18.703-10.543-25.457-6.7539-6.75-15.91-10.543-25.457-10.543z"/>
  <path d="m588 624c50.922 0 99.758-20.227 135.77-56.234s56.234-84.844 56.234-135.77-20.227-99.758-56.234-135.77-84.844-56.234-135.77-56.234-99.758 20.227-135.77 56.234-56.234 84.844-56.234 135.77c0 33.703 8.8711 66.812 25.723 96 16.852 29.188 41.09 53.426 70.277 70.277 29.188 16.852 62.297 25.723 96 25.723zm0-312c31.824 0 62.348 12.645 84.852 35.148 22.504 22.504 35.148 53.027 35.148 84.852s-12.645 62.348-35.148 84.852c-22.504 22.504-53.027 35.148-84.852 35.148s-62.348-12.645-84.852-35.148c-22.504-22.504-35.148-53.027-35.148-84.852s12.645-62.348 35.148-84.852c22.504-22.504 53.027-35.148 84.852-35.148z"/>
 </g>
</svg>
