<svg xmlns="http://www.w3.org/2000/svg" xmlns:xlink="http://www.w3.org/1999/xlink" version="1.0" x="0px" y="0px" viewBox="0 0 100 100" enable-background="new 0 0 100 100" xml:space="preserve"><g><path fill="#000000" d="M76.372,40.675L50.363,14.646C50.27,14.553,50.143,14.5,50.01,14.5s-0.26,0.053-0.354,0.146L23.629,40.675   c-0.094,0.094-0.146,0.221-0.146,0.354s0.053,0.26,0.147,0.354l5.681,5.662c0.014,0.014,0.028,0.027,0.043,0.04   c0.208,0.165,0.508,0.141,0.686-0.058c0.011-0.013,0.022-0.026,0.032-0.04L45.107,31.95L45.106,85c0,0.133,0.053,0.26,0.146,0.354   s0.221,0.146,0.354,0.146h8.801c0.276,0,0.5-0.224,0.5-0.5V31.952L70,47.047c0.188,0.188,0.52,0.188,0.707,0l5.665-5.665   C76.567,41.187,76.567,40.87,76.372,40.675z"></path></g></svg>