<svg xmlns="http://www.w3.org/2000/svg" xmlns:sodipodi="http://sodipodi.sourceforge.net/DTD/sodipodi-0.dtd" viewBox="0 0 100 100" x="0px" y="0px"><path d="m 16.25,5 0,1.5 L 17.71875,5 16.25,5 z" color="#000"></path><path d="M 20.65625,5 16.25,9.5 l 0,1.5 5.875,-6 -1.46875,0 z" color="#000"></path><path d="m 25.0625,5 -8.8125,9 0,1.5 L 26.53125,5 25.0625,5 z" color="#000"></path><path d="M 29.46875,5 16.25,18.5 16.25,20 30.9375,5 29.46875,5 z" color="#000"></path><path d="M 33.84375,5 16.25,23 l 0,1.5 L 35.3125,5 33.84375,5 z" color="#000"></path><path d="m 38.25,5 -22,22.5 0,1.5 L 39.71875,5 38.25,5 z" color="#000"></path><path d="M 42.65625,5 16.25,32 l 0,1.5 14.6875,-15 L 44.125,5 42.65625,5 z" color="#000"></path><path d="M 47.0625,5 33.84375,18.5 35.3125,18.5 48.53125,5 47.0625,5 z" color="#000"></path><path d="M 51.46875,5 38.25,18.5 39.71875,18.5 52.9375,5 51.46875,5 z" color="#000"></path><path d="M 55.875,5 42.65625,18.5 44.125,18.5 57.34375,5 55.875,5 z" color="#000"></path><path d="M 60.28125,5 47.0625,18.5 48.53125,18.5 61.75,5 60.28125,5 z" color="#000"></path><path d="M 64.6875,5 51.46875,18.5 52.9375,18.5 66.15625,5 64.6875,5 z" color="#000"></path><path d="M 69.0625,5 55.875,18.5 57.34375,18.5 70.53125,5 69.0625,5 z" color="#000"></path><path d="M 73.46875,5 60.28125,18.5 61.75,18.5 74.9375,5 73.46875,5 z" color="#000"></path><path d="m 77.875,5 -13.1875,13.5 1.46875,0 L 79.34375,5 77.875,5 z" color="#000"></path><path d="m 82.28125,5 -13.21875,13.5 0,1.5 L 83.75,5 82.28125,5 z" color="#000"></path><path d="m 83.75,8 -14.6875,15 0,1.5 14.6875,-15 0,-1.5 z" color="#000"></path><path d="m 83.75,12.5 -14.6875,15 0,1.5 14.6875,-15 0,-1.5 z" color="#000"></path><path d="m 83.75,17 -14.6875,15 0,1.5 14.6875,-15 0,-1.5 z" color="#000"></path><path d="m 30.9375,21.5 -14.6875,15 0,1.5 14.6875,-15 0,-1.5 z" color="#000"></path><path d="m 83.75,21.5 -14.6875,15 0,1.5 14.6875,-15 0,-1.5 z" color="#000"></path><path d="M 30.9375,26 16.25,41 l 0,1.5 14.6875,-15 0,-1.5 z" color="#000"></path><path d="m 83.75,26 -14.6875,15 0,1.5 14.6875,-15 0,-1.5 z" color="#000"></path><path d="m 30.9375,30.5 -14.6875,15 0,1.5 14.6875,-15 0,-1.5 z" color="#000"></path><path d="m 83.75,30.5 -14.6875,15 0,1.5 14.6875,-15 0,-1.5 z" color="#000"></path><path d="M 30.9375,35 16.25,50 l 0,1.5 14.6875,-15 0,-1.5 z" color="#000"></path><path d="m 83.75,35 -14.6875,15 0,1.5 14.6875,-15 0,-1.5 z" color="#000"></path><path d="m 30.9375,39.5 -14.6875,15 0,1.5 14.6875,-15 0,-1.5 z" color="#000"></path><path d="m 83.75,39.5 -14.6875,15 0,1.5 14.6875,-15 0,-1.5 z" color="#000"></path><path d="M 30.9375,44 16.25,59 l 0,1.5 14.6875,-15 0,-1.5 z" color="#000"></path><path d="m 83.75,44 -14.6875,15 0,1.5 14.6875,-15 0,-1.5 z" color="#000"></path><path d="m 30.9375,48.5 -14.6875,15 0,1.5 14.6875,-15 0,-1.5 z" color="#000"></path><path d="m 83.75,48.5 -14.6875,15 0,1.5 14.6875,-15 0,-1.5 z" color="#000"></path><path d="M 30.9375,53 16.25,68 l 0,1.5 14.6875,-15 0,-1.5 z" color="#000"></path><path d="m 83.75,53 -14.6875,15 0,1.5 14.6875,-15 0,-1.5 z" color="#000"></path><path d="m 30.9375,57.5 -14.6875,15 0,1.5 14.6875,-15 0,-1.5 z" color="#000"></path><path d="m 83.75,57.5 -14.6875,15 0,1.5 14.6875,-15 0,-1.5 z" color="#000"></path><path d="M 30.9375,62 16.25,77 l 0,1.5 14.6875,-15 0,-1.5 z" color="#000"></path><path d="m 83.75,62 -14.6875,15 0,1.5 14.6875,-15 0,-1.5 z" color="#000"></path><path d="m 30.9375,66.5 -14.6875,15 0,1.5 14.6875,-15 0,-1.5 z" color="#000"></path><path d="M 83.75,66.5 69.0625,81.5 55.875,95 57.34375,95 83.75,68 l 0,-1.5 z" color="#000"></path><path d="M 30.9375,71 16.25,86 l 0,1.5 14.6875,-15 0,-1.5 z" color="#000"></path><path d="m 83.75,71 -23.46875,24 1.46875,0 22,-22.5 0,-1.5 z" color="#000"></path><path d="m 30.9375,75.5 -14.6875,15 0,1.5 14.6875,-15 0,-1.5 z" color="#000"></path><path d="M 83.75,75.5 64.6875,95 66.15625,95 83.75,77 l 0,-1.5 z" color="#000"></path><path d="M 30.9375,80 16.25,95 l 1.46875,0 13.21875,-13.5 0,-1.5 z" color="#000"></path><path d="M 83.75,80 69.0625,95 70.53125,95 83.75,81.5 l 0,-1.5 z" color="#000"></path><path d="M 33.84375,81.5 20.65625,95 22.125,95 35.3125,81.5 l -1.46875,0 z" color="#000"></path><path d="M 38.25,81.5 25.0625,95 l 1.46875,0 13.1875,-13.5 -1.46875,0 z" color="#000"></path><path d="M 42.65625,81.5 29.46875,95 30.9375,95 44.125,81.5 l -1.46875,0 z" color="#000"></path><path d="M 47.0625,81.5 33.84375,95 l 1.46875,0 13.21875,-13.5 -1.46875,0 z" color="#000"></path><path d="M 51.46875,81.5 38.25,95 l 1.46875,0 13.21875,-13.5 -1.46875,0 z" color="#000"></path><path d="M 55.875,81.5 42.65625,95 44.125,95 57.34375,81.5 55.875,81.5 z" color="#000"></path><path d="M 60.28125,81.5 47.0625,95 48.53125,95 61.75,81.5 l -1.46875,0 z" color="#000"></path><path d="M 64.6875,81.5 51.46875,95 l 1.46875,0 13.21875,-13.5 -1.46875,0 z" color="#000"></path><path d="M 83.75,84.5 73.46875,95 l 1.46875,0 8.8125,-9 0,-1.5 z" color="#000"></path><path d="m 83.75,89 -5.875,6 1.46875,0 4.40625,-4.5 0,-1.5 z" color="#000"></path><path d="m 83.75,93.5 -1.46875,1.5 1.46875,0 0,-1.5 z" color="#000"></path><path d="m 41.5,26 0,3 21,0 0,-3 z" color="#000"></path><path d="m 37.5,33.5 0,3 25,0 0,-3 z" color="#000"></path><path d="m 37.5,41 0,3 25,0 0,-3 z" color="#000"></path><path d="m 37.5,48.5 0,3 25,0 0,-3 z" color="#000"></path><path d="m 37.5,56 0,3 25,0 0,-3 z" color="#000"></path><path d="m 37.5,63.5 0,3 25,0 0,-3 z" color="#000"></path><path d="m 37.5,71 0,3 17,0 0,-3 z" color="#000"></path></svg>