<svg height='100px' width='100px'  fill="#000000" xmlns="http://www.w3.org/2000/svg" xmlns:xlink="http://www.w3.org/1999/xlink" viewBox="0 0 100 100" version="1.1" x="0px" y="0px"><title>Like 1.5</title><desc>Created with Sketch.</desc><g stroke="none" stroke-width="1" fill="none" fill-rule="evenodd"><g fill-rule="nonzero" fill="#000000"><path d="M41.8919405,49.6058681 C41.027567,56.4159747 41.3964755,65.0829701 42.4628331,70.1520315 C48.2751238,70.7853925 63.3982544,70.8774962 66.7263653,70.3737129 C66.8671779,70.3523978 66.9975894,70.337196 67.1857793,70.3181043 C67.7818975,70.2576284 67.942357,70.2326553 68.1241454,70.1695155 C68.2934858,70.1106992 68.3726631,70.0455738 68.4848989,69.8301023 C68.761192,69.2996713 68.9232488,68.3198027 68.8573876,66.8051733 C68.8201655,65.9491659 69.2239105,65.1337255 69.927247,64.6443873 C71.5239287,63.5335146 71.7426613,62.4303503 71.0688769,60.1199912 C70.671729,58.7581994 71.4855811,57.351741 72.8380107,57.0008528 C72.8690094,56.9690243 72.9087305,56.92192 72.9535688,56.8594834 C73.1596915,56.5724606 73.3491136,56.132198 73.4639037,55.6387481 C73.6727999,54.7407634 73.5584577,54.024551 73.5015379,53.9755475 C72.3814255,53.0112166 72.3379367,51.2908792 73.4078945,50.271185 C73.6628166,50.0282384 74.0847697,48.9138893 74.0854849,48.0898781 C74.0868278,46.542628 73.7476153,46.1072067 72.2706927,45.8581548 C71.1077232,45.6620445 69.7736259,45.535662 68.3041722,45.4745756 C65.8530597,45.3726809 63.2008064,45.4548755 60.6082562,45.6548018 C59.9747707,45.7036535 59.3959296,45.755906 58.8846757,45.8079796 C58.582499,45.8387577 58.3732809,45.8622178 58.2698671,45.8747633 C57.2661901,45.9965229 56.2879793,45.5017657 55.7912814,44.62115 C55.6401245,44.3531579 55.5363519,44.0546576 55.4706789,43.7208043 C55.2085157,42.3880793 55.484757,40.0064445 56.5492706,35.9131298 C57.4597011,32.4123026 55.0215372,28.9020595 52.1072176,27.5927966 C52.0024067,27.5457101 51.9265446,27.5159143 51.8656049,27.5026247 C51.8963805,28.3668556 51.9105583,29.2383311 51.9000281,30.0647039 C51.8903039,30.8278353 51.8596885,31.5150063 51.8032478,32.115287 C51.4541355,35.8283058 50.7498678,37.9723911 48.6372139,42.0445649 C47.8682163,43.5200004 46.7144605,45.0066433 45.2734033,46.5059973 C44.4018221,47.4128377 43.4756273,48.270874 42.549643,49.0583135 C42.3066508,49.2649494 42.0858698,49.4481659 41.8919405,49.6058681 Z M40.3984611,44.2848608 C40.8334258,43.8824735 41.2600931,43.4661502 41.6684821,43.0412401 C42.8078799,41.8557488 43.6889833,40.7204253 44.2095279,39.7216559 C46.0350755,36.2028435 46.5419629,34.6596662 46.8252035,31.6472321 C46.8674009,31.1984373 46.8922957,30.6396674 46.900434,30.0009962 C46.9106711,29.1976228 46.894338,28.3255481 46.8607238,27.4650531 C46.8447451,27.0560137 46.8289157,26.7463906 46.8187821,26.5787762 C46.7884118,26.0764369 46.9103564,25.5766258 47.1686656,25.1447189 C47.4025247,24.7536937 47.7727911,24.2828162 48.3127989,23.8184391 C49.8578244,22.489802 51.9341207,22.0336389 54.1562023,23.0319127 C59.0616962,25.235714 63.012965,30.9243858 61.3883107,37.171578 C61.0281792,38.5563711 60.7727942,39.7069953 60.6080356,40.6408151 C63.2592217,40.4480045 65.9605093,40.3728292 68.5118468,40.4788904 C70.1769911,40.5481118 71.714369,40.6937516 73.1020994,40.9277631 C77.0737847,41.5975041 79.0888767,44.1841249 79.085483,48.0942178 C79.0843135,49.4416979 78.7123686,50.9142942 78.1064359,52.1282616 C79.1642547,54.8220934 78.3454521,58.6062764 76.2949676,60.5999983 C76.741001,63.4766034 76.0774958,65.9039491 73.8634347,67.8965448 C73.7505462,71.6771076 72.3303774,74.0015848 69.7646417,74.8927318 C69.3643055,75.0317789 68.9635922,75.1255153 68.5362424,75.1920257 C68.269577,75.2335281 68.2370153,75.237121 67.6904364,75.2925712 C67.5780287,75.3039749 67.5142227,75.3114126 67.4747011,75.3173951 C63.8132729,75.8716333 49.3740149,75.8152053 42.5381042,75.1754365 C42.3054316,75.4082674 42.0228524,75.5985809 41.6984269,75.7283137 C36.1506047,77.9468035 34.1813376,78.1241818 25.3544926,77.0327661 C24.3748906,76.9116409 23.5582631,76.2254688 23.2701469,75.2813923 C20.7278843,66.9511066 21.0457396,57.8217542 23.0891384,45.5881277 C23.3326044,44.130521 24.7804963,43.2010587 26.2071296,43.586559 C30.6626525,44.7905162 33.5666031,44.8946717 39.5368264,44.2323639 C39.8362246,44.1991501 40.1261047,44.2195261 40.3984611,44.2848608 Z M27.6006845,49.0538526 C26.1820902,58.4823808 25.9983537,65.8376274 27.6205083,72.2702485 C33.008657,72.9016635 34.8500545,72.871586 37.7335136,71.8827894 C36.4402311,66.3120529 35.9849803,57.0398509 36.8673449,49.5054249 C33.2829972,49.7677919 30.5999284,49.6530004 27.6006845,49.0538526 Z"></path></g></g></svg>