<svg xmlns="http://www.w3.org/2000/svg" xmlns:xlink="http://www.w3.org/1999/xlink" version="1.1" x="0px" y="0px" viewBox="0 0 160 160" style="enable-background:new 0 0 160 160;" xml:space="preserve"><g><path d="M140.865,15.714c-0.945,0.945-0.945,2.476,0,3.42c0.944,0.945,2.476,0.945,3.42,0c0.944-0.944,0.944-2.476,0-3.42   C143.341,14.77,141.81,14.77,140.865,15.714z"></path><path d="M151.418,8.582c-9.578-9.578-23.484,1.745-35.823,14.084c-6.092,6.092-11.695,12.49-16.203,18.502   c-5.035,6.717-14.182,9.01-21.75,5.453l-3.654-1.718c-5.191-2.441-11.404-1.354-15.46,2.702l-3.82,3.82L39.587,66.546   c-0.667,0.667-1.002,1.539-1.012,2.413L19.367,88.167c-0.057,0.021-0.108,0.056-0.163,0.081l-1.23,1.23   c-0.025,0.056-0.06,0.106-0.082,0.164L5.726,101.808c-0.967,0.968-0.967,2.536,0,3.503l12.061,12.061   c0.465,0.465,1.095,0.725,1.752,0.725h3.357l0.108,3.538c0.019,0.631,0.278,1.23,0.724,1.677l17.821,17.821   c0.663,0.663,1.645,0.895,2.535,0.598l4.886-1.628l-1.7,4.743c-0.324,0.903-0.097,1.91,0.58,2.588l6.84,6.84   c0.967,0.968,2.536,0.968,3.503,0l10.519-10.519l5.347-5.347l2.011-2.011l6.304-6.304l8.668-8.667   c0.875-0.01,1.746-0.345,2.413-1.012l15.121-15.121l3.82-3.82c4.056-4.056,5.142-10.269,2.702-15.459l-1.718-3.657   c-3.557-7.567-1.264-16.714,5.454-21.75c6.012-4.507,12.409-10.11,18.502-16.202C149.673,32.066,160.996,18.16,151.418,8.582z    M77.113,128.346c-0.204-1.432-0.634-2.8-1.299-4.097c-4.118-8.043-16.363-11.825-28.207-15.482   c-15.649-4.833-25.95-8.654-25.134-16.7l18.865-18.865l45.46,45.46L77.113,128.346z M91.002,113.056L46.944,68.998l10.917-10.917   l44.058,44.058L91.002,113.056z M132.43,39.5c-5.864,5.864-12.005,11.244-17.758,15.557c-9.337,7-12.52,19.722-7.57,30.25   l1.718,3.657c1.2,2.552,0.666,5.609-1.329,7.604l-2.068,2.068L61.364,54.578l2.068-2.068c1.995-1.995,5.052-2.53,7.605-1.329   l3.654,1.718c10.529,4.95,23.251,1.767,30.25-7.569c4.314-5.754,9.694-11.895,15.557-17.759   c20.049-20.049,24.383-15.716,26.014-14.084S152.479,19.451,132.43,39.5z"></path></g></svg>