<svg height='100px' width='100px'  fill="#000000" xmlns="http://www.w3.org/2000/svg" xmlns:xlink="http://www.w3.org/1999/xlink" viewBox="0 0 100 100" version="1.1" x="0px" y="0px"><title>Like 1.5</title><desc>Created with Sketch.</desc><g stroke="none" stroke-width="1" fill="none" fill-rule="evenodd"><g fill-rule="nonzero" fill="#000000"><path d="M41.4323033,49.1141819 C40.5679298,55.9242885 40.9368383,64.5912839 42.0031959,69.6603453 C47.8154866,70.2937063 62.9386172,70.38581 66.2667281,69.8820267 C66.4075407,69.8607116 66.5379522,69.8455098 66.7261421,69.8264181 C67.3222602,69.7659422 67.4827198,69.7409691 67.6645082,69.6778293 C67.8338485,69.619013 67.9130259,69.5538877 68.0252616,69.3384161 C68.3015547,68.8079851 68.4636116,67.8281165 68.3977504,66.3134871 C68.3605282,65.4574797 68.7642733,64.6420393 69.4676098,64.1527011 C71.0642914,63.0418284 71.2830241,61.9386641 70.6092396,59.6283051 C70.2120918,58.2665132 71.0259438,56.8600548 72.3783734,56.5091666 C72.4093722,56.4773381 72.4490933,56.4302338 72.4939316,56.3677972 C72.7000543,56.0807744 72.8894764,55.6405118 73.0042665,55.1470619 C73.2131627,54.2490772 73.0988204,53.5328648 73.0419007,53.4838613 C71.9217883,52.5195304 71.8782995,50.799193 72.9482572,49.7794988 C73.2031794,49.5365522 73.6251325,48.4222032 73.6258477,47.5981919 C73.6271906,46.0509419 73.2879781,45.6155205 71.8110555,45.3664686 C70.648086,45.1703584 69.3139886,45.0439758 67.844535,44.9828894 C65.3934225,44.8809947 62.7411692,44.9631893 60.148619,45.1631156 C59.5151335,45.2119673 58.9362924,45.2642198 58.4250385,45.3162934 C58.1228617,45.3470715 57.9136437,45.3705316 57.8102299,45.3830771 C56.8065529,45.5048367 55.8283421,45.0100796 55.3316441,44.1294638 C55.1804873,43.8614717 55.0767146,43.5629714 55.0110416,43.2291181 C54.7488785,41.8963931 55.0251197,39.5147583 56.0896334,35.4214436 C57.0000639,31.9206164 54.5619,28.4103733 51.6475804,27.1011104 C51.5427694,27.0540239 51.4669074,27.0242281 51.4059677,27.0109386 C51.4367433,27.8751694 51.450921,28.7466449 51.4403909,29.5730177 C51.4306666,30.3361491 51.4000513,31.0233201 51.3436106,31.6236008 C50.9944983,35.3366196 50.2902306,37.4807049 48.1775766,41.5528787 C47.4085791,43.0283142 46.2548233,44.5149571 44.8137661,46.0143112 C43.9421849,46.9211515 43.0159901,47.7791878 42.0900058,48.5666273 C41.8470136,48.7732632 41.6262326,48.9564797 41.4323033,49.1141819 Z M39.9388239,43.7931746 C40.3737886,43.3907873 40.8004558,42.974464 41.2088448,42.5495539 C42.3482427,41.3640626 43.2293461,40.2287391 43.7498907,39.2299697 C45.5754382,35.7111573 46.0823257,34.16798 46.3655663,31.155546 C46.4077637,30.7067512 46.4326585,30.1479812 46.4407968,29.50931 C46.4510338,28.7059366 46.4347008,27.8338619 46.4010865,26.9733669 C46.3851079,26.5643276 46.3692785,26.2547044 46.3591449,26.08709 C46.3287745,25.5847507 46.4507192,25.0849396 46.7090283,24.6530327 C46.9428875,24.2620075 47.3131539,23.7911301 47.8531617,23.3267529 C49.3981872,21.9981158 51.4744835,21.5419527 53.696565,22.5402265 C58.602059,24.7440278 62.5533278,30.4326996 60.9286734,36.6798918 C60.568542,38.0646849 60.313157,39.2153091 60.1483984,40.1491289 C62.7995844,39.9563183 65.5008721,39.881143 68.0522096,39.9872042 C69.7173539,40.0564256 71.2547318,40.2020654 72.6424621,40.4360769 C76.6141474,41.1058179 78.6292395,43.6924387 78.6258458,47.6025316 C78.6246763,48.9500118 78.2527313,50.422608 77.6467987,51.6365754 C78.7046175,54.3304072 77.8858149,58.1145903 75.8353303,60.1083121 C76.2813638,62.9849172 75.6178586,65.4122629 73.4037974,67.4048586 C73.290909,71.1854214 71.8707402,73.5098986 69.3050044,74.4010456 C68.9046683,74.5400927 68.503955,74.6338291 68.0766051,74.7003395 C67.8099398,74.7418419 67.7773781,74.7454349 67.2307991,74.800885 C67.1183914,74.8122887 67.0545855,74.8197264 67.0150639,74.8257089 C63.3536356,75.3799471 48.9143776,75.3235191 42.0784669,74.6837503 C41.8457943,74.9165813 41.5632151,75.1068947 41.2387897,75.2366275 C35.6909674,77.4551173 33.7217003,77.6324956 24.8948553,76.5410799 C23.9152534,76.4199547 23.0986259,75.7337826 22.8105097,74.7897062 C20.2682471,66.4594204 20.5861023,57.330068 22.6295012,45.0964415 C22.8729672,43.6388348 24.3208591,42.7093725 25.7474924,43.0948728 C30.2030152,44.29883 33.1069659,44.4029855 39.0771892,43.7406777 C39.3765874,43.7074639 39.6664675,43.7278399 39.9388239,43.7931746 Z M27.1410473,48.5621664 C25.722453,57.9906946 25.5387164,65.3459412 27.1608711,71.7785623 C32.5490198,72.4099773 34.3904172,72.3798998 37.2738764,71.3911032 C35.9805938,65.8203667 35.5253431,56.5481647 36.4077077,49.0137387 C32.82336,49.2761057 30.1402912,49.1613142 27.1410473,48.5621664 Z" transform="translate(49.812925, 49.596695) scale(-1, -1) translate(-49.812925, -49.596695) "></path></g></g></svg>