<svg xmlns="http://www.w3.org/2000/svg" xmlns:xlink="http://www.w3.org/1999/xlink" version="1.1" x="0px" y="0px" viewBox="0 0 100 100" enable-background="new 0 0 100 100" xml:space="preserve"><path d="M65.1,80c-0.2-1.3-0.3-2.8-0.5-4.3c-10,6.4-23.2,6.7-33.7-0.4c-13.6-9.2-17.5-27.7-8.8-41.6C31.4,19.1,50.7,15,65,24.5  c4.4,2.9,7.8,6.8,10.1,11.1L66,41.3l29.1,15.3l-1.3-32.9l-7.9,5C82.6,23,77.9,17.8,72,13.9C51.9,0.6,24.7,6.3,11.7,26.7  c-12.6,19.6-7.2,46,12.1,59.1c13,8.8,28.9,9.6,42.2,3.6c0-0.6,0-1.2-0.1-1.9C65.7,85,65.5,82.5,65.1,80z"></path></svg>