<svg xmlns="http://www.w3.org/2000/svg" xmlns:xlink="http://www.w3.org/1999/xlink" version="1.1" x="0px" y="0px" viewBox="0 0 100 100" enable-background="new 0 0 100 100" xml:space="preserve"><path d="M76.254,39.119h-3.256c-0.292-2.871-0.927-5.73-1.896-7.105c-0.971-1.374-2.014-2.209-3.13-2.534  c-1.123-0.312-2.411-0.479-3.876-0.479h-7.883v37.254c0,1.352,0.139,2.396,0.413,3.139c0.271,0.734,0.909,1.314,1.919,1.721  c0.998,0.41,2.469,0.63,4.412,0.63v3.136H39.683v-3.136c2.849,0,4.687-0.425,5.509-1.242c0.823-0.832,1.232-2.241,1.232-4.249  V29.001h-6.928c-1.943,0-3.551,0.157-4.829,0.466c-1.278,0.303-2.405,1.15-3.372,2.527c-0.97,1.38-1.524,4.253-1.663,7.124h-3.25  v-14h49.871V39.119z"></path></svg>