<svg height='100px' width='100px'  fill="#000000" xmlns="http://www.w3.org/2000/svg" xmlns:xlink="http://www.w3.org/1999/xlink" version="1.1" x="0px" y="0px" viewBox="0 0 100 100" style="enable-background:new 0 0 100 100;" xml:space="preserve"><g><path d="M17.632,23.93c-1.389-0.029-1.436-2.057,0.006-2.085C18.977,21.932,19.002,23.839,17.632,23.93z M17.638,31.664   c-1.442,0.029-1.395,2.056-0.006,2.085C19.002,33.657,18.977,31.75,17.638,31.664z M17.638,36.573   c-1.442,0.028-1.395,2.056-0.006,2.084C19.002,38.566,18.977,36.66,17.638,36.573z M17.638,41.482   c-1.442,0.028-1.395,2.055-0.006,2.084C19.002,43.476,18.977,41.569,17.638,41.482z M17.638,26.755   c-1.442,0.028-1.395,2.055-0.006,2.084C19.002,28.748,18.977,26.842,17.638,26.755z M15.184,34.119   c-1.443,0.028-1.396,2.056-0.007,2.084C16.548,36.112,16.522,34.206,15.184,34.119z M15.184,29.209   c-1.443,0.028-1.396,2.055-0.007,2.084C16.548,31.203,16.522,29.296,15.184,29.209z M17.638,16.936   c-1.442,0.028-1.395,2.056-0.006,2.084C19.002,18.93,18.977,17.023,17.638,16.936z M15.184,14.481   c-1.443,0.029-1.396,2.056-0.007,2.085C16.548,16.475,16.522,14.568,15.184,14.481z M15.184,19.391   c-1.443,0.028-1.396,2.056-0.007,2.085C16.548,21.384,16.522,19.478,15.184,19.391z M15.184,24.3   c-1.443,0.028-1.396,2.055-0.007,2.084C16.548,26.293,16.522,24.387,15.184,24.3z M20.093,29.209   c-1.442,0.028-1.395,2.055-0.006,2.084C21.457,31.203,21.432,29.296,20.093,29.209z M22.547,31.664   c-1.442,0.029-1.395,2.056-0.006,2.085C23.912,33.657,23.886,31.75,22.547,31.664z M22.547,36.573   c-1.442,0.028-1.395,2.056-0.006,2.084C23.912,38.566,23.886,36.66,22.547,36.573z M20.093,14.481   c-1.442,0.029-1.395,2.056-0.006,2.085C21.457,16.475,21.432,14.568,20.093,14.481z M22.547,41.482   c-1.442,0.028-1.395,2.055-0.006,2.084C23.912,43.476,23.886,41.569,22.547,41.482z M22.547,21.845   c-1.442,0.028-1.395,2.056-0.006,2.085C23.912,23.839,23.886,21.932,22.547,21.845z M22.547,26.755   c-1.442,0.028-1.395,2.055-0.006,2.084C23.912,28.748,23.886,26.842,22.547,26.755z M20.093,34.119   c-1.442,0.028-1.395,2.056-0.006,2.084C21.457,36.112,21.432,34.206,20.093,34.119z M20.093,39.028   c-1.442,0.028-1.395,2.056-0.006,2.084C21.457,41.021,21.432,39.115,20.093,39.028z M20.093,19.391   c-1.442,0.028-1.395,2.056-0.006,2.085C21.457,21.384,21.432,19.478,20.093,19.391z M17.638,12.027   c-1.442,0.028-1.395,2.056-0.006,2.084C19.002,14.021,18.977,12.114,17.638,12.027z M15.184,39.028   c-1.443,0.028-1.396,2.056-0.007,2.084C16.548,41.021,16.522,39.115,15.184,39.028z M20.093,24.3   c-1.442,0.028-1.395,2.055-0.006,2.084C21.457,26.293,21.432,24.387,20.093,24.3z M65,45h-5v-5h-5v10h10V45z M7.819,26.755   c-1.442,0.028-1.396,2.055-0.007,2.084C9.184,28.748,9.158,26.842,7.819,26.755z M12.729,12.027   c-1.442,0.028-1.395,2.056-0.007,2.084C14.093,14.021,14.067,12.114,12.729,12.027z M7.819,31.664   c-1.442,0.029-1.396,2.056-0.007,2.085C9.184,33.657,9.158,31.75,7.819,31.664z M7.819,12.027   c-1.442,0.028-1.396,2.056-0.007,2.084C9.184,14.021,9.158,12.114,7.819,12.027z M7.819,16.936   c-1.442,0.028-1.396,2.056-0.007,2.084C9.184,18.93,9.158,17.023,7.819,16.936z M7.819,36.573   c-1.442,0.028-1.396,2.056-0.007,2.084C9.184,38.566,9.158,36.66,7.819,36.573z M60,20h-5v5h5V20z M10.273,39.028   c-1.442,0.028-1.395,2.056-0.006,2.084C11.638,41.021,11.612,39.115,10.273,39.028z M60,10h5V5H55v10h5V10z M60,30h-5v5h5V30z    M22.547,16.936c-1.442,0.028-1.395,2.056-0.006,2.084C23.912,18.93,23.886,17.023,22.547,16.936z M7.819,41.482   c-1.442,0.028-1.396,2.055-0.007,2.084C9.184,43.476,9.158,41.569,7.819,41.482z M7.819,21.845   c-1.442,0.028-1.396,2.056-0.007,2.085C9.184,23.839,9.158,21.932,7.819,21.845z M12.729,31.664   c-1.442,0.029-1.395,2.056-0.007,2.085C14.093,33.657,14.067,31.75,12.729,31.664z M12.729,26.755   c-1.442,0.028-1.395,2.055-0.007,2.084C14.093,28.748,14.067,26.842,12.729,26.755z M12.729,21.845   c-1.442,0.028-1.395,2.056-0.007,2.085C14.093,23.839,14.067,21.932,12.729,21.845z M10.273,34.119   c-1.442,0.028-1.395,2.056-0.006,2.084C11.638,36.112,11.612,34.206,10.273,34.119z M12.729,16.936   c-1.442,0.028-1.395,2.056-0.007,2.084C14.093,18.93,14.067,17.023,12.729,16.936z M12.729,36.573   c-1.442,0.028-1.395,2.056-0.007,2.084C14.093,38.566,14.067,36.66,12.729,36.573z M10.273,24.3   c-1.442,0.028-1.395,2.055-0.006,2.084C11.638,26.293,11.612,24.387,10.273,24.3z M10.273,29.209   c-1.442,0.028-1.395,2.055-0.006,2.084C11.638,31.203,11.612,29.296,10.273,29.209z M10.273,14.481   c-1.442,0.029-1.395,2.056-0.006,2.085C11.638,16.475,11.612,14.568,10.273,14.481z M10.273,19.391   c-1.442,0.028-1.395,2.056-0.006,2.085C11.638,21.384,11.612,19.478,10.273,19.391z M12.729,41.482   c-1.442,0.028-1.395,2.055-0.007,2.084C14.093,43.476,14.067,41.569,12.729,41.482z M32.367,21.845   c-1.442,0.028-1.395,2.056-0.006,2.085C33.731,23.839,33.705,21.932,32.367,21.845z M34.821,14.481   c-1.442,0.029-1.395,2.056-0.006,2.085C36.186,16.475,36.16,14.568,34.821,14.481z M37.276,36.573   c-1.442,0.028-1.395,2.056-0.006,2.084C38.641,38.566,38.615,36.66,37.276,36.573z M32.367,12.027   c-1.442,0.028-1.395,2.056-0.006,2.084C33.731,14.021,33.705,12.114,32.367,12.027z M37.276,16.936   c-1.442,0.028-1.395,2.056-0.006,2.084C38.641,18.93,38.615,17.023,37.276,16.936z M37.276,21.845   c-1.442,0.028-1.395,2.056-0.006,2.085C38.641,23.839,38.615,21.932,37.276,21.845z M37.276,26.755   c-1.442,0.028-1.395,2.055-0.006,2.084C38.641,28.748,38.615,26.842,37.276,26.755z M37.276,31.664   c-1.442,0.029-1.395,2.056-0.006,2.085C38.641,33.657,38.615,31.75,37.276,31.664z M34.821,19.391   c-1.442,0.028-1.395,2.056-0.006,2.085C36.186,21.384,36.16,19.478,34.821,19.391z M34.821,34.119   c-1.442,0.028-1.395,2.056-0.006,2.084C36.186,36.112,36.16,34.206,34.821,34.119z M34.821,39.028   c-1.442,0.028-1.395,2.056-0.006,2.084C36.186,41.021,36.16,39.115,34.821,39.028z M34.821,29.209   c-1.442,0.028-1.395,2.055-0.006,2.084C36.186,31.203,36.16,29.296,34.821,29.209z M34.821,24.3   c-1.442,0.028-1.395,2.055-0.006,2.084C36.186,26.293,36.16,24.387,34.821,24.3z M37.276,41.482   c-1.442,0.028-1.395,2.055-0.006,2.084C38.641,43.476,38.615,41.569,37.276,41.482z M95,35h5v-5h-5V35z M95,45h-5v5h10V40h-5V45z    M90,5v5h5v5h5V5H90z M37.276,12.027c-1.442,0.028-1.395,2.056-0.006,2.084C38.641,14.021,38.615,12.114,37.276,12.027z M95,25h5   v-5h-5V25z M80,10h5V5h-5V10z M45,50H0V5h45V50z M40,11.614c-0.872,0.271-1.769-0.75-1.131-1.614h-3.235   c0.426,0.591,0.166,1.591-0.819,1.657c-0.99-0.021-1.294-1.053-0.868-1.657h-3.223c0.426,0.591,0.166,1.591-0.819,1.657   c-0.989-0.021-1.294-1.053-0.867-1.657h-3.223c0.426,0.591,0.166,1.591-0.819,1.657c-0.99-0.021-1.294-1.053-0.868-1.657h-3.222   c0.425,0.591,0.166,1.591-0.819,1.657c-0.989-0.021-1.293-1.053-0.868-1.657h-3.223c0.426,0.591,0.166,1.591-0.819,1.657   c-0.989-0.021-1.294-1.053-0.867-1.657h-3.223c0.426,0.591,0.166,1.591-0.819,1.657C9.278,11.636,8.974,10.604,9.4,10H6.176   C6.799,10.869,5.902,11.93,5,11.599v2.944c0.583-0.193,1.325,0.12,1.381,0.962C6.363,16.354,5.598,16.698,5,16.51v2.941   c0.583-0.193,1.325,0.12,1.381,0.962C6.363,21.263,5.598,21.607,5,21.419v2.942c0.583-0.193,1.324,0.12,1.381,0.962   C6.363,26.172,5.598,26.517,5,26.329v2.941c0.583-0.193,1.324,0.12,1.381,0.962C6.363,31.082,5.598,31.426,5,31.238v2.941   c0.583-0.193,1.325,0.12,1.381,0.962C6.363,35.991,5.598,36.335,5,36.147v2.941c0.583-0.193,1.324,0.12,1.381,0.962   C6.363,40.9,5.598,41.245,5,41.057v2.938C5.693,43.744,6.403,44.316,6.384,45h2.827c-0.015-0.521,0.332-1.048,1.063-1.063   c0.68,0.044,1.02,0.557,1.011,1.063h2.835c-0.015-0.521,0.332-1.048,1.063-1.063c0.679,0.044,1.019,0.557,1.011,1.063h2.836   c-0.015-0.521,0.332-1.048,1.063-1.063c0.679,0.044,1.019,0.557,1.011,1.063h2.836c-0.015-0.521,0.332-1.048,1.063-1.063   c0.68,0.044,1.02,0.557,1.011,1.063h2.835c-0.015-0.521,0.332-1.048,1.063-1.063c0.679,0.044,1.019,0.557,1.011,1.063h2.836   c-0.015-0.521,0.332-1.048,1.063-1.063c0.68,0.044,1.019,0.557,1.012,1.063h2.828c-0.011-0.665,0.657-1.246,1.339-1.024v-2.914   c-0.592,0.17-1.32-0.156-1.337-1.018c0.052-0.804,0.76-1.13,1.337-0.969v-2.922c-0.592,0.169-1.32-0.156-1.337-1.018   c0.052-0.804,0.76-1.13,1.337-0.969v-2.922c-0.592,0.17-1.32-0.156-1.337-1.018c0.052-0.804,0.76-1.13,1.337-0.969v-2.923   c-0.592,0.17-1.32-0.156-1.337-1.018c0.052-0.804,0.76-1.131,1.337-0.969v-2.922c-0.592,0.17-1.32-0.156-1.337-1.018   c0.052-0.804,0.76-1.131,1.337-0.969v-2.922c-0.592,0.17-1.32-0.156-1.337-1.018c0.052-0.804,0.76-1.131,1.337-0.97V11.614z M50,65   l16.667,10H20v5h46.667L50,90v5l25-15v-5L50,60V65z M70,10h5V5h-5V10z M80,50h5v-5h-5V50z M70,50h5v-5h-5V50z M32.367,16.936   c-1.442,0.028-1.395,2.056-0.006,2.084C33.731,18.93,33.705,17.023,32.367,16.936z M27.457,31.664   c-1.442,0.029-1.395,2.056-0.006,2.085C28.821,33.657,28.796,31.75,27.457,31.664z M27.457,16.936   c-1.442,0.028-1.395,2.056-0.006,2.084C28.821,18.93,28.796,17.023,27.457,16.936z M27.457,41.482   c-1.442,0.028-1.395,2.055-0.006,2.084C28.821,43.476,28.796,41.569,27.457,41.482z M25.002,14.481   c-1.442,0.029-1.395,2.056-0.006,2.085C26.367,16.475,26.341,14.568,25.002,14.481z M27.457,26.755   c-1.442,0.028-1.395,2.055-0.006,2.084C28.821,28.748,28.796,26.842,27.457,26.755z M27.457,21.845   c-1.442,0.028-1.395,2.056-0.006,2.085C28.821,23.839,28.796,21.932,27.457,21.845z M27.457,36.573   c-1.442,0.028-1.395,2.056-0.006,2.084C28.821,38.566,28.796,36.66,27.457,36.573z M25.002,34.119   c-1.442,0.028-1.395,2.056-0.006,2.084C26.367,36.112,26.341,34.206,25.002,34.119z M25.002,39.028   c-1.442,0.028-1.395,2.056-0.006,2.084C26.367,41.021,26.341,39.115,25.002,39.028z M25.002,19.391   c-1.442,0.028-1.395,2.056-0.006,2.085C26.367,21.384,26.341,19.478,25.002,19.391z M25.002,29.209   c-1.442,0.028-1.395,2.055-0.006,2.084C26.367,31.203,26.341,29.296,25.002,29.209z M25.002,24.3   c-1.442,0.028-1.395,2.055-0.006,2.084C26.367,26.293,26.341,24.387,25.002,24.3z M22.547,12.027   c-1.442,0.028-1.395,2.056-0.006,2.084C23.912,14.021,23.886,12.114,22.547,12.027z M29.912,14.481   c-1.443,0.029-1.396,2.056-0.007,2.085C31.276,16.475,31.25,14.568,29.912,14.481z M32.367,36.573   c-1.442,0.028-1.395,2.056-0.006,2.084C33.731,38.566,33.705,36.66,32.367,36.573z M32.367,41.482   c-1.442,0.028-1.395,2.055-0.006,2.084C33.731,43.476,33.705,41.569,32.367,41.482z M32.367,31.664   c-1.442,0.029-1.395,2.056-0.006,2.085C33.731,33.657,33.705,31.75,32.367,31.664z M32.367,26.755   c-1.442,0.028-1.395,2.055-0.006,2.084C33.731,28.748,33.705,26.842,32.367,26.755z M29.912,39.028   c-1.443,0.028-1.396,2.056-0.007,2.084C31.276,41.021,31.25,39.115,29.912,39.028z M29.912,19.391   c-1.443,0.028-1.396,2.056-0.007,2.085C31.276,21.384,31.25,19.478,29.912,19.391z M27.457,12.027   c-1.442,0.028-1.395,2.056-0.006,2.084C28.821,14.021,28.796,12.114,27.457,12.027z M29.912,34.119   c-1.443,0.028-1.396,2.056-0.007,2.084C31.276,36.112,31.25,34.206,29.912,34.119z M29.912,29.209   c-1.443,0.028-1.396,2.055-0.007,2.084C31.276,31.203,31.25,29.296,29.912,29.209z M29.912,24.3   c-1.443,0.028-1.396,2.055-0.007,2.084C31.276,26.293,31.25,24.387,29.912,24.3z"></path></g></svg>