<svg xmlns="http://www.w3.org/2000/svg" xmlns:xlink="http://www.w3.org/1999/xlink" width="100" height="100" viewBox="0 0 100 100"><circle stroke="none" fill="#FFFFFF" r="48%" cx="50%" cy="50%"></circle><g transform="translate(50 50) scale(0.69 0.69) rotate(0) translate(-50 -50)" style="fill:#000000"><svg fill="#000000" xmlns="http://www.w3.org/2000/svg" xmlns:xlink="http://www.w3.org/1999/xlink" version="1.1" x="0px" y="0px" viewBox="0 0 16 16" style="enable-background:new 0 0 16 16;" xml:space="preserve"><path d="M14,3c0-1.103-0.897-2-2-2s-2,0.897-2,2c0,0.737,0.405,1.375,1,1.722v1.16l-3,1.5l-3-1.5v-1.16C5.595,4.375,6,3.737,6,3  c0-1.103-0.897-2-2-2S2,1.897,2,3c0,0.737,0.405,1.375,1,1.722V6.5c0,0.379,0.214,0.725,0.553,0.895L7,9.118v2.16  C6.405,11.625,6,12.263,6,13c0,1.103,0.897,2,2,2c1.103,0,2-0.897,2-2c0-0.737-0.405-1.375-1-1.722v-2.16l3.447-1.724  C12.786,7.225,13,6.879,13,6.5V4.722C13.595,4.375,14,3.737,14,3z M4,2c0.551,0,1,0.449,1,1S4.551,4,4,4S3,3.551,3,3S3.449,2,4,2z   M8,14c-0.551,0-1-0.448-1-1s0.449-1,1-1s1,0.448,1,1S8.551,14,8,14z M12,4c-0.552,0-1-0.449-1-1s0.448-1,1-1s1,0.449,1,1  S12.552,4,12,4z"></path></svg></g></svg>