<svg xmlns="http://www.w3.org/2000/svg" data-name="Layer 1" viewBox="0 0 100 100" x="0px" y="0px"><title>48</title><g data-name="Group"><path data-name="Compound Path" d="M79.7,22.9A42.4,42.4,0,0,0,48.5,10.5,42,42,0,0,0,18.1,24.8C3.8,41,4.8,67.7,20.4,83.3l.3.3A11.1,11.1,0,0,0,36.4,67.9a3.9,3.9,0,1,1,6-4.6l.2.3a5.5,5.5,0,0,1,.2,4.9,12.8,12.8,0,0,0,2.8,13.9,24.4,24.4,0,0,0,33.8.6l.2-.2h0l.4-.4h.1A42.4,42.4,0,0,0,79.7,22.9Zm-4,55.3a18.4,18.4,0,0,1-25.8-.2,6.8,6.8,0,0,1-1.5-7.4,11.4,11.4,0,0,0-.6-10.3l-.2-.3a10.1,10.1,0,0,0-8.6-5l-1.7.2a9.9,9.9,0,0,0-5.1,16.8,5.1,5.1,0,1,1-7.2,7.2l-.3-.3C11.2,65.6,10.3,42.6,22.6,28.8A36.3,36.3,0,1,1,75.7,78.3Z"></path><path data-name="Compound Path" d="M25.4,30.6a9.3,9.3,0,1,0,13.1,0A9.3,9.3,0,0,0,25.4,30.6Zm8.9,8.9a3.4,3.4,0,0,1-4.7,0,3.3,3.3,0,1,1,4.7,0Z"></path><path data-name="Compound Path" d="M59.3,23.3a9.3,9.3,0,1,0,2.7,6.6A9.3,9.3,0,0,0,59.3,23.3Zm-4.2,8.9a3.4,3.4,0,0,1-4.7,0,3.3,3.3,0,1,1,4.7,0Z"></path><path data-name="Compound Path" d="M70.5,52a9.3,9.3,0,1,0-6.6-2.7A9.3,9.3,0,0,0,70.5,52ZM68.1,40.4a3.3,3.3,0,1,1,4.7,4.7,3.4,3.4,0,0,1-4.7,0,3.3,3.3,0,0,1,0-4.7Z"></path><path data-name="Compound Path" d="M77.1,58.1a9.3,9.3,0,1,0,0,13.1A9.3,9.3,0,0,0,77.1,58.1ZM72.9,67a3.3,3.3,0,1,1,1-2.3A3.3,3.3,0,0,1,72.9,67Z"></path></g></svg>