<svg xmlns="http://www.w3.org/2000/svg" xmlns:xlink="http://www.w3.org/1999/xlink" version="1.1" x="0px" y="0px" viewBox="0 0 100 100" enable-background="new 0 0 100 100" xml:space="preserve"><g><path fill="#000000" d="M52.5,86.2c-10.6,0-20.7-4.3-28.1-11.6l11.1,2L7.8,46L6.1,87.3l8.5-10.1c9.3,11.3,23.2,18,37.9,18   c10.7,0,20.9-3.4,29.5-9.8l-5.4-7.1C69.6,83.4,61.3,86.2,52.5,86.2z"></path><path fill="#000000" d="M85.9,23.8c-9.3-11.3-23.2-18-37.9-18c-10.7,0-20.9,3.4-29.5,9.8l5.4,7.1c7-5.3,15.3-8,24.1-8   c10.6,0,20.7,4.3,28.1,11.6l-11.1-2l27.7,30.7l1.7-41.3L85.9,23.8z"></path></g></svg>