<svg xmlns:dc="http://purl.org/dc/elements/1.1/" xmlns:cc="http://creativecommons.org/ns#" xmlns:rdf="http://www.w3.org/1999/02/22-rdf-syntax-ns#" xmlns:svg="http://www.w3.org/2000/svg" xmlns="http://www.w3.org/2000/svg" xmlns:sodipodi="http://sodipodi.sourceforge.net/DTD/sodipodi-0.dtd" xmlns:inkscape="http://www.inkscape.org/namespaces/inkscape" version="1.1" x="0px" y="0px" viewBox="0 0 100 100"><g transform="translate(0,-952.36218)"><path d="m 94.000005,980.23718 c 0,-12.0849 -9.7589,-21.875 -21.8438,-21.875 l -44.28121,0 c -12.0849,0 -21.875,9.7901 -21.875,21.875 l 0,44.25002 c 0,12.0849 9.7901,21.875 21.875,21.875 l 44.28121,0 c 12.0849,0 21.8438,-9.7901 21.8438,-21.875 l 0,-44.25002 z m -3.7188,0 0,44.25002 c 0,10.0751 -8.0499,18.125 -18.125,18.125 l -44.28121,0 c -10.0751,0 -18.125,-8.0499 -18.125,-18.125 l 0,-44.25002 c 0,-10.0751 8.0499,-18.125 18.125,-18.125 l 44.28121,0 c 10.0751,0 18.125,8.0499 18.125,18.125 z m -27.25001,29.06252 a 1.9987079,1.995466 0 0 0 -3.5,-1.25 l -7.5312,8.1562 0,-32.75002 a 1.9987079,1.995466 0 0 0 0,-0.1875 2.0022032,1.9989557 0 1 0 -4,0.1875 l 0,32.75002 -7.5,-8.1562 a 2.0037413,2.0004913 0 1 0 -2.9688,2.6875 l 11,11.9687 a 1.9987079,1.995466 0 0 0 2.9688,0 l 11,-11.9687 a 1.9987079,1.995466 0 0 0 0.5312,-1.4375 z" style="text-indent:0;text-transform:none;direction:ltr;block-progression:tb;baseline-shift:baseline;color:#000000;enable-background:accumulate;" fill="#000000" fill-opacity="1" stroke="none" marker="none" visibility="visible" display="inline" overflow="visible"></path></g></svg>