<svg xmlns="http://www.w3.org/2000/svg" xmlns:xlink="http://www.w3.org/1999/xlink" version="1.1" x="0px" y="0px" viewBox="0 0 100 100" style="enable-background:new 0 0 100 100;" xml:space="preserve"><g><path d="M39,5.7H14.7c-5,0-9,4-9,9V39c0,5,4,9,9,9H39c5,0,9-4,9-9V14.7C48,9.7,44,5.7,39,5.7z M44,39c0,2.8-2.2,5-5,5H14.7   c-2.8,0-5-2.2-5-5V14.7c0-2.8,2.2-5,5-5H39c2.8,0,5,2.2,5,5V39z"></path><path d="M85.3,5.7H61c-5,0-9,4-9,9V39c0,5,4,9,9,9h24.3c5,0,9-4,9-9V14.7C94.3,9.7,90.3,5.7,85.3,5.7z M90.3,39c0,2.8-2.2,5-5,5H61   c-2.8,0-5-2.2-5-5V14.7c0-2.8,2.2-5,5-5h24.3c2.8,0,5,2.2,5,5V39z"></path><path d="M39,52.3H14.7c-5,0-9,4-9,9v24.3c0,5,4,9,9,9H39c5,0,9-4,9-9V61.3C48,56.3,44,52.3,39,52.3z M44,85.6c0,2.8-2.2,5-5,5H14.7   c-2.8,0-5-2.2-5-5V61.3c0-2.8,2.2-5,5-5H39c2.8,0,5,2.2,5,5V85.6z"></path><path d="M85.3,52.3H61c-5,0-9,4-9,9v24.3c0,5,4,9,9,9h24.3c5,0,9-4,9-9V61.3C94.3,56.3,90.3,52.3,85.3,52.3z M90.3,85.6   c0,2.8-2.2,5-5,5H61c-2.8,0-5-2.2-5-5V61.3c0-2.8,2.2-5,5-5h24.3c2.8,0,5,2.2,5,5V85.6z"></path></g></svg>