<svg xmlns:dc="http://purl.org/dc/elements/1.1/" xmlns:cc="http://creativecommons.org/ns#" xmlns:rdf="http://www.w3.org/1999/02/22-rdf-syntax-ns#" xmlns:svg="http://www.w3.org/2000/svg" xmlns="http://www.w3.org/2000/svg" xmlns:sodipodi="http://sodipodi.sourceforge.net/DTD/sodipodi-0.dtd" xmlns:inkscape="http://www.inkscape.org/namespaces/inkscape" viewBox="0 0 446.87219 837.49993" version="1.1" x="0px" y="0px"><g transform="translate(1565.9708,-1708.6006)"><path style="" d="m -1553.8068,2533.8906 c -6.6902,-6.7154 -12.164,-12.763 -12.164,-13.439 0,-0.676 87.75,-88.9778 195,-196.2261 107.25,-107.2484 195,-195.5609 195,-196.25 0,-0.6892 -87.75,-89.0017 -195,-196.25 -107.25,-107.2484 -195,-195.852 -195,-196.897 0,-2.4459 23.8236,-26.228 26.2737,-26.228 1.0198,0 96.0716,94.2187 211.2263,209.375 l 209.3722,209.375 -209.3722,209.375 c -115.1547,115.1562 -210.2272,209.375 -211.2721,209.375 -1.0449,0 -7.3736,-5.4945 -14.0639,-12.2099 z" fill="#000000"></path></g></svg>