<svg xmlns="http://www.w3.org/2000/svg" xmlns:xlink="http://www.w3.org/1999/xlink" version="1.1" x="0px" y="0px" viewBox="0 0 30 30" xml:space="preserve"><g transform="translate(-150 -440)"><g xmlns="http://www.w3.org/2000/svg" xmlns:xlink="http://www.w3.org/1999/xlink"><path d="M159,452h1c0,0,0-2,1-2s3,0,3,0v9c0,0,0,1-1,1s-1,0-1,0v1h3h3v-1c0,0,0,0-1,0s-1-1-1-1v-9c0,0,2,0,3,0s1,2,1,2h1v-3h-12    V452z"></path><polygon points="155,445 156,445 156,444 154,444 154,446 155,446   "></polygon><polygon points="154,466 156,466 156,465 155,465 155,464 154,464   "></polygon><rect x="154" y="448" width="1" height="2"></rect><rect x="154" y="452" width="1" height="2"></rect><rect x="154" y="456" width="1" height="2"></rect><rect x="154" y="460" width="1" height="2"></rect><polygon points="174,466 176,466 176,464 175,464 175,465 174,465   "></polygon><polygon points="176,444 174,444 174,445 175,445 175,446 176,446   "></polygon><rect x="175" y="460" width="1" height="2"></rect><rect x="175" y="456" width="1" height="2"></rect><rect x="175" y="452" width="1" height="2"></rect><rect x="175" y="448" width="1" height="2"></rect><rect x="158" y="465" width="2" height="1"></rect><rect x="162" y="465" width="2" height="1"></rect><rect x="166" y="465" width="2" height="1"></rect><rect x="170" y="465" width="2" height="1"></rect><rect x="158" y="444" width="2" height="1"></rect><rect x="162" y="444" width="2" height="1"></rect><rect x="166" y="444" width="2" height="1"></rect><rect x="170" y="444" width="2" height="1"></rect></g></g></svg>