<svg xmlns:dc="http://purl.org/dc/elements/1.1/" xmlns:cc="http://creativecommons.org/ns#" xmlns:rdf="http://www.w3.org/1999/02/22-rdf-syntax-ns#" xmlns:svg="http://www.w3.org/2000/svg" xmlns="http://www.w3.org/2000/svg" xmlns:sodipodi="http://sodipodi.sourceforge.net/DTD/sodipodi-0.dtd" xmlns:inkscape="http://www.inkscape.org/namespaces/inkscape" version="1.1" x="0px" y="0px" viewBox="0 0 100 100"><g transform="translate(0,-952.36218)"><path style="text-indent:0;text-transform:none;direction:ltr;block-progression:tb;baseline-shift:baseline;color:#000000;enable-background:accumulate;" d="m 27.875,1046.3622 c -12.08486,0 -21.8750005,-9.7589 -21.8750005,-21.8438 l 0,-44.28122 c 0,-12.0849 9.7901405,-21.875 21.8750005,-21.875 l 44.25,0 c 12.084861,0 21.875,9.7901 21.875,21.875 l 0,44.28122 c 0,12.0849 -9.790139,21.8438 -21.875,21.8438 l -44.250001,0 z m 0,-3.7188 44.25,0 c 10.07508,0 18.125,-8.0499 18.125,-18.125 l 0,-44.28122 c 0,-10.0751 -8.04992,-18.125 -18.125,-18.125 l -44.250001,0 c -0.62969,0 -1.2626,0.032 -1.875,0.094 -9.186,0.9212 -16.2499995,8.5858 -16.2499995,18.0312 l 0,44.28122 c 0,0.6297 0.0323,1.2626 0.0937,1.875 0.9212895,9.1861 8.5858595,16.25 18.0312495,16.25 z m 15,-27.25 a 1.995466,1.9987079 0 0 1 -1.25,-0.5312 l -11.84375,-10.9062 -0.125,-0.094 a 1.9989557,2.0022032 0 0 1 0,-0.031 1.995466,1.9987079 0 0 1 -0.0937,-0.063 1.9989557,2.0022032 0 0 1 -0.0625,-0.094 1.995466,1.9987079 0 0 1 -0.125,-0.1563 1.995466,1.9987079 0 0 1 -0.0625,-0.062 1.9989557,2.0022032 0 0 1 -0.0312,-0.094 1.995466,1.9987079 0 0 1 -0.0625,-0.094 1.9989557,2.0022032 0 0 1 -0.0312,-0.094 1.995466,1.9987079 0 0 1 -0.0625,-0.094 1.9989557,2.0022032 0 0 1 -0.0312,-0.094 1.995466,1.9987079 0 0 1 -0.0312,-0.094 1.9989557,2.0022032 0 0 1 0,-0.094 1.995466,1.9987079 0 0 1 -0.0312,-0.094 1.9989557,2.0022032 0 0 1 0,-0.094 1.995466,1.9987079 0 0 1 -0.0312,-0.094 1.9989557,2.0022032 0 0 1 0,-0.094 1.995466,1.9987079 0 0 1 0,-0.125 1.9989557,2.0022032 0 0 1 0,-0.094 1.995466,1.9987079 0 0 1 0.0312,-0.094 1.9989557,2.0022032 0 0 1 0,-0.094 1.995466,1.9987079 0 0 1 0.0312,-0.125 1.9989557,2.0022032 0 0 1 0.0312,-0.094 1.995466,1.9987079 0 0 1 0,-0.094 1.9989557,2.0022032 0 0 1 0.0625,-0.094 1.995466,1.9987079 0 0 1 0.0625,-0.125 1.9989557,2.0022032 0 0 1 0,-0.031 1.995466,1.9987079 0 0 1 0.0625,-0.094 1.9989557,2.0022032 0 0 1 0.0625,-0.1562 1.995466,1.9987079 0 0 1 0.0312,-0.031 1.9989557,2.0022032 0 0 1 0.0625,-0.062 1.995466,1.9987079 0 0 1 0.0625,-0.062 1.9989557,2.0022032 0 0 1 0.0625,-0.094 1.995466,1.9987079 0 0 1 0.0937,-0.063 1.9989557,2.0022032 0 0 1 0.21875,-0.1874 l 11.75,-10.81262 a 2.0004913,2.0037413 0 1 1 2.6875,2.9688 l -8.15625,7.50002 27.6875,0 -8.15625,-7.50002 a 2.0004913,2.0037413 0 1 1 2.6875,-2.9688 l 11.75,10.81262 a 1.9989557,2.0022032 0 0 1 0.125,0.094 l 0.0937,0.094 a 1.995466,1.9987079 0 0 1 0.21875,0.2188 1.9989557,2.0022032 0 0 1 0.0937,0.094 1.995466,1.9987079 0 0 1 0.15625,0.3124 1.9989557,2.0022032 0 0 1 0.0625,0.094 1.995466,1.9987079 0 0 1 0.0312,0.062 1.9989557,2.0022032 0 0 1 0,0.062 1.995466,1.9987079 0 0 1 0.0937,0.5625 1.9989557,2.0022032 0 0 1 -0.375,1.2187 1.995466,1.9987079 0 0 1 -0.125,0.1563 1.9989557,2.0022032 0 0 1 -0.28125,0.2813 l -11.84375,10.9062 a 1.995466,1.9987079 0 0 1 -1.4375,0.5312 1.995466,1.9987079 0 0 1 -1.25,-3.5 l 8.15625,-7.5312 -27.6875,0 8.15625,7.5312 a 1.995466,1.9987079 0 0 1 -1.25,3.5 1.995466,1.9987079 0 0 1 -0.1875,0 z" fill="#000000" fill-opacity="1" stroke="none" marker="none" visibility="visible" display="inline" overflow="visible"></path></g></svg>