<svg xmlns:dc="http://purl.org/dc/elements/1.1/" xmlns:cc="http://creativecommons.org/ns#" xmlns:rdf="http://www.w3.org/1999/02/22-rdf-syntax-ns#" xmlns:svg="http://www.w3.org/2000/svg" xmlns="http://www.w3.org/2000/svg" xmlns:sodipodi="http://sodipodi.sourceforge.net/DTD/sodipodi-0.dtd" xmlns:inkscape="http://www.inkscape.org/namespaces/inkscape" version="1.1" x="0px" y="0px" viewBox="0 0 100 100"><g transform="translate(0,-952.36218)"><path d="m 72.125,958.36218 c 12.08486,0 21.875,9.7589 21.875,21.8438 l 0,44.28122 c 0,12.0849 -9.79014,21.875 -21.875,21.875 l -44.25,0 C 15.79014,1046.3622 6,1036.5721 6,1024.4872 l 0,-44.28122 c 0,-12.0849 9.79014,-21.8438 21.875,-21.8438 l 44.25,0 z m 0,3.7188 -44.25,0 c -10.07508,0 -18.125,8.0499 -18.125,18.125 l 0,44.28122 c 0,10.0751 8.04992,18.125 18.125,18.125 l 44.25,0 c 10.07508,0 18.125,-8.0499 18.125,-18.125 l 0,-44.28122 c 0,-10.0751 -8.04992,-18.125 -18.125,-18.125 z m -29.0625,27.25 a 1.995466,1.9987079 0 0 1 1.25,3.5 l -8.15625,7.53122 32.75,0 a 1.995466,1.9987079 0 0 1 0.1875,0 1.9989557,2.0022032 0 1 1 -0.1875,4 l -32.75,0 8.15625,7.5 a 2.0004913,2.0037413 0 1 1 -2.6875,2.9688 l -11.96875,-11 a 1.995466,1.9987079 0 0 1 0,-2.9688 L 41.625,989.86218 a 1.995466,1.9987079 0 0 1 1.4375,-0.5312 z" style="text-indent:0;text-transform:none;direction:ltr;block-progression:tb;baseline-shift:baseline;color:#000000;enable-background:accumulate;" fill="#000000" fill-opacity="1" stroke="none" marker="none" visibility="visible" display="inline" overflow="visible"></path></g></svg>