<?xml version="1.0" encoding="UTF-8"?>
<svg width="1200pt" height="1200pt" version="1.1" viewBox="0 0 1200 1200" xmlns="http://www.w3.org/2000/svg">
 <g>
  <path d="m948 108h-696c-99.602 0-180 80.398-180 180v672c0 73.199 58.801 132 132 132h792c73.199 0 132-58.801 132-132v-672c0-99.602-80.398-180-180-180zm-696 72h696c60 0 108 48 108 108v39.602h-912v-39.602c0-60 48-108 108-108zm744 840h-792c-33.602 0-60-26.398-60-60v-560.4h912v560.4c0 33.602-26.398 60-60 60z"/>
  <path d="m417.6 531.6-180 144c-15.602 12-18 34.801-6 50.398 1.1992 2.3984 3.6016 3.6016 6 6l180 144 45.602-56.398-145.2-116.4 144-115.2z"/>
  <path d="m774 531.6-45.602 56.398 145.2 116.4-145.2 116.4 45.602 56.398 180-144c15.602-12 18-34.801 6-50.398-1.1992-2.3984-3.6016-3.6016-6-6z"/>
  <path d="m687.16 465.23-127.97 499.9-69.754-17.855 127.97-499.9z"/>
 </g>
</svg>
