<?xml version="1.0" encoding="UTF-8"?>
<svg width="1200pt" height="1200pt" version="1.1" viewBox="0 0 1200 1200" xmlns="http://www.w3.org/2000/svg">
 <g>
  <path d="m1048.8 362.4h-132v165.6c0 104.4-85.199 189.6-189.6 189.6h-288l-84 75.602c14.398 51.602 61.199 90 117.6 90h313.2l198 180c19.199 18 50.398 2.3984 48-24l-12-156h27.602c67.199 0 121.2-55.199 121.2-121.2v-277.2c1.1992-67.199-54-122.4-120-122.4z"/>
  <path d="m726 650.4c67.199 0 121.2-55.199 121.2-121.2v-278.4c0-67.199-55.199-121.2-121.2-121.2h-574.8c-67.199 0-121.2 55.199-121.2 121.2v278.4c0 67.199 55.199 121.2 121.2 121.2h27.602l-12 156c-2.3984 26.398 28.801 40.801 48 24l198-178.8 313.2 0.003906zm-79.199-321.6c33.602 0 61.199 27.602 61.199 61.199 0 33.602-27.602 61.199-61.199 61.199-33.602 0-61.199-27.602-61.199-61.199-1.2031-33.602 26.398-61.199 61.199-61.199zm-415.2 122.4c-33.602 0-61.199-27.602-61.199-61.199 0-33.602 27.602-61.199 61.199-61.199 33.602 0 61.199 27.602 61.199 61.199 0 33.602-27.602 61.199-61.199 61.199zm146.4-61.199c0-33.602 27.602-61.199 61.199-61.199 33.602 0 61.199 27.602 61.199 61.199 0 33.602-27.602 61.199-61.199 61.199-33.598 0-61.199-27.598-61.199-61.199z"/>
 </g>
</svg>
