<?xml version="1.0" encoding="UTF-8"?>
<svg width="1200pt" height="1200pt" version="1.1" viewBox="0 0 1200 1200" xmlns="http://www.w3.org/2000/svg">
 <g>
  <path d="m600 320c-154.39 0-280 125.61-280 280s125.61 280 280 280 280-125.61 280-280-125.61-280-280-280zm0 520c-132.34 0-240-107.67-240-240s107.66-240 240-240 240 107.67 240 240-107.66 240-240 240z"/>
  <path d="m898.85 399.87 52.832-70.449-81.094-81.105-70.469 52.84c-39.336-26.336-83.867-44.773-130.31-53.953l-12.461-87.203h-114.69l-12.461 87.207c-46.445 9.1797-90.977 27.617-130.31 53.953l-70.469-52.84-81.094 81.105 52.832 70.449c-26.309 39.316-44.766 83.859-53.945 130.32l-87.207 12.457v114.69l87.207 12.461c9.1797 46.465 27.637 91.008 53.945 130.32l-52.832 70.449 81.094 81.105 70.469-52.84c39.336 26.336 83.867 44.773 130.31 53.953l12.461 87.203h114.69l12.461-87.207c46.445-9.1797 90.977-27.617 130.31-53.953l70.469 52.84 81.094-81.105-52.832-70.449c26.309-39.316 44.766-83.859 53.945-130.32l87.207-12.457v-114.69l-87.207-12.461c-9.1797-46.465-27.637-91.004-53.945-130.32zm101.15 222.79-81.895 11.699-2.2656 14.66c-7.7734 50.352-27.754 98.652-57.832 139.7l-8.7695 11.953 49.629 66.164-32.031 32.043-66.172-49.617-11.953 8.7617c-41.074 30.078-89.375 50.078-139.71 57.832l-14.648 2.2578-11.699 81.891h-45.312l-11.699-81.902-14.648-2.2578c-50.332-7.7539-98.633-27.754-139.71-57.832l-11.953-8.7617-66.172 49.617-32.031-32.043 49.629-66.164-8.7695-11.953c-30.078-41.047-50.059-89.348-57.832-139.7l-2.2656-14.66-81.895-11.688v-45.312l81.895-11.699 2.2656-14.66c7.7734-50.352 27.754-98.652 57.832-139.7l8.7695-11.953-49.629-66.164 32.031-32.043 66.172 49.617 11.953-8.7617c41.074-30.078 89.375-50.078 139.71-57.832l14.648-2.2578 11.699-81.891h45.312l11.699 81.902 14.648 2.2578c50.332 7.7539 98.633 27.754 139.71 57.832l11.953 8.7617 66.172-49.617 32.031 32.043-49.629 66.164 8.7695 11.953c30.078 41.047 50.059 89.348 57.832 139.7l2.2656 14.66 81.895 11.688z"/>
  <path d="m514.14 525.86c-7.8125-7.8125-20.469-7.8125-28.281 0l-60 60c-7.8125 7.8125-7.8125 20.469 0 28.281l60 60c3.9062 3.9062 9.0234 5.8594 14.141 5.8594s10.234-1.9531 14.141-5.8594c7.8125-7.8125 7.8125-20.469 0-28.281l-45.859-45.859 45.859-45.859c7.8125-7.8125 7.8125-20.469 0-28.281z"/>
  <path d="m685.86 525.86c-7.8125 7.8125-7.8125 20.469 0 28.281l45.859 45.859-45.859 45.859c-7.8125 7.8125-7.8125 20.469 0 28.281 3.9062 3.9062 9.0234 5.8594 14.141 5.8594s10.234-1.9531 14.141-5.8594l60-60c7.8125-7.8125 7.8125-20.469 0-28.281l-60-60c-7.8125-7.8125-20.469-7.8125-28.281 0z"/>
  <path d="m668.95 462.11c-9.8828-4.9297-21.895-0.9375-26.836 8.9453l-120 240c-4.9414 9.8828-0.9375 21.895 8.9453 26.836 2.8711 1.4375 5.918 2.1094 8.9258 2.1094 7.3438 0 14.395-4.043 17.91-11.055l120-240c4.9414-9.8828 0.9375-21.895-8.9453-26.836z"/>
 </g>
</svg>
