<?xml version="1.0" encoding="UTF-8"?>
<svg width="1200pt" height="1200pt" version="1.1" viewBox="0 0 1200 1200" xmlns="http://www.w3.org/2000/svg">
 <g>
  <path d="m446.39 470.39-3.6094 57.609 58.781 57.609 84-85.219-60-58.781-62.391 7.2188c-9.5625 2.3906-16.781 9.5625-16.781 21.562z"/>
  <path d="m684 600 50.391-48-2.3906-60c0-10.781-7.2188-19.219-18-20.391l-61.219-8.3906-51.609 50.391-85.172 87.609-55.219 54 48 8.3906c20.391 3.6094 33.609 20.391 33.609 40.781v38.391l55.219-54z"/>
  <path d="m752.39 492 1.2188 40.781 24-22.781c43.219-42 108-49.219 159.61-22.781l70.781 1.2188c10.781 0 19.219-7.2188 21.609-16.781l10.781-57.609c-98.391-85.219-250.78-81.609-345.61 10.781l-22.781 21.609 45.609 6c19.172 2.3438 33.609 17.953 34.781 39.562z"/>
  <path d="m193.22 486 69.609 1.2188c20.391-10.781 43.219-16.781 66-16.781 34.781 0 68.391 13.219 94.781 38.391l1.2188 1.2188 2.3906-40.781c1.2188-20.391 15.609-36 36-38.391l45.609-4.7812-1.2188-1.2188c-93.609-91.219-242.39-96-342-13.219l8.3906 57.609c0 9.5156 8.3906 16.734 19.219 16.734z"/>
  <path d="m505.22 681.61-61.219-10.828-20.391 20.391c-45.609 44.391-115.22 50.391-166.78 18l-3.6094 38.391c-1.2188 20.391-16.781 36-37.219 37.219l-50.391 3.6094c46.781 39.609 105.61 58.781 163.22 58.781 64.781 0 129.61-24 178.78-72l15.609-15.609v-57.609c0-9.5625-7.2188-17.953-18-20.344z"/>
  <path d="m780 693.61c-1.2188-1.2188-2.3906-1.2188-3.6094-2.3906l-79.219-76.781-84 85.219 79.219 78c1.2188 1.2188 2.3906 1.2188 2.3906 2.3906l4.7812-45.609c2.3906-20.391 18-36 38.391-36z"/>
  <path d="m974.39 730.78-4.7812-44.391-3.6094 3.6094c-43.219 43.219-110.39 49.219-162 21.609l-64.781 3.6094c-10.781 0-18 8.3906-19.219 19.219l-6 60c45.609 36 102 54 157.22 54 64.781 0 129.61-24 178.78-72 2.3906-2.3906 3.6094-3.6094 4.7812-6l-42-2.4375c-20.391-1.2188-36-16.781-38.391-37.219z"/>
  <path d="m1056 429.61-8.3906 44.391c-3.6094 20.391-20.391 33.609-40.781 33.609l-42-1.2188 2.3906 2.3906c25.219 24 38.391 56.391 38.391 91.219 0 22.781-6 44.391-16.781 63.609l6 66c1.2188 10.781 8.3906 18 19.219 19.219l57.609 3.6094c33.609-43.219 52.781-96 52.781-151.22-0.046875-64.828-24.047-124.82-68.438-171.61z"/>
  <path d="m234 746.39 4.7812-51.609c-1.2188-1.2188-3.6094-2.3906-4.7812-3.6094-25.219-24-38.391-56.391-38.391-91.219 0-34.781 13.219-66 38.391-91.219l2.3906-2.3906-44.391 0.046875c-20.391 0-37.219-14.391-39.609-34.781l-6-44.391c-45.609 46.781-72 108-72 172.78 0 64.777 25.219 124.78 69.609 171.61l69.609-6c10.781-1.2188 19.172-8.3906 20.391-19.219z"/>
 </g>
</svg>
