<?xml version="1.0" encoding="UTF-8"?>
<svg width="1200pt" height="1200pt" version="1.1" viewBox="0 0 1200 1200" xmlns="http://www.w3.org/2000/svg">
 <g>
  <path d="m1120.8 30h-202.8c-27.602 0-49.199 21.602-49.199 49.199 0 27.602 21.602 49.199 49.199 49.199h82.801l-313.2 313.2c-19.199 19.199-19.199 50.398 0 69.602 9.6016 9.6016 22.801 14.398 34.801 14.398s25.199-4.8008 34.801-14.398l313.2-313.2v82.801c0 27.602 21.602 49.199 49.199 49.199 27.602 0 49.199-21.602 49.199-49.199v-201.61c1.1992-27.598-20.402-49.199-48-49.199z"/>
  <path d="m282 1071.6h-82.801l313.2-313.2c19.199-19.199 19.199-50.398 0-69.602-19.199-19.199-50.398-19.199-69.602 0l-314.4 312v-82.801c0-27.602-21.602-49.199-49.199-49.199-27.602 0-49.199 21.602-49.199 49.199v202.8c0 27.602 21.602 49.199 49.199 49.199h202.8c27.602 0 49.199-21.602 49.199-49.199 0-27.602-21.598-49.199-49.199-49.199z"/>
  <path d="m1120.8 868.8c-27.602 0-49.199 21.602-49.199 49.199v82.801l-313.2-313.2c-19.199-19.199-50.398-19.199-69.602 0-19.199 19.199-19.199 50.398 0 69.602l313.2 313.2h-82.801c-27.602 0-49.199 21.602-49.199 49.199 0 27.602 21.602 49.199 49.199 49.199h202.8c27.602 0 49.199-21.602 49.199-49.199l0.003907-201.6c-1.1992-27.602-22.801-49.199-50.398-49.199z"/>
  <path d="m1004.4 808.8c32.398-62.398 51.602-133.2 51.602-208.8s-19.199-146.4-51.602-208.8l-74.398 74.398c16.801 42 26.398 86.398 26.398 134.4s-9.6016 92.398-26.398 134.4z"/>
  <path d="m195.6 391.2c-32.398 62.398-51.602 133.2-51.602 208.8s19.199 146.4 51.602 208.8l74.398-74.398c-16.801-42-26.398-86.398-26.398-134.4s9.6016-92.398 26.398-134.4z"/>
  <path d="m600 243.6c48 0 92.398 9.6016 134.4 26.398l74.398-74.398c-62.398-32.398-133.2-51.602-208.8-51.602-75.602 0-146.4 19.199-208.8 51.602l74.398 74.398c42.008-16.801 86.406-26.398 134.41-26.398z"/>
  <path d="m600 956.4c-48 0-92.398-9.6016-134.4-26.398l-74.398 74.398c62.398 32.398 133.2 51.602 208.8 51.602 75.602 0 146.4-19.199 208.8-51.602l-74.398-74.398c-42.008 16.801-86.406 26.398-134.41 26.398z"/>
  <path d="m79.199 331.2c27.602 0 49.199-21.602 49.199-49.199v-82.801l313.2 313.2c9.6016 9.6016 22.801 14.398 34.801 14.398s25.199-4.8008 34.801-14.398c19.199-19.199 19.199-50.398 0-69.602l-312-314.4h82.801c27.602 0 49.199-21.602 49.199-49.199 0-27.602-21.602-49.199-49.199-49.199h-202.8c-27.602 0-49.199 21.602-49.199 49.199v202.8c0 27.602 21.602 49.199 49.199 49.199z"/>
 </g>
</svg>
