<?xml version="1.0" encoding="UTF-8"?>
<svg width="1200pt" height="1200pt" version="1.1" viewBox="0 0 1200 1200" xmlns="http://www.w3.org/2000/svg">
 <path d="m625.41 222.21c15.172-33.488 29.727-65.934 44.652-98.207 2.4609-5.3242 2.3516-9.2461-0.72656-14.332-20.234-33.418-40.117-67.055-60.094-100.63-1.4375-2.418-2.6836-4.9492-4.8867-9.0352 16.234 0.82031 31.148 1.082 45.961 2.3984 108.18 9.6094 207.43 44.508 295.48 108.28 133.7 96.832 215.89 226.6 244.32 389.72 1.5312 8.7852 5.3047 19.164 2.1797 26.195-2.9219 6.5664-13.547 9.8242-20.949 14.262-28.801 17.246-57.75 34.254-86.434 51.695-5.0898 3.0977-9.0234 3.25-14.387 0.76172-28.863-13.398-57.836-26.57-86.973-39.367-6.9844-3.0664-10.348-6.9883-11.742-14.832-21.73-122.07-87.457-212.98-195.6-273.02-43.785-24.305-91.184-37.918-141.11-42.52-2.8477-0.26172-5.6719-0.78906-9.6992-1.3633zm-403.25 351.11c-33.246-15.051-65.711-29.555-97.957-44.523-5.707-2.6523-9.8633-2.2852-15.117 0.89062-33.199 20.051-66.59 39.785-99.926 59.613-2.4531 1.457-4.9648 2.8242-9.1641 5.2031 0.74609-15.582 0.99609-29.855 2.1836-44.051 6.5312-78.18 25.973-153.05 62.918-222.33 93.766-175.82 238.34-283.37 435.01-319.47 8.7773-1.6133 19.309-5.543 26.184-2.3242 6.8164 3.1875 10.234 13.938 14.809 21.574 17.25 28.797 34.516 57.59 51.309 86.652 1.9219 3.3203 2.4922 9.043 0.99219 12.465-13.473 30.738-27.617 61.172-41.355 91.793-1.9688 4.3945-4.3242 6.4492-9.3906 7.2695-93.113 15.113-170.74 58.293-231.76 130.25-50.871 59.992-79.938 129.52-87.445 207.93-0.26562 2.7969-0.78906 5.5742-1.2891 9.0547zm977.84 32.898c-3.1016 29.84-4.6055 59.953-9.5742 89.48-27.777 165.21-111 296.35-246.66 393.89-76.98 55.348-163.21 88.926-257.14 102.48-1.7148 0.24609-3.4688 0.42969-5.125 0.92188-7.1523 2.1172-11.332-0.29297-15.211-6.9766-19.613-33.789-39.699-67.305-59.945-100.72-3.2422-5.3555-3.3672-9.6016-0.77344-15.184 13.406-28.855 26.715-57.766 39.398-86.945 3.1875-7.332 7.707-10.062 15.164-11.312 91.25-15.301 167.05-58.398 226.98-128.65 51.453-60.305 80.707-130.37 88.152-209.41 0.16406-1.7266 0.33594-3.457 0.67578-5.1523 0.16797-0.80469 0.75-1.5273 1.4023-2.7969 30.574 13.867 61.309 27.25 91.473 41.809 9.7773 4.7188 16.84 4.2305 26.008-1.4883 31.422-19.602 63.477-38.191 95.305-57.148 2.207-1.3125 4.5234-2.4375 6.7891-3.6523zm-626.73 370.28c-7.0586 15.617-13.797 30.574-20.574 45.512-8.0039 17.648-15.793 35.398-24.203 52.852-2.6016 5.4062-2.1016 9.3867 0.88672 14.336 19.746 32.688 39.227 65.539 58.777 98.348 1.8867 3.168 3.668 6.4023 6.4102 11.195-15.535-0.73438-29.574-0.90234-43.516-2.1406-150.88-13.367-279.55-74.02-384.54-183.22-88.062-91.594-141.2-200.82-159.82-326.66-2.7422-18.547-3.918-14.055 11.438-23.289 31.734-19.09 63.711-37.773 95.355-57.008 5.4336-3.3047 9.668-3.2734 15.176-0.72656 28.875 13.352 57.82 26.566 86.93 39.395 6.7344 2.9688 9.9766 6.7773 11.23 14.32 16.457 98.656 64.707 178.62 143.59 239.76 57.449 44.531 122.87 69.652 195.33 76.27 2.2383 0.20312 4.4531 0.61719 7.5391 1.0547z" fill-rule="evenodd"/>
</svg>
