<?xml version="1.0" encoding="UTF-8"?>
<svg width="1200pt" height="1200pt" version="1.1" viewBox="0 0 1200 1200" xmlns="http://www.w3.org/2000/svg">
 <g>
  <path d="m740.63 493.31c0-52.125-27.891-107.86-107.86-107.86h-70.312c-21.797 0-39.984 3.6562-55.734 10.922l240 240z"/>
  <path d="m693.32 806.06-243.61-243.66-4.8281 117.56c0 21.797 18.188 39.984 39.984 39.984 6.0469 0 12.141-1.2188 16.969-4.8281l-7.2656 249.71c0 20.625 13.312 39.984 31.5 46.078 14.531 4.8281 30.281 2.4375 42.422-6.0469 12.141-8.4844 19.406-23.016 19.406-37.594l9.6562-227.86 8.4844 226.64c0 14.531 7.2656 29.109 19.406 37.594 8.4844 6.0469 16.969 8.4844 26.672 8.4844 4.8281 0 10.922-1.2188 14.531-2.4375 19.406-6.0469 31.5-24.234 31.5-46.078z"/>
  <path d="m586.69 369.71h8.4844c24.234 0 47.25-9.7031 65.438-26.672 19.406-19.406 29.109-46.078 26.672-72.75-3.6562-42.422-39.984-78.797-82.406-82.406-26.672-2.4375-53.344 7.2656-72.75 26.672s-29.109 46.078-26.672 72.75c2.4375 44.812 37.594 79.969 81.234 82.406z"/>
  <path d="m600 55.734c-300.61 0-544.26 243.66-544.26 544.26 0 300.6 243.66 544.26 544.26 544.26s544.26-243.66 544.26-544.26c0-300.6-243.66-544.26-544.26-544.26zm-459.37 544.26c0-111.52 39.984-213.32 105.47-292.13l646.08 646.08c-80.016 65.438-181.82 105.47-292.13 105.47-253.36-0.046874-459.42-206.11-459.42-459.42zm812.11 294.56-646.08-647.29c80.016-66.656 181.82-106.69 293.34-106.69 253.31 0 459.37 206.06 459.37 459.37 0 111.56-39.984 214.6-106.64 294.61z"/>
 </g>
</svg>
