<?xml version="1.0" encoding="UTF-8"?>
<svg width="1200pt" height="1200pt" version="1.1" viewBox="0 0 1200 1200" xmlns="http://www.w3.org/2000/svg">
 <path d="m721.59 683.2c-1.6094-25.738-6.7812-51.129-15.371-75.449l37.301-47.723-58.586-86.906-58.246 16.672 0.003906 0.003906c-19.336-17.066-40.938-31.379-64.195-42.527l-7.3633-60.09-102.92-20.023-29.344 52.965c-25.734 1.6172-51.121 6.7852-75.438 15.359l-47.734-37.289-86.918 58.609 16.699 58.219v0.003906c-17.062 19.336-31.371 40.934-42.527 64.18l-60.102 7.3906-20.008 102.9 52.965 29.355h-0.003907c1.6211 25.734 6.7891 51.125 15.359 75.449l-37.301 47.734 58.609 86.895 58.246-16.688v-0.003907c19.324 17.078 40.922 31.387 64.184 42.52l7.3633 60.102 102.9 20.008 29.367-52.953c25.734-1.625 51.125-6.7969 75.449-15.359l47.723 37.301 86.918-58.609-16.699-58.23h-0.003907c17.074-19.332 31.391-40.93 42.543-64.184l60.09-7.375 19.996-102.88zm8.6133 106.11-55.363 6.7812-3.3086 7.4766v0.003906c-11.398 25.711-27.039 49.324-46.27 69.852l-5.5977 5.9766 15.398 53.633-52.156 35.168-43.969-34.371-7.5781 2.9414c-26.211 10.121-53.934 15.766-82.016 16.699l-8.1719 0.28906-27.059 48.781-61.691-12.008-6.8203-55.375-7.4648-3.3086-0.003907-0.003906c-25.676-11.387-49.254-27.008-69.75-46.219l-5.9766-5.5977-53.734 15.398-35.18-52.156 34.383-43.984-2.9414-7.5781v0.003907c-10.129-26.223-15.785-53.961-16.723-82.055l-0.27734-8.1719-48.797-27.059 12.012-61.742 55.391-6.8203 3.3086-7.4648v-0.003907c11.391-25.676 27.016-49.254 46.219-69.75l5.582-5.9766-15.332-53.672 52.156-35.168 43.984 34.371 7.5781-2.9414c26.203-10.125 53.926-15.766 82.004-16.684l8.1719-0.27734 27.043-48.809 61.754 12.023 6.7812 55.363 7.4766 3.3203 0.007813 0.003907c25.684 11.383 49.273 27.008 69.773 46.219l5.9609 5.5703 53.672-15.359 35.168 52.145-34.383 43.996 2.9414 7.5781 0.003906-0.003906c10.125 26.207 15.773 53.926 16.711 82.004l0.26562 8.1719 48.832 27.059zm-250.48-288.96c-53.035-9.8945-107.83 1.5742-152.45 31.906-44.613 30.336-75.43 77.078-85.727 130.04-10.297 52.961 0.75781 107.84 30.754 152.68 29.996 44.844 76.504 76.012 129.38 86.707 13.004 2.5234 26.219 3.7891 39.461 3.7891 50.781-0.125 99.699-19.148 137.23-53.355 37.531-34.211 60.988-81.164 65.805-131.72 4.8164-50.551-9.3516-101.09-39.746-141.77-30.395-40.684-74.84-68.598-124.69-78.312zm133.3 234.2c-8.8984 45.707-35.586 86.012-74.199 112.04-38.609 26.031-85.98 35.656-131.69 26.758-45.711-8.8945-86.012-35.586-112.04-74.195-26.027-38.609-35.656-85.98-26.762-131.69 8.8984-45.711 35.586-86.012 74.195-112.04s85.98-35.66 131.69-26.766c45.688 8.9414 85.961 35.641 111.98 74.242 26.023 38.602 35.668 85.949 26.824 131.65zm440.84 100.6 17.289-22.168-32.336-48-27.031 7.793c-7.0117-5.7812-14.605-10.82-22.66-15.031l-3.4102-27.93-56.766-11.027-13.629 24.605-0.003907 0.003906c-9.0352 0.875-17.957 2.6953-26.613 5.4297l-22.18-17.277-47.926 32.312 7.7422 27.07v-0.003907c-5.7656 7.0078-10.789 14.594-14.992 22.637l-27.941 3.4375-11.027 56.727 24.605 13.668c0.87891 9.0312 2.6953 17.945 5.4219 26.602l-17.359 22.156 32.348 48 27.043-7.7539 0.003906-0.003907c7.0039 5.7812 14.594 10.812 22.648 15.008l3.4102 27.902 56.742 11.051 13.656-24.594v0.003906c9.0391-0.88281 17.965-2.707 26.625-5.4453l22.168 17.344 48-32.301-7.7539-27.082c5.7812-7.0039 10.809-14.594 15.008-22.648l27.93-3.4219 11.066-56.754-24.633-13.605h-0.003906c-0.89453-9.0664-2.7305-18.016-5.4805-26.703zm-5.332 70.938-23.016 2.8047-3.3359 7.4766v0.003906c-4.6484 10.48-11.027 20.105-18.871 28.473l-5.5977 5.9766 6.4023 22.332-13.16 8.8438-18.324-14.316-7.5781 2.9414-0.003907 0.003906c-10.672 4.1211-21.961 6.4219-33.395 6.8047l-8.1719 0.27734-11.254 20.301-15.602-3.0312-2.8438-23.066-7.4648-3.2969c-10.449-4.6367-20.043-11-28.383-18.82l-5.9609-5.5977-22.359 6.418-8.8438-13.176 14.324-18.289-2.9414-7.6562v0.003906c-4.1367-10.66-6.4414-21.945-6.8086-33.375l-0.26562-8.1836-20.312-11.254 3.0312-15.613 23.039-2.8047 3.3203-7.4766h0.003906c4.6445-10.465 11.008-20.078 18.82-28.449l5.5703-5.9609-6.3906-22.32 13.176-8.8438 18.316 14.324 7.5781-2.9414c10.672-4.1289 21.961-6.4297 33.398-6.8086l8.1719-0.28906 11.254-20.301 15.602 3.0312 2.8281 23.039 7.4648 3.3203v0.003906c10.453 4.6289 20.051 10.992 28.383 18.82l5.9766 5.6094 22.371-6.418 8.8438 13.16-14.301 18.305 2.9297 7.5781v0.003906c4.1172 10.672 6.4141 21.961 6.7969 33.395l0.26562 8.1602 20.312 11.305zm-105.88-106.17v0.003906c-23.211-4.5156-47.195 2.0234-64.906 17.691s-27.125 38.68-25.477 62.266c1.6484 23.586 14.172 45.066 33.887 58.117 19.719 13.051 44.383 16.191 66.738 8.4922 22.355-7.6953 39.863-25.352 47.367-47.773s4.1523-47.059-9.0664-66.66c-11.25-16.77-28.742-28.344-48.582-32.133zm31.82 83.684v0.003907c-2.3008 11.754-8.9844 22.191-18.695 29.203-9.7148 7.0078-21.73 10.059-33.609 8.5352s-22.734-7.5117-30.367-16.742c-7.6289-9.2344-11.461-21.023-10.719-32.977 0.74219-11.953 6.0039-23.18 14.715-31.398 8.7148-8.2188 20.227-12.816 32.203-12.859 3.0586 0.003906 6.1055 0.29687 9.1094 0.88672 12.293 2.3867 23.133 9.5625 30.137 19.945 7 10.383 9.5859 23.125 7.1875 35.418zm-230.48-473.85-21.574 27.586 37.895 56.234 33.664-9.6367v0.003906c9.6562 8.1641 20.23 15.172 31.516 20.879l4.2812 34.762 66.555 12.934 16.988-30.633 0.003906 0.003907c12.605-1.0781 25.043-3.6211 37.059-7.5781l27.602 21.574 56.223-37.895-9.6523-33.652c8.168-9.6797 15.18-20.277 20.895-31.578l34.75-4.2695 12.934-66.57-30.605-16.965v0.003906c-1.0742-12.613-3.6172-25.055-7.5781-37.074l21.562-27.602-37.895-56.211-33.652 9.6133c-9.6797-8.1641-20.277-15.172-31.578-20.879l-4.2305-34.738-66.605-12.996-16.941 30.719c-12.605 1.0703-25.039 3.6133-37.051 7.5781l-27.609-21.598-56.223 37.895 9.6641 33.688h-0.003906c-8.1758 9.668-15.184 20.27-20.879 31.578l-34.789 4.2695-12.934 66.57 30.633 16.926c1.0664 12.605 3.6094 25.047 7.5781 37.059zm-0.91016-94.535 29.961-3.6523 3.3086-7.5039 0.003906 0.003906c6.0664-13.699 14.398-26.277 24.645-37.211l5.582-5.9766-8.3125-29.051 21.473-14.477 23.785 18.594 7.5781-2.957h0.003907c13.98-5.3945 28.766-8.4062 43.742-8.9023l8.1602-0.26563 14.641-26.387 25.426 4.9375 3.6875 29.949 7.4531 3.3086c13.707 6.082 26.297 14.414 37.25 24.656l5.9766 5.582 29.051-8.3125 14.488 21.473-18.594 23.773 2.9414 7.5781 0.003906 0.003906c5.3984 13.98 8.4141 28.766 8.918 43.742l0.26562 8.1719 26.375 14.652-4.9375 25.402-29.938 3.6875-3.3203 7.4648-0.003906 0.003906c-6.0703 13.699-14.402 26.277-24.645 37.211l-5.582 5.9609 8.3008 29.051-21.473 14.477-23.852-18.488-7.5781 2.9297c-13.988 5.3789-28.781 8.3672-43.758 8.8438l-8.1602 0.28906-14.629 26.375-25.426-4.9531-3.6641-29.926-7.4766-3.3203c-13.699-6.0625-26.277-14.402-37.199-24.656l-5.9883-5.5977-29.051 8.3242-14.488-21.473 18.582-23.797-2.9414-7.5781h-0.003906c-5.4062-13.977-8.4219-28.766-8.918-43.742l-0.26562-8.1836-26.375-14.602zm136.79 144.57c26.754 5.1953 54.473-0.45312 77.066-15.695 22.59-15.242 38.203-38.836 43.398-65.59 5.168-26.746-0.48438-54.449-15.715-77.035-15.23-22.586-38.797-38.207-65.531-43.445-26.766-5.2266-54.512 0.39844-77.133 15.637-22.617 15.242-38.25 38.848-43.453 65.617-5.2031 26.773 0.44531 54.516 15.707 77.121 15.262 22.602 38.883 38.211 65.66 43.391zm-52.953-115.07c4.3945-22.551 19.023-41.777 39.59-52.023 20.566-10.242 44.727-10.34 65.375-0.26172 20.645 10.078 35.434 29.184 40.008 51.699 4.5742 22.516-1.582 45.879-16.66 63.219-15.078 17.336-37.359 26.676-60.293 25.27-22.93-1.4062-43.906-13.398-56.75-32.449-10.953-16.262-15.004-36.207-11.27-55.453z"/>
</svg>
