<?xml version="1.0" encoding="UTF-8"?>
<svg width="1200pt" height="1200pt" version="1.1" viewBox="0 0 1200 1200" xmlns="http://www.w3.org/2000/svg">
 <path d="m232.7 127.18c-7.9648-0.03125-15.617 3.1055-21.266 8.7227-5.6484 5.6172-8.832 13.25-8.8516 21.215v37.852l-61.348 0.003906c-47.434 0-86.602 39.168-86.602 86.602v558.05c0 47.434 39.168 86.602 86.602 86.602h520.14c40.578 86.484 128.6 146.6 230.16 146.6 139.82 0 253.83-113.95 253.83-253.77 0-108.02-68.066-200.71-163.48-237.3v-300.18c0-47.434-39.168-86.602-86.602-86.602h-61.344v-37.855c-0.019531-7.9258-3.168-15.52-8.7695-21.133-5.5977-5.6094-13.191-8.7734-21.117-8.8047h-98.086c-7.9648-0.03125-15.617 3.1055-21.266 8.7227-5.6484 5.6172-8.832 13.25-8.8477 21.215v37.852l-315.12 0.003906v-37.855c-0.019531-7.9336-3.1797-15.539-8.7891-21.152-5.6133-5.6094-13.219-8.7695-21.156-8.7852zm29.883 60.059h38.086v56.66c0 11.086-7.957 19.043-19.043 19.043-11.086 0-19.043-8-19.043-19.043zm473.26 0h38.32v35.273c-0.11719 0.85156-0.19531 1.7148-0.23828 2.5742 0.042968 0.86328 0.12109 1.7227 0.23828 2.5781v16.23c0 11.086-7.957 19.043-19.043 19.043s-19.277-8-19.277-19.043zm-594.61 67.734h62.168c5.4727 38.168 38.703 68.027 78.223 68.027 39.52 0 72.809-29.887 78.281-68.027h316.76c5.5039 38.168 38.938 68.027 78.457 68.027 39.52 0 72.605-29.887 78.047-68.027h62.109c15.23 0 26.602 11.371 26.602 26.602v97.207h-807.19v-97.207c0-15.23 11.312-26.602 26.543-26.602zm-26.539 183.81h807.19v128.09c-9.9492-1.1953-20.09-1.8164-30.352-1.8164-139.82 0-254 114.18-254 254 0 16.117 1.5547 31.871 4.4531 47.168l-500.75-0.003906c-15.23 0-26.543-11.371-26.543-26.602zm112.03 52.031h-0.003907c-7.9258 0.027344-15.516 3.1953-21.113 8.8047-5.6016 5.6094-8.7539 13.207-8.7656 21.137-0.03125 7.9531 3.0977 15.598 8.7031 21.246 5.6016 5.6484 13.223 8.8398 21.176 8.8672h82.621c7.9531-0.027344 15.574-3.2188 21.176-8.8672 5.6055-5.6484 8.7344-13.293 8.7031-21.246-0.011718-7.9297-3.1641-15.527-8.7656-21.137-5.5977-5.6094-13.188-8.7773-21.113-8.8047zm234.08 0c-7.9297 0.027344-15.52 3.1953-21.117 8.8047-5.6016 5.6094-8.7539 13.207-8.7695 21.137-0.027343 7.9531 3.1016 15.598 8.707 21.246 5.6016 5.6484 13.223 8.8398 21.18 8.8672h82.613c7.957-0.027344 15.578-3.2188 21.18-8.8672 5.6055-5.6484 8.7344-13.293 8.707-21.246-0.015625-7.9297-3.168-15.527-8.7695-21.137-5.5977-5.6094-13.188-8.7773-21.117-8.8047zm234.08 0h-0.003906c-7.9648-0.03125-15.617 3.1055-21.266 8.7227-5.6484 5.6172-8.832 13.25-8.8477 21.219-0.03125 7.9961 3.1289 15.672 8.7852 21.328s13.332 8.8164 21.328 8.7852h82.387c7.9961 0.03125 15.672-3.1289 21.328-8.7852s8.8164-13.332 8.7852-21.328c-0.011719-7.9688-3.1953-15.602-8.8477-21.219-5.6484-5.6172-13.301-8.7539-21.266-8.7227zm-468.17 134c-7.9141 0.027344-15.496 3.1875-21.094 8.7852-5.5977 5.5977-8.7578 13.18-8.7852 21.098 0.011719 7.9258 3.1641 15.523 8.7656 21.133 5.5977 5.6094 13.188 8.7773 21.113 8.8086h82.621c7.9258-0.03125 15.516-3.1992 21.113-8.8086 5.6016-5.6094 8.7539-13.207 8.7656-21.133-0.027343-7.918-3.1875-15.5-8.7852-21.098-5.5977-5.5977-13.18-8.7578-21.094-8.7852zm234.08 0h0.003906c-7.918 0.027344-15.5 3.1875-21.098 8.7852-5.5977 5.5977-8.7578 13.18-8.7891 21.098 0.015625 7.9258 3.168 15.523 8.7695 21.133 5.5977 5.6094 13.188 8.7773 21.117 8.8086h82.613c7.9297-0.03125 15.52-3.1992 21.117-8.8086 5.6016-5.6094 8.7539-13.207 8.7695-21.133-0.03125-7.918-3.1914-15.5-8.7891-21.098-5.5977-5.5977-13.18-8.7578-21.098-8.7852zm430.72 0.23828c17.203 0 33.891 2.2148 49.746 6.3867 1.8398 0.71094 3.7422 1.2383 5.6836 1.5781 80.203 23.766 138.34 97.914 138.34 186.04 0 107.39-86.371 193.77-193.77 193.77-81.336 0-150.75-49.539-179.65-120.23h0.003907c-0.55859-4.582-2.1602-8.9727-4.6875-12.832-6.2578-19.078-9.668-39.477-9.668-60.703 0-107.39 86.609-194 194-194zm-14.18 61.758c-7.9531 0.03125-15.574 3.2227-21.176 8.8711-5.6055 5.6484-8.7344 13.289-8.7031 21.246v137.99c0 5.3203 1.418 10.543 4.1055 15.137s6.5469 8.3867 11.184 10.996l74.648 41.426h0.003906c6.9336 3.8516 15.109 4.7969 22.742 2.6328 7.6328-2.1602 14.094-7.2578 17.98-14.176 3.8477-6.9336 4.7969-15.113 2.6328-22.746-2.1641-7.6289-7.2617-14.094-14.18-17.977l-59.117-32.988v-120.29c0.03125-7.9961-3.1328-15.676-8.7891-21.332-5.6562-5.6523-13.332-8.8164-21.332-8.7852zm-650.62 71.777c-7.9531 0.03125-15.574 3.2227-21.176 8.8711-5.6055 5.6484-8.7344 13.289-8.7031 21.246 0.027344 7.9141 3.1875 15.5 8.7852 21.098 5.5977 5.5977 13.18 8.7539 21.094 8.7852h82.621c7.9141-0.03125 15.496-3.1875 21.094-8.7852 5.5977-5.5977 8.7578-13.184 8.7852-21.098 0.03125-7.957-3.0977-15.598-8.7031-21.246-5.6016-5.6484-13.223-8.8398-21.176-8.8711zm234.08 0h0.003906c-7.957 0.03125-15.578 3.2227-21.18 8.8711-5.6055 5.6445-8.7344 13.289-8.707 21.246 0.03125 7.9141 3.1914 15.5 8.7891 21.098 5.5977 5.5977 13.18 8.7539 21.098 8.7852h82.613c7.918-0.03125 15.5-3.1875 21.098-8.7852 5.5977-5.5977 8.7578-13.184 8.7891-21.098 0.03125-7.957-3.1016-15.602-8.707-21.246-5.6016-5.6484-13.223-8.8398-21.18-8.8711z" fill-rule="evenodd"/>
</svg>
