<?xml version="1.0" encoding="UTF-8"?>
<svg width="1200pt" height="1200pt" version="1.1" viewBox="0 0 1200 1200" xmlns="http://www.w3.org/2000/svg">
 <g>
  <path d="m650 350h129.3l-114.65 114.65c-9.5156 9.3477-14.902 22.109-14.961 35.445-0.0625 13.336 5.2109 26.148 14.641 35.578s22.242 14.703 35.578 14.641c13.336-0.058594 26.098-5.4453 35.445-14.961l114.65-114.65v129.3c0 17.863 9.5312 34.371 25 43.301 15.469 8.9336 34.531 8.9336 50 0 15.469-8.9297 25-25.438 25-43.301v-250c-0.050781-13.246-5.3359-25.934-14.699-35.301-9.3672-9.3633-22.055-14.648-35.301-14.699h-250c-17.863 0-34.371 9.5312-43.301 25-8.9336 15.469-8.9336 34.531 0 50 8.9297 15.469 25.438 25 43.301 25z"/>
  <path d="m280.89 946.14c6.0547 2.5273 12.547 3.8398 19.105 3.8594h250c17.863 0 34.371-9.5312 43.301-25 8.9336-15.469 8.9336-34.531 0-50-8.9297-15.469-25.438-25-43.301-25h-129.3l114.65-114.65c12.5-12.656 17.332-31 12.691-48.172-4.6406-17.168-18.055-30.582-35.223-35.223-17.172-4.6367-35.516 0.19531-48.172 12.691l-114.65 114.65v-129.3c0-17.863-9.5312-34.371-25-43.301-15.469-8.9336-34.531-8.9336-50 0-15.469 8.9297-25 25.438-25 43.301v250c0.039062 9.8789 2.9883 19.523 8.4844 27.734 5.4961 8.207 13.293 14.609 22.41 18.406z"/>
  <path d="m50 950c0.042969 39.77 15.859 77.898 43.98 106.02 28.121 28.121 66.25 43.938 106.02 43.98h800c39.77-0.042969 77.898-15.859 106.02-43.98 28.121-28.121 43.938-66.25 43.98-106.02v-700c-0.042969-39.77-15.859-77.898-43.98-106.02-28.121-28.121-66.25-43.938-106.02-43.98h-800c-39.77 0.042969-77.898 15.859-106.02 43.98-28.121 28.121-43.938 66.25-43.98 106.02zm100-700c0.011719-13.258 5.2852-25.965 14.66-35.34s22.082-14.648 35.34-14.66h800c13.258 0.011719 25.965 5.2852 35.34 14.66s14.648 22.082 14.66 35.34v700c-0.011719 13.258-5.2852 25.965-14.66 35.34s-22.082 14.648-35.34 14.66h-800c-13.258-0.011719-25.965-5.2852-35.34-14.66s-14.648-22.082-14.66-35.34z"/>
 </g>
</svg>
