<?xml version="1.0" encoding="UTF-8"?>
<svg width="1200pt" height="1200pt" version="1.1" viewBox="0 0 1200 1200" xmlns="http://www.w3.org/2000/svg">
 <path d="m803.44 232.92c2.5781 6.5625 4.5938 12.281 6.0469 16.781l0.98438-0.046875c7.5469-0.28125 18.047-0.1875 29.953 1.3594 23.578 3.1406 54.047 12.375 77.016 37.641 18 19.828 23.062 46.078 24.094 65.719 0.51562 9.4688 0.09375 17.859-0.46875 24.141 1.6875 0.60938 3.4688 1.2656 5.4375 2.0625 9.7969 3.9844 22.922 10.406 36.234 20.344 26.906 20.062 54.281 54.375 55.875 109.78 2.4375 84.141-32.906 173.16-125.81 201.19-63 18.984-109.31 11.438-140.39-1.7344-15.375-6.5625-26.766-14.391-34.359-20.672-0.98438-0.79688-1.9219-1.5938-2.7656-2.3438-4.7812 3.8438-11.156 9.1406-18.422 15.703-15.328 13.922-34.078 33.141-49.266 55.172-8.5781 47.531-9.75 96.422-6.5625 137.95 3.2344 42.75 10.969 75.984 18.797 91.688 6.9375 13.922 11.953 22.594 20.016 36.141 1.7344 2.9062 6.75 11.297 8.4375 14.109l0.046876 0.046875c6.1406 10.266 11.156 18.281 15.703 26.719 2.9531 5.3906 6.4688 12.328 8.3438 17.062 1.7344 4.3125 3.4688 9.7031 3.375 15-0.09375 2.8594-0.70312 6.5625-3 10.031-2.4375 3.7031-5.9062 6-9.5625 7.1719-6.2812 1.9219-12.938 0.42188-17.953-1.125l-0.75-0.28125-0.14063-0.046875-0.51562-0.1875c-0.42188-0.14062-1.0312-0.375-1.875-0.65625-1.6875-0.60938-4.125-1.5-7.2188-2.5781-6.1406-2.1094-14.766-4.9688-24.562-7.8281-19.875-5.8125-43.406-11.391-61.078-11.812-17.484-0.42188-40.125 5.1562-59.391 11.438-9.4219 3.0938-17.672 6.1875-23.531 8.5312-2.9531 1.1719-5.25 2.1562-6.8438 2.8125 0 0-1.0781 0.46875-5.2031 1.5938-4.1719 1.125-15.516 2.1094-22.078 0.51562-7.5-1.8281-14.344-6.4219-16.547-14.953-1.7812-6.8438 0-13.734 1.875-18.75 2.0156-5.4844 5.1094-11.25 8.5312-16.922 6.6094-10.875 15.656-23.25 24.234-35.016l1.0781-1.4062c9.1406-12.516 17.625-24.188 23.344-33.984 10.781-18.469 19.641-53.484 23.438-96.797 3.7031-42.656 2.2969-91.547-6.0469-136.97-6.7031-24.844-25.969-46.359-45.141-62.25-9.4688-7.8281-18.516-13.969-25.172-18.141-1.2656-0.75-2.4375-1.4531-3.4688-2.1094-2.8594 2.0156-6.4219 4.5-10.734 7.2188-11.25 7.2188-27.375 16.312-46.828 23.812-38.766 15-92.156 24.234-146.34-2.1562-77.156-37.547-113.02-116.48-113.02-199.45 0-69.938 30.797-112.03 62.156-136.31 15.469-12 30.891-19.5 42.422-24 3.1875-1.2656 6.0938-2.2969 8.625-3.0938-0.046875-1.125-0.09375-2.2969-0.09375-3.5156-0.14062-9.1875 0.32812-22.031 2.8594-36.891 5.0156-29.672 18.188-67.875 51-100.69 28.969-29.016 63.094-39.281 89.531-42.375 13.219-1.5469 24.656-1.3125 32.859-0.70312 1.2188 0.09375 2.3438 0.1875 3.4219 0.28125 0.75-1.3594 1.6406-2.8125 2.6719-4.3594 5.0625-7.875 13.031-18.234 24.844-28.547 23.859-20.812 62.625-40.875 122.76-41.391 83.156-0.70312 135.66 44.062 166.74 87.984 15.516 21.891 25.875 43.734 32.391 60.094zm-198.89-121.45c71.766-0.60938 116.95 37.453 144.79 76.734 13.969 19.734 23.391 39.562 29.344 54.516 2.9531 7.4531 5.0156 13.641 6.3281 17.906 0.70312 2.1562 1.1719 3.7969 1.4531 4.9219 0.14062 0.51562 0.23438 0.9375 0.32812 1.1719l0.046875 0.28125v0.046875l2.9062 11.859 12.047-1.875h0.046875l0.42188-0.046875c0.375-0.046875 1.0312-0.14062 1.875-0.1875 1.6875-0.1875 4.2188-0.42188 7.4062-0.51562 6.4219-0.28125 15.328-0.1875 25.359 1.125 20.297 2.7188 43.734 10.312 60.844 29.109 11.906 13.172 16.312 32.016 17.203 49.266 0.46875 8.4375 0.046875 15.938-0.46875 21.328-0.28125 2.6719-0.5625 4.8281-0.75 6.2812-0.09375 0.32812-0.14062 0.65625-0.14062 0.89062-0.046875 0.28125-0.09375 0.51562-0.14062 0.65625l-0.046875 0.375v0.046875l-2.4375 12.562 12.469 2.9062h0.09375l0.5625 0.1875c0.5625 0.14062 1.4531 0.375 2.5781 0.75 2.3438 0.70312 5.7188 1.8281 9.8438 3.4688 8.25 3.375 19.266 8.7656 30.328 17.016 21.797 16.312 43.875 43.594 45.188 89.203 2.25 77.719-30.094 151.78-106.92 174.94-57.234 17.25-97.125 9.9375-122.29-0.75-12.656-5.3906-21.891-11.766-27.797-16.688-1.8281-1.4531-3.2812-2.8125-4.5-3.9375 6.1875-4.7812 12.047-9.0938 17.391-12.75 2.5312-1.7344 4.9219-3.3281 7.1719-4.7344 5.8594-3.6562 10.688-6.1875 14.156-7.0781 0.79688-0.23438 1.5-0.32812 2.1562-0.375l1.4531-0.046875c13.453-0.75 25.312-3 34.688-5.8125 7.0312-2.1094 12.656-4.5469 16.547-6.8438 7.5938-4.4531 8.7188-8.5781 0.9375-9.3281-5.9062-0.5625-13.312-0.46875-21.094 0-4.2656 0.23438-8.6719 0.60938-13.031 1.0312-7.125 0.70312-14.156 1.5938-20.297 2.4844h-0.046875c-11.391 1.5938-19.641 3.0938-19.641 3.0938l44.531-51.562s2.25-0.42188 5.9531-1.3594l0.32812-0.046875c2.0625-0.51562 4.5938-1.2188 7.4531-2.0156 11.953-3.5156 29.672-9.7969 44.016-19.641 3.7969-2.625 7.3594-5.4375 10.5-8.5312 6.0938-6.0469 10.688-13.031 12.609-21.094 0.89062-3.8438-3.5156-4.1719-10.781-2.5312-4.3125 0.98438-9.7031 2.7188-15.516 4.875-3.0938 1.125-6.3281 2.3906-9.6562 3.75l-1.1719 0.46875c-14.578 5.9062-30 13.172-39.516 17.719l-2.3438 1.125c-3.4219 1.6875-5.7656 2.8125-6.5625 3.2344l-0.28125 0.14062 0.23438-0.32812c0.32812-0.42188 1.0312-1.2188 1.9219-2.3906 5.2031-6.4688 18.516-23.719 28.219-40.688l0.79688-1.4062c0.89062-1.5938 1.7344-3.1875 2.5312-4.7344 4.1719-8.1094 7.125-15.797 7.5469-21.844 0.42188-6.4219-5.8594-4.875-12.844-0.89062-4.1719 2.4375-8.625 5.7188-11.953 8.7188-0.75 0.65625-1.4531 1.3594-2.1094 1.9688-4.4062 4.4062-14.625 19.734-25.969 37.641l-0.1875 0.28125c-1.9219 3-3.8438 6.0469-5.7656 9.1406l-0.42188 0.70312c-4.5469 7.2656-9.1406 14.672-13.453 21.75l-0.70312 1.1719c-13.312 21.797-24.141 40.078-24.141 40.078s0-20.391-1.5469-37.781l-0.09375-0.89062c-0.28125-2.5312-0.70312-5.25-1.3125-8.0625-0.42188-1.9688-0.89062-3.9375-1.4531-5.9062-0.51562-1.9688-1.125-3.8906-1.7812-5.7656-1.4062-3.9844-3.0469-7.6875-4.8281-10.547-3.2344-5.25-6.9375-7.6875-10.406-4.0312-2.625 6.75-4.4531 14.625-5.6719 22.922-0.5625 3.9375-0.98438 7.9219-1.3125 11.906-2.5781 30.984 1.3125 63.141 1.3125 63.141s-21.047 38.203-49.547 63.844c-7.8281 6.9844-16.172 13.078-24.844 17.156 0 0-1.4062-11.438-3.1875-28.828-3.3281-31.922-7.9219-84-7.4531-122.29 0.046875-3.0938 0.046875-6 0.09375-8.7656 0-21.422 0.046875-34.031 15.703-52.172 13.5-15.656 34.406-33.047 53.672-48.984l2.625-2.1562c11.109-9.1406 21.516-17.672 29.484-25.078 10.406-9.6094 16.688-17.203 14.859-21.328-2.0625-4.8281-12.562-1.5-25.969 5.2969-11.344 5.7656-24.703 13.969-36.797 21.797l-1.5 1.0312c-13.359 8.7188-24.891 16.828-29.859 20.391-1.7344 1.2188-2.6719 1.875-2.6719 1.875s4.8281-18.797 8.625-38.391c1.1719-6.0469 2.25-12.188 3.0469-17.906 1.7812-12.844 2.2031-23.391-0.84375-25.406-5.8125-3.8438-13.031 4.4531-20.156 18.844-2.2031 5.25-3.2812 9.9375-5.3906 23.062-2.0156 12.562-3.8906 20.859-9.1875 33.656-3.1406 8.0156-5.2031 15.797-8.0625 23.672-4.9219 13.641-10.359 26.953-16.547 38.672-4.7344 9.0469-9.9375 17.156-15.609 23.766 0 0-7.5469-9.5156-15.656-23.25-9.7969-16.547-20.438-39.281-19.828-59.016 0.5625-19.359 7.2188-36.094 14.578-54.422l1.125-2.9062c2.1562-5.4375 4.3594-11.016 6.4688-16.875 2.7656-7.8281 5.3438-16.078 7.4531-25.125 0.23438-1.0312 0.46875-2.1562 0.70312-3.375 1.2188-6.6562 2.1562-15.328 2.4375-23.531 0.1875-5.6719 0.09375-11.062-0.42188-15.516-1.0312-9.3281-3.7969-14.25-9.2812-7.2656-3.75 4.7812-7.2188 11.109-10.406 18.188-0.9375 2.1094-1.875 4.2656-2.7656 6.4688-1.9219 4.875-3.75 9.9844-5.4375 15.047-3.1875 9.7031-5.8125 19.359-7.8281 27.422-2.9062 11.719-9 20.438-9 20.438s-1.7812-5.5781-2.2969-9.5625c-1.2656-10.453 1.9688-29.25-1.6406-48.75-0.42188-2.3906-0.89062-4.7344-1.3594-7.0312-0.51562-2.625-1.0781-5.1562-1.5938-7.5938-1.4062-6.0469-2.8594-11.484-4.3594-15.609-0.60938-1.7344-1.2188-3.2344-1.875-4.5-1.9219-3.7969-4.875-5.2031-6.4219-2.6719-4.0781 6.9844-6.4219 14.156-8.4844 22.547-1.2656 5.0156-2.2031 10.219-2.8594 15.516-3.6562 29.062 0.42188 61.734 4.1719 86.438 0.51562 3.4219 1.0312 6.7031 1.5 9.7969 1.2188 7.9219 2.2969 14.625 2.7656 19.594 0 0-4.125-1.1719-10.125-3.2344-2.7656-0.98438-5.9531-2.1094-9.2812-3.4688-2.8594-1.125-5.9062-2.3906-8.8594-3.7969-1.3594-0.60938-2.7188-1.2656-4.0312-1.9219-4.4531-2.2969-8.7188-4.7812-12.188-7.4531-3.8906-3-8.1094-7.875-12.938-13.406-5.3906-6.2344-11.578-13.359-18.891-19.734-1.9688-1.7344-4.0781-3.375-6.2344-4.9688s-4.4062-3.1406-6.7969-4.5469c-7.3125-4.3125-21.234-11.625-25.078-8.5312-0.70312 1.125-0.89062 2.9062-0.5625 5.1094 0.75 5.0156 4.2188 12.375 9.8438 19.875 1.0781 1.5 2.25 3 3.5156 4.4531 1.5938 1.875 3.8438 4.5 6.4219 7.5 7.125 8.3438 16.734 19.547 21.328 24.984l2.7188 3.1875s-4.3594-1.7344-11.203-4.2656c-9.4219-3.4688-23.531-8.4375-37.312-12.375l-0.89062-0.28125c-5.7656-1.6406-11.484-3.0469-16.781-4.125-1.3125-0.28125-2.5781-0.5625-3.8438-0.75-5.7656-1.0312-10.828-1.5-14.672-1.1719-5.8594 0.51562-11.859 2.9531-7.3125 8.0625 5.8125 6.5156 12.188 10.172 18.328 14.25 5.1094 3.375 10.266 6.3281 15.375 8.9062 13.922 6.9375 27.609 11.016 40.172 13.312 3.0938 0.51562 6.0938 0.98438 9.0469 1.3125l0.51562 0.09375c21 2.3906 37.641 0 44.719-1.3594 2.3906-0.46875 3.7031-0.79688 3.7031-0.79688s3.375 1.875 8.9062 5.7656c17.016 12.094 54.141 43.641 74.016 99.375 9.9844 28.078 7.2656 68.766 3.6562 95.953-2.25 17.109-4.875 28.922-4.875 28.922l-96.75-66.188c6.2344-8.2031 16.5-29.578 19.5-40.453 6.4219-20.953 8.4844-41.953 5.5781-43.547-3.3281-2.0156-19.031 13.031-26.438 27.844-7.3594 14.812-12.562 36.281-12.562 36.281s-4.2656-23.578-9.5156-40.219c-4.2656-13.594-13.031-30-16.406-32.859-0.375-0.375-0.79688-0.51562-1.125-0.46875-3.375 8.5312-4.7812 17.438-4.9219 26.156-0.14062 8.2031 0.84375 16.219 2.3438 23.625 1.3594 6.4688 3.0938 12.469 4.875 17.672 1.4062 3.9844 2.7656 7.5 3.9844 10.359 2.1562 5.0156 3.75 7.9688 3.75 7.9688s-5.3906-2.2031-13.031-6.0469c-6.5625-3.3281-14.859-7.7812-22.828-13.078l-0.84375-0.5625c-7.9219-5.2969-15.422-11.344-20.719-17.812-3.75-4.5938-6.8438-10.266-9.75-16.594-1.6406-3.4688-3.1875-7.1719-4.8281-11.016-3.6094-8.4375-7.4531-17.484-12.562-26.203-0.9375-1.5938-1.875-3.1406-2.9062-4.6875-4.5938-7.0312-10.219-13.781-17.391-19.734-0.98438 0.14062-1.7344 1.1719-2.2969 2.7656-1.9219 5.625-1.1719 18.516 2.2031 27.984 0.1875 0.60938 0.42188 1.2188 0.70312 1.8281 1.7812 4.3594 4.1719 9.0469 6.75 13.547 3.4688 6.0469 7.2188 11.859 10.312 16.406 3.7969 5.5781 6.6094 9.2812 6.6094 9.2812l-18.562 1.0312s-0.79688-0.89062-2.2031-2.4375c-1.8281-1.9688-4.6875-4.9688-8.2969-8.4375-4.6406-4.4062-10.547-9.6094-17.062-14.344-4.6406-3.375-9.6094-6.5156-14.719-8.9531-8.7656-4.2656-17.812-6.5156-25.969-4.4062-0.98438 1.2656-0.23438 3.4688 1.6406 6.3281 2.625 3.8906 7.4531 8.9531 12.984 14.156 6.7031 6.2812 14.391 12.797 20.25 17.578 5.4375 4.4062 9.2812 7.3125 9.2812 7.3125s-2.4844 0.046875-6.3281 0.14062c-2.4844 0.09375-5.5312 0.23438-8.8594 0.42188-3.7031 0.23438-7.7344 0.5625-11.766 1.0312-3.7969 0.42188-7.5938 0.98438-11.062 1.6875-7.4062 1.5469-13.125 3.7969-13.781 7.125-0.79688 3.9375 13.312 6.2812 25.5 7.6406 2.4844 0.28125 4.875 0.51562 7.0312 0.70312l2.4844 0.23438c0.70312 0.046875 1.3594 0.09375 2.0625 0.14062 5.3906 0.32812 10.453 0.09375 14.766-0.375 3.9375-0.375 7.2656-0.98438 9.6562-1.4531 2.5781-0.5625 4.0781-0.98438 4.0781-0.98438s2.9531 1.3594 7.9219 3.6562c3.6094 1.7344 8.2969 3.9375 13.641 6.5156 19.312 9.375 47.391 23.672 66.375 36.094 7.2188 4.7344 17.812 12.234 30.141 21.188-1.6406 1.0781-3.4688 2.2969-5.4375 3.5625-10.172 6.5156-24.703 14.672-42.094 21.422-34.922 13.5-80.016 20.672-125.16-1.2656-65.578-31.922-98.016-99.797-98.016-175.55 0-60.75 26.203-95.438 51.797-115.27 13.031-10.078 26.062-16.453 35.906-20.297 4.875-1.9219 8.9062-3.1875 11.672-3.9375 1.3594-0.42188 2.3906-0.65625 3.0469-0.84375 0.375-0.046875 0.60938-0.09375 0.75-0.14062l0.09375-0.046875 12.328-2.4375-1.7812-12.422v-0.09375l-0.09375-0.51562c-0.046875-0.46875-0.14062-1.2656-0.1875-2.25-0.1875-2.0625-0.375-5.1562-0.46875-9.0938-0.09375-7.875 0.32812-19.078 2.4844-32.016 4.4062-25.922 15.75-58.5 43.594-86.297 23.578-23.578 51.422-32.156 73.828-34.781 11.203-1.3125 20.906-1.125 27.75-0.60938 3.4219 0.28125 6.0938 0.60938 7.875 0.84375 0.89062 0.14062 1.5469 0.23438 1.9688 0.32812l0.42188 0.09375h0.046875l10.969 2.2969 4.0781-10.453 0.14062-0.375c0.1875-0.32812 0.46875-0.9375 0.84375-1.7812 0.84375-1.6406 2.2031-4.125 4.125-7.1719 3.9375-6.1406 10.312-14.484 19.969-22.875 19.078-16.641 51.75-34.359 105.52-34.828z" fill-rule="evenodd"/>
</svg>
