<?xml version="1.0" encoding="UTF-8"?>
<svg width="1200pt" height="1200pt" version="1.1" viewBox="0 0 1200 1200" xmlns="http://www.w3.org/2000/svg">
 <g>
  <path d="m60 40c-5.3047 0-10.391 2.1055-14.141 5.8594-3.7539 3.75-5.8594 8.8359-5.8594 14.141v240c0 5.3047 2.1055 10.391 5.8594 14.141 3.75 3.7539 8.8359 5.8594 14.141 5.8594h400c5.3047 0 10.391-2.1055 14.141-5.8594 3.7539-3.75 5.8594-8.8359 5.8594-14.141v-240c0-5.3047-2.1055-10.391-5.8594-14.141-3.75-3.7539-8.8359-5.8594-14.141-5.8594zm240 200h-160c-7.1445 0-13.746-3.8125-17.32-10-3.5742-6.1875-3.5742-13.812 0-20 3.5742-6.1875 10.176-10 17.32-10h160c7.1445 0 13.746 3.8125 17.32 10 3.5742 6.1875 3.5742 13.812 0 20-3.5742 6.1875-10.176 10-17.32 10zm80-80h-240c-7.1445 0-13.746-3.8125-17.32-10-3.5742-6.1875-3.5742-13.812 0-20 3.5742-6.1875 10.176-10 17.32-10h240c7.1445 0 13.746 3.8125 17.32 10 3.5742 6.1875 3.5742 13.812 0 20-3.5742 6.1875-10.176 10-17.32 10z"/>
  <path d="m1140 1160c5.3047 0 10.391-2.1055 14.141-5.8594 3.7539-3.75 5.8594-8.8359 5.8594-14.141v-240c0-5.3047-2.1055-10.391-5.8594-14.141-3.75-3.7539-8.8359-5.8594-14.141-5.8594h-400c-5.3047 0-10.391 2.1055-14.141 5.8594-3.7539 3.75-5.8594 8.8359-5.8594 14.141v240c0 5.3047 2.1055 10.391 5.8594 14.141 3.75 3.7539 8.8359 5.8594 14.141 5.8594zm-320-200h240c7.1445 0 13.746 3.8125 17.32 10 3.5742 6.1875 3.5742 13.812 0 20-3.5742 6.1875-10.176 10-17.32 10h-240c-7.1445 0-13.746-3.8125-17.32-10-3.5742-6.1875-3.5742-13.812 0-20 3.5742-6.1875 10.176-10 17.32-10zm0 80h160c7.1445 0 13.746 3.8125 17.32 10 3.5742 6.1875 3.5742 13.812 0 20-3.5742 6.1875-10.176 10-17.32 10h-160c-7.1445 0-13.746-3.8125-17.32-10-3.5742-6.1875-3.5742-13.812 0-20 3.5742-6.1875 10.176-10 17.32-10z"/>
  <path d="m1140 680c-5.3047 0-10.391-2.1055-14.141-5.8594-3.7539-3.75-5.8594-8.8359-5.8594-14.141v-80c0-15.914-6.3203-31.176-17.574-42.426-11.25-11.254-26.512-17.574-42.426-17.574h-100c-5.207-0.046875-10.211 2.0234-13.859 5.7383-3.9297 3.7031-6.1523 8.8633-6.1406 14.262 0 5.3047 2.1055 10.391 5.8594 14.141 3.75 3.7539 8.8359 5.8594 14.141 5.8594h80c10.609 0 20.781 4.2148 28.285 11.715 7.5 7.5039 11.715 17.676 11.715 28.285v60c0 5.3047-2.1055 10.391-5.8594 14.141-3.75 3.7539-8.8359 5.8594-14.141 5.8594h-18.559l58.559 58.82 57.262-58.82z"/>
  <path d="m400 460c-5.3047 0-10.391 2.1055-14.141 5.8594-3.7539 3.75-5.8594 8.8359-5.8594 14.141v240c0 5.3047 2.1055 10.391 5.8594 14.141 3.75 3.7539 8.8359 5.8594 14.141 5.8594h400c5.3047 0 10.391-2.1055 14.141-5.8594 3.7539-3.75 5.8594-8.8359 5.8594-14.141v-240c0-5.3047-2.1055-10.391-5.8594-14.141-3.75-3.7539-8.8359-5.8594-14.141-5.8594zm240 200h-160c-7.1445 0-13.746-3.8125-17.32-10-3.5742-6.1875-3.5742-13.812 0-20 3.5742-6.1875 10.176-10 17.32-10h160c7.1445 0 13.746 3.8125 17.32 10 3.5742 6.1875 3.5742 13.812 0 20-3.5742 6.1875-10.176 10-17.32 10zm80-80h-240c-7.1445 0-13.746-3.8125-17.32-10-3.5742-6.1875-3.5742-13.812 0-20 3.5742-6.1875 10.176-10 17.32-10h240c7.1445 0 13.746 3.8125 17.32 10 3.5742 6.1875 3.5742 13.812 0 20-3.5742 6.1875-10.176 10-17.32 10z"/>
  <path d="m720 260h-18.559l58.559 58.82 57.262-58.82h-17.262c-5.3047 0-10.391-2.1055-14.141-5.8594-3.7539-3.75-5.8594-8.8359-5.8594-14.141v-80c0-15.914-6.3203-31.176-17.574-42.426-11.25-11.254-26.512-17.574-42.426-17.574h-100c-5.207-0.046875-10.211 2.0234-13.859 5.7383-3.9297 3.7031-6.1523 8.8633-6.1406 14.262 0 5.3047 2.1055 10.391 5.8594 14.141 3.75 3.7539 8.8359 5.8594 14.141 5.8594h80c10.609 0 20.781 4.2148 28.285 11.715 7.5 7.5039 11.715 17.676 11.715 28.285v60c0 5.3047-2.1055 10.391-5.8594 14.141-3.75 3.7539-8.8359 5.8594-14.141 5.8594z"/>
 </g>
</svg>
