<?xml version="1.0" encoding="UTF-8"?>
<svg width="1200pt" height="1200pt" version="1.1" viewBox="0 0 1200 1200" xmlns="http://www.w3.org/2000/svg">
 <g>
  <path d="m412.5 768.75c0-72.363-58.887-131.25-131.25-131.25s-131.25 58.887-131.25 131.25 58.887 131.25 131.25 131.25 131.25-58.887 131.25-131.25z"/>
  <path d="m337.5 900h-112.5c-82.707 0-150 67.293-150 150v37.5c0 20.711 16.789 37.5 37.5 37.5h337.5c20.711 0 37.5-16.789 37.5-37.5v-37.5c0-82.707-67.293-150-150-150z"/>
  <path d="m1050 768.75c0-72.363-58.887-131.25-131.25-131.25s-131.25 58.887-131.25 131.25 58.887 131.25 131.25 131.25 131.25-58.887 131.25-131.25z"/>
  <path d="m975 900h-112.5c-82.707 0-150 67.293-150 150v37.5c0 20.711 16.789 37.5 37.5 37.5h337.5c20.711 0 37.5-16.789 37.5-37.5v-37.5c0-82.707-67.293-150-150-150z"/>
  <path d="m825 75h-450c-82.707 0-150 67.293-150 150v225c0 82.707 67.293 150 150 150h187.5v37.5h-75c-20.711 0-37.5 16.789-37.5 37.5s16.789 37.5 37.5 37.5h225c20.711 0 37.5-16.789 37.5-37.5s-16.789-37.5-37.5-37.5h-75v-37.5h187.5c82.707 0 150-67.293 150-150v-225c0-82.707-67.293-150-150-150zm-344.24 341.84c7.9453 6.6289 9.0273 18.457 2.3984 26.422-3.7148 4.4492-9.0469 6.7383-14.43 6.7383-4.2305 0-8.4766-1.4297-11.992-4.3398l-112.5-93.75c-4.2656-3.5703-6.7383-8.8438-6.7383-14.41s2.4727-10.84 6.7383-14.41l112.5-93.75c8-6.6094 19.777-5.5664 26.422 2.3984 6.6289 7.9648 5.5469 19.793-2.3984 26.422l-95.215 79.34zm191.57-163.44-112.5 187.5c-3.5156 5.8594-9.7227 9.1016-16.098 9.1016-3.2773 0-6.6094-0.85938-9.6328-2.6719-8.8789-5.3281-11.754-16.848-6.4258-25.727l112.5-187.5c5.3477-8.8789 16.848-11.738 25.727-6.4258 8.8828 5.3242 11.758 16.844 6.4297 25.723zm183.43 98.512-112.5 93.75c-3.5156 2.9102-7.7617 4.3398-11.992 4.3398-5.3828 0-10.711-2.2891-14.43-6.7383-6.6289-7.9648-5.5469-19.793 2.3984-26.422l95.215-79.34-95.215-79.34c-7.9453-6.6289-9.0273-18.457-2.3984-26.422 6.6484-7.9648 18.438-9.0078 26.422-2.3984l112.5 93.75c4.2656 3.5703 6.7383 8.8438 6.7383 14.41s-2.4727 10.84-6.7383 14.41z"/>
 </g>
</svg>
