<svg height='100px' width='100px'  fill="#000000" xmlns="http://www.w3.org/2000/svg" xmlns:xlink="http://www.w3.org/1999/xlink" version="1.1" x="0px" y="0px" viewBox="0 0 90 90" enable-background="new 0 0 90 90" xml:space="preserve"><polygon points="49.021,69.099 41.002,69.099 41.002,61.099 49.002,61.099 "></polygon><polygon points="30.566,64.866 28.101,62.127 25.228,59.829 30.226,53.582 33.618,56.299 36.513,59.515 "></polygon><polygon points="59.153,64.857 53.496,59.2 59.153,53.543 64.824,59.187 "></polygon><polygon points="21,49.043 21,41.023 29,41.023 29,49.023 "></polygon><polygon points="69,49.02 61,49.02 61,40.937 69,40.917 "></polygon><polygon points="31.102,36.493 25.155,31.142 28.142,27.857 31.115,25.181 36.467,31.127 33.646,33.667 "></polygon><polygon points="58.497,36.39 56.199,33.518 53.46,31.052 58.812,25.105 62.041,28.014 64.744,31.393 "></polygon><polygon points="48.957,28.903 40.957,28.903 40.938,20.903 48.957,20.903 "></polygon></svg>