<svg height='100px' width='100px'  fill="#000000" xmlns="http://www.w3.org/2000/svg" data-name="Layer 1" viewBox="0 0 100 100" x="0px" y="0px"><title>Basic </title><path d="M92,47H85.87A36.06,36.06,0,0,0,53,14.13V8a3,3,0,0,0-6,0v6.13A36.06,36.06,0,0,0,14.13,47H8a3,3,0,0,0,0,6h6.13A36.06,36.06,0,0,0,47,85.87V92a3,3,0,0,0,6,0V85.87A36.06,36.06,0,0,0,85.87,53H92a3,3,0,0,0,0-6ZM53,79.85V70a3,3,0,0,0-6,0v9.85A30.05,30.05,0,0,1,20.15,53H30a3,3,0,0,0,0-6H20.15A30.05,30.05,0,0,1,47,20.15V30a3,3,0,0,0,6,0V20.15A30.05,30.05,0,0,1,79.85,47H70a3,3,0,0,0,0,6h9.85A30.05,30.05,0,0,1,53,79.85Z"></path><circle cx="50" cy="50" r="3"></circle></svg>