<svg height='100px' width='100px'  fill="#000000" xmlns="http://www.w3.org/2000/svg" xmlns:xlink="http://www.w3.org/1999/xlink" xmlns:sketch="http://www.bohemiancoding.com/sketch/ns" viewBox="0 0 30 30" version="1.1" x="0px" y="0px"><title>action_004-open-new-tab-arrow-window</title><desc>Created with Sketch.</desc><g stroke="none" stroke-width="1" fill="none" fill-rule="evenodd" sketch:type="MSPage"><g sketch:type="MSArtboardGroup" transform="translate(-180.000000, -45.000000)" fill="#000000"><path d="M206,50.991155 L206,69.008845 C206,70.1085295 205.110326,71 204.008845,71 L185.991155,71 C184.89147,71 184,70.1103261 184,69.008845 L184,50.991155 C184,49.8914705 184.889674,49 185.991155,49 L204.008845,49 C205.10853,49 206,49.8896739 206,50.991155 Z M204,51 L204,69 L186,69 L186,51 L204,51 Z M201,61 C201.552285,61 202,60.5522847 202,60 L202,54 C202,53.4477153 201.552285,53 201,53 L195,53 C194.447715,53 194,53.4477153 194,54 C194,54.5522847 194.447715,55 195,55 L198.580002,55 L190.292893,63.2928932 C189.902369,63.6834175 189.902369,64.3165825 190.292893,64.7071068 C190.683418,65.0976311 191.316582,65.0976311 191.707107,64.7071068 L200,56.4190674 L200,60 C200,60.5522847 200.447715,61 201,61 Z" sketch:type="MSShapeGroup"></path></g></g></svg>